<svg width="234" height="236" viewBox="0 0 234 236" fill="none" xmlns="http://www.w3.org/2000/svg">
<path d="M199.814 34.3091C189.037 23.3894 176.204 14.7322 162.062 8.84192C147.92 2.95169 132.751 -0.0537529 117.441 0.000727623C53.2846 0.000727623 0.998995 52.4811 0.940231 116.909C0.940231 137.544 6.31718 157.619 16.4687 175.392L0 236L61.7614 219.746C78.8472 229.081 97.9887 233.974 117.441 233.979H117.499C181.67 233.979 233.941 181.499 234 117.012C234.015 101.643 231 86.4235 225.13 72.2295C219.261 58.0355 210.652 45.1478 199.799 34.3091H199.814ZM117.441 214.185C100.09 214.191 83.0591 209.503 68.1374 200.615L64.6115 198.491L27.9719 208.137L37.7561 172.251L35.4643 168.548C25.7654 153.066 20.6358 135.14 20.6704 116.85C20.6704 63.3665 64.112 19.7362 117.499 19.7362C130.218 19.7133 142.816 22.2182 154.565 27.1066C166.315 31.995 176.985 39.1701 185.96 48.2183C194.966 57.2313 202.106 67.9453 206.967 79.7424C211.829 91.5395 214.315 104.186 214.284 116.953C214.226 170.628 170.784 214.185 117.441 214.185ZM170.549 141.409C167.655 139.948 153.36 132.883 150.672 131.88C147.998 130.921 146.044 130.42 144.134 133.34C142.181 136.246 136.598 142.869 134.923 144.772C133.248 146.733 131.515 146.955 128.606 145.509C125.712 144.034 116.324 140.966 105.218 130.98C96.5499 123.237 90.747 113.649 89.0134 110.743C87.3386 107.823 88.8518 106.259 90.3062 104.799C91.5844 103.501 93.2004 101.377 94.6548 99.6957C96.1239 98.0142 96.6087 96.7752 97.5636 94.8282C98.5186 92.8517 98.0631 91.1702 97.3433 89.7099C96.6087 88.2497 90.8057 73.839 88.3523 68.0275C86.0017 62.2898 83.6071 63.0863 81.8148 63.0125C80.14 62.9093 78.1861 62.9093 76.2321 62.9093C74.7566 62.9461 73.3046 63.2887 71.9672 63.9157C70.6299 64.5426 69.436 65.4404 68.4605 66.5525C65.7868 69.473 58.309 76.5382 58.309 90.9489C58.309 105.36 68.7397 119.21 70.2088 121.172C71.6485 123.133 90.6882 152.618 119.909 165.303C126.814 168.327 132.249 170.112 136.495 171.469C143.473 173.711 149.776 173.372 154.8 172.649C160.383 171.793 172.003 165.569 174.457 158.74C176.866 151.896 176.866 146.055 176.132 144.831C175.412 143.592 173.458 142.869 170.549 141.409Z" fill="#F8F8F8"/>
</svg>
