<svg width="30" height="22" viewBox="0 0 30 22" fill="none" xmlns="http://www.w3.org/2000/svg">
<path d="M27.5 22H2.5C1.122 22 0 20.878 0 19.5V2.5C0 2.224 0.224 2 0.5 2C0.776 2 1 2.224 1 2.5V19.5C1 20.327 1.673 21 2.5 21H27.5C28.327 21 29 20.327 29 19.5V2.5C29 1.673 28.327 1 27.5 1C27.224 1 27 0.776 27 0.5C27 0.224 27.224 0 27.5 0C28.878 0 30 1.122 30 2.5V19.5C30 20.878 28.878 22 27.5 22Z" fill="#FAE100"/>
<path d="M15 14C14.901 14 14.802 13.971 14.716 13.912L1.066 4.498C0.398 4.038 0 3.278 0 2.467C0 1.107 1.107 0 2.467 0H27.532C28.893 0 30 1.107 30 2.467C30 3.278 29.602 4.037 28.934 4.498L15.284 13.912C15.198 13.971 15.099 14 15 14ZM2.467 1C1.658 1 1 1.658 1 2.467C1 2.95 1.237 3.401 1.634 3.675L15 12.893L28.366 3.675C28.763 3.401 29 2.95 29 2.467C29 1.658 28.342 1 27.533 1H2.467Z" fill="#FAE100"/>
</svg>
