<svg width="260" height="324" viewBox="0 0 260 324" fill="none" xmlns="http://www.w3.org/2000/svg">
<path fill-rule="evenodd" clip-rule="evenodd" d="M129.6 324C129.6 324 259.2 253.014 259.2 129.6C259.2 95.2279 245.546 62.2637 221.241 37.959C196.936 13.6542 163.972 0 129.6 0C95.2279 0 62.2637 13.6542 37.959 37.959C13.6542 62.2637 0 95.2279 0 129.6C0 253.014 129.6 324 129.6 324ZM175.108 175.108C187.204 163.012 194 146.606 194 129.5C194 112.394 187.204 95.9877 175.108 83.8916C163.012 71.7955 146.606 65 129.5 65C112.394 65 95.9877 71.7955 83.8916 83.8916C71.7955 95.9877 65 112.394 65 129.5C65 146.606 71.7955 163.012 83.8916 175.108C95.9877 187.204 112.394 194 129.5 194C146.606 194 163.012 187.204 175.108 175.108Z" fill="#FFDFB1"/>
</svg>
