<svg width="350" height="128" viewBox="0 0 350 128" fill="none" xmlns="http://www.w3.org/2000/svg">
<path d="M65.0417 68.8959L24.6459 6.91669H29.8959L70.4376 68.8959H65.0417ZM42.0001 68.8959L1.60425 6.91669H6.85425L47.2501 68.8959H42.0001ZM53.6667 68.8959L13.1251 6.91669H18.3751L58.7709 68.8959H53.6667ZM61.8334 46L59.0626 41.9167L82.3959 6.91669H87.6459L61.8334 46ZM67.6667 55.0417L65.0417 50.8125L93.9167 6.91669H99.1667L67.6667 55.0417ZM73.5001 63.9375L70.7292 59.8542L105.438 6.91669H110.688L73.5001 63.9375ZM63.5834 124.167V74.2917H67.9584V124.167H63.5834ZM44.3334 124.167V74.2917H48.7084V124.167H44.3334ZM53.9584 124.167V74.2917H58.3334V124.167H53.9584Z" fill="#FAE100"/>
<path d="M86.9 124.167L100.965 85.3066H102.512L88.4466 124.167H86.9ZM80.1333 124.167L94.1983 85.3066H95.6966L81.68 124.167H80.1333ZM83.5166 124.167L97.5333 85.3066H99.1283L85.0633 124.167H83.5166ZM115.223 124.167L102.608 89.3183L103.382 87.1433L116.77 124.167H115.223ZM111.84 124.167L100.965 94.055L101.69 91.8316L113.387 124.167H111.84ZM108.457 124.167L99.2733 98.7433L100.047 96.5683L110.003 124.167H108.457ZM94.7783 111.31L95.31 109.86H101.69L102.222 111.31H94.7783ZM93.6183 114.548L94.15 113.098H102.85L103.382 114.548H93.6183ZM92.4583 117.738L92.99 116.288H104.01L104.542 117.738H92.4583ZM152.336 124.167V85.3066H153.786V124.167H152.336ZM145.956 124.167V85.3066H147.406V124.167H145.956ZM149.146 124.167V85.3066H150.596V124.167H149.146ZM126.526 124.167V85.3066H127.976V124.167H126.526ZM120.146 124.167V85.3066H121.596V124.167H120.146ZM123.336 124.167V85.3066H124.786V124.167H123.336ZM144.216 110.778L129.716 89.9466V87.385L144.216 108.217V110.778ZM144.216 116.385L129.716 95.5533V92.9916L144.216 113.823V116.385ZM144.216 121.992L129.716 101.16V98.5983L144.216 119.43V121.992Z" fill="#FAE100"/>
<path d="M137.44 44.5933C134.916 44.5933 132.836 44.1133 131.2 43.1533C129.564 42.1577 128.676 40.8422 128.533 39.2067L130.08 38.78C130.08 39.9889 130.756 41.0022 132.107 41.82C133.493 42.6022 135.271 42.9933 137.44 42.9933C139.68 42.9933 141.493 42.5844 142.88 41.7667C144.302 40.9489 145.013 39.9 145.013 38.62C145.013 37.4111 144.427 36.4333 143.253 35.6867C142.08 34.94 140.48 34.2822 138.453 33.7133L135.147 32.7533C130.737 31.4733 127.413 29.8556 125.173 27.9C122.933 25.9444 121.813 23.26 121.813 19.8467C121.813 17.3933 122.489 15.2244 123.84 13.34C125.227 11.42 127.093 9.9089 129.44 8.80665C131.822 7.70443 134.507 7.15332 137.493 7.15332C140.196 7.15332 142.631 7.59776 144.8 8.48665C147.004 9.33999 148.817 10.5667 150.24 12.1667C151.697 13.7667 152.622 15.6333 153.013 17.7667L151.467 18.1933C151.147 16.3089 150.347 14.6556 149.067 13.2333C147.787 11.8111 146.151 10.7089 144.16 9.92665C142.169 9.1444 139.947 8.75332 137.493 8.75332C134.791 8.75332 132.373 9.25107 130.24 10.2467C128.142 11.2067 126.471 12.5222 125.227 14.1933C124.017 15.8644 123.413 17.7844 123.413 19.9533C123.413 22.8689 124.427 25.2156 126.453 26.9933C128.516 28.7356 131.556 30.1577 135.573 31.26L138.88 32.1667C141.333 32.8422 143.236 33.66 144.587 34.62C145.937 35.58 146.613 36.8777 146.613 38.5133C146.613 40.3267 145.777 41.8022 144.107 42.94C142.436 44.0422 140.213 44.5933 137.44 44.5933ZM137.44 48.1133C134.097 48.1133 131.289 47.3844 129.013 45.9267C126.773 44.4333 125.457 42.4956 125.067 40.1133L126.667 39.6867C126.951 41.7489 128.053 43.4022 129.973 44.6467C131.929 45.8911 134.417 46.5133 137.44 46.5133C139.644 46.5133 141.582 46.1756 143.253 45.5C144.924 44.8244 146.222 43.8822 147.147 42.6733C148.071 41.4644 148.533 40.0777 148.533 38.5133C148.533 36.3444 147.716 34.6377 146.08 33.3933C144.444 32.1133 142.187 31.0822 139.307 30.3L136.053 29.3933C132.604 28.4333 129.956 27.2244 128.107 25.7667C126.257 24.3089 125.333 22.3711 125.333 19.9533C125.333 18.14 125.849 16.54 126.88 15.1533C127.947 13.7667 129.404 12.6822 131.253 11.9C133.102 11.0822 135.182 10.6733 137.493 10.6733C139.662 10.6733 141.6 11.0111 143.307 11.6867C145.049 12.3267 146.471 13.2511 147.573 14.46C148.676 15.6689 149.351 17.0733 149.6 18.6733L148 19.1C147.751 17.0377 146.649 15.3844 144.693 14.14C142.773 12.8956 140.373 12.2733 137.493 12.2733C135.467 12.2733 133.653 12.6111 132.053 13.2867C130.453 13.9267 129.191 14.8333 128.267 16.0067C127.377 17.1444 126.933 18.46 126.933 19.9533C126.933 21.98 127.733 23.58 129.333 24.7533C130.969 25.9267 133.333 26.9577 136.427 27.8467L139.627 28.7533C142.933 29.6777 145.511 30.9044 147.36 32.4333C149.209 33.9267 150.133 35.9533 150.133 38.5133C150.133 40.3977 149.6 42.0689 148.533 43.5267C147.467 44.9489 145.973 46.0689 144.053 46.8867C142.169 47.7044 139.964 48.1133 137.44 48.1133ZM137.44 51.6333C134.667 51.6333 132.16 51.2067 129.92 50.3533C127.716 49.4644 125.884 48.2377 124.427 46.6733C123.004 45.0733 122.08 43.1889 121.653 41.02L123.2 40.5933C123.556 42.5133 124.356 44.1844 125.6 45.6067C126.88 46.9933 128.533 48.0777 130.56 48.86C132.587 49.6422 134.88 50.0333 137.44 50.0333C140.356 50.0333 142.897 49.5533 145.067 48.5933C147.271 47.5977 148.977 46.2467 150.187 44.54C151.431 42.7977 152.053 40.7889 152.053 38.5133C152.053 35.4911 151.004 33.0733 148.907 31.26C146.809 29.4467 143.857 27.9889 140.053 26.8867L136.907 25.98C134.311 25.2333 132.32 24.4156 130.933 23.5267C129.547 22.6377 128.853 21.4467 128.853 19.9533C128.853 18.2111 129.671 16.8244 131.307 15.7933C132.942 14.7267 135.004 14.1933 137.493 14.1933C139.911 14.1933 141.902 14.6911 143.467 15.6867C145.031 16.6822 145.92 17.98 146.133 19.58L144.587 20.0067C144.516 18.7622 143.822 17.7489 142.507 16.9667C141.227 16.1844 139.556 15.7933 137.493 15.7933C135.537 15.7933 133.867 16.1667 132.48 16.9133C131.129 17.66 130.453 18.6377 130.453 19.8467C130.453 20.9489 131.076 21.8377 132.32 22.5133C133.6 23.1889 135.271 23.8289 137.333 24.4333L140.373 25.34C144.676 26.62 147.964 28.2911 150.24 30.3533C152.516 32.38 153.653 35.1356 153.653 38.62C153.653 41.1444 152.96 43.4022 151.573 45.3933C150.222 47.3489 148.32 48.8777 145.867 49.98C143.449 51.0822 140.64 51.6333 137.44 51.6333ZM154.7 9.55332V7.95332H187.82V9.55332H154.7ZM154.7 13.0733V11.4733H187.82V13.0733H154.7ZM154.7 16.5933V14.9933H187.82V16.5933H154.7ZM174.007 50.8333V18.3H175.607V50.8333H174.007ZM166.967 50.8333V18.3H168.567V50.8333H166.967ZM170.487 50.8333V18.3H172.087V50.8333H170.487ZM207.053 44.5933C205.027 44.5933 203.337 44.1844 201.987 43.3667C200.671 42.5489 199.676 41.4644 199 40.1133C198.36 38.7267 198.04 37.1977 198.04 35.5267V7.95332H199.64V35.5267C199.64 37.5889 200.227 39.3489 201.4 40.8067C202.573 42.2644 204.457 42.9933 207.053 42.9933C209.649 42.9933 211.533 42.2644 212.707 40.8067C213.88 39.3489 214.467 37.5889 214.467 35.5267V7.95332H216.067V35.5267C216.067 37.1977 215.729 38.7267 215.053 40.1133C214.413 41.4644 213.417 42.5489 212.067 43.3667C210.751 44.1844 209.08 44.5933 207.053 44.5933ZM207.053 51.6333C203.747 51.6333 200.884 50.9222 198.467 49.5C196.084 48.0422 194.236 46.0867 192.92 43.6333C191.64 41.18 191 38.4777 191 35.5267V7.95332H192.6V35.5267C192.6 38.1933 193.169 40.6289 194.307 42.8333C195.48 45.0377 197.133 46.7977 199.267 48.1133C201.436 49.3933 204.031 50.0333 207.053 50.0333C210.076 50.0333 212.653 49.3933 214.787 48.1133C216.956 46.7977 218.609 45.0377 219.747 42.8333C220.92 40.6289 221.507 38.1933 221.507 35.5267V7.95332H223.107V35.5267C223.107 38.4777 222.449 41.18 221.133 43.6333C219.853 46.0867 218.022 48.0422 215.64 49.5C213.257 50.9222 210.396 51.6333 207.053 51.6333ZM207.053 48.1133C204.387 48.1133 202.111 47.5444 200.227 46.4067C198.377 45.2689 196.956 43.7577 195.96 41.8733C195 39.9533 194.52 37.8377 194.52 35.5267V7.95332H196.12V35.5267C196.12 37.5533 196.529 39.4022 197.347 41.0733C198.2 42.7089 199.444 44.0244 201.08 45.02C202.716 46.0156 204.707 46.5133 207.053 46.5133C209.436 46.5133 211.427 46.0156 213.027 45.02C214.662 44.0244 215.889 42.7089 216.707 41.0733C217.56 39.4022 217.987 37.5533 217.987 35.5267V7.95332H219.587V35.5267C219.587 37.8377 219.089 39.9533 218.093 41.8733C217.133 43.7577 215.711 45.2689 213.827 46.4067C211.977 47.5444 209.72 48.1133 207.053 48.1133ZM239.008 50.8333V49.2333H244.875C247.897 49.2333 250.652 48.7533 253.142 47.7933C255.666 46.7977 257.852 45.4111 259.702 43.6333C261.55 41.8556 262.972 39.7577 263.968 37.34C264.999 34.9222 265.515 32.2733 265.515 29.3933C265.515 26.5133 264.999 23.8644 263.968 21.4467C262.972 19.0289 261.55 16.9311 259.702 15.1533C257.852 13.3756 255.666 12.0067 253.142 11.0467C250.652 10.0511 247.897 9.55332 244.875 9.55332H239.008V7.95332H244.928C248.163 7.95332 251.132 8.48665 253.835 9.55332C256.537 10.62 258.883 12.1133 260.875 14.0333C262.866 15.9533 264.412 18.2111 265.515 20.8067C266.617 23.4022 267.168 26.2644 267.168 29.3933C267.168 32.5222 266.617 35.4022 265.515 38.0333C264.412 40.6289 262.866 42.8867 260.875 44.8067C258.883 46.7267 256.537 48.22 253.835 49.2867C251.132 50.3177 248.163 50.8333 244.928 50.8333H239.008ZM235.488 50.8333V7.95332H237.088V50.8333H235.488ZM228.448 50.8333V7.95332H230.048V50.8333H228.448ZM231.968 50.8333V7.95332H233.568V50.8333H231.968ZM239.008 47.3133V45.7133H244.875C248.252 45.7133 251.222 45.02 253.782 43.6333C256.342 42.2467 258.35 40.3267 259.808 37.8733C261.266 35.3844 261.995 32.5577 261.995 29.3933C261.995 26.1933 261.266 23.3667 259.808 20.9133C258.35 18.46 256.342 16.54 253.782 15.1533C251.222 13.7667 248.252 13.0733 244.875 13.0733H239.008V11.4733H244.928C248.59 11.4733 251.826 12.2556 254.635 13.82C257.443 15.3489 259.648 17.4644 261.248 20.1667C262.848 22.8333 263.648 25.9089 263.648 29.3933C263.648 32.8777 262.848 35.9711 261.248 38.6733C259.648 41.3756 257.443 43.4911 254.635 45.02C251.826 46.5489 248.59 47.3133 244.928 47.3133H239.008ZM239.008 43.7933V42.1933H244.875C247.577 42.1933 249.942 41.66 251.968 40.5933C253.995 39.5267 255.577 38.0333 256.715 36.1133C257.853 34.1577 258.422 31.9177 258.422 29.3933C258.422 26.8333 257.853 24.5933 256.715 22.6733C255.577 20.7533 253.995 19.26 251.968 18.1933C249.942 17.1267 247.577 16.5933 244.875 16.5933H239.008V14.9933H244.928C247.915 14.9933 250.546 15.6156 252.822 16.86C255.097 18.0689 256.875 19.7577 258.155 21.9267C259.435 24.06 260.075 26.5489 260.075 29.3933C260.075 32.2377 259.435 34.7444 258.155 36.9133C256.875 39.0822 255.097 40.7711 252.822 41.98C250.546 43.1889 247.915 43.7933 244.928 43.7933H239.008ZM278.457 50.8333V7.95332H280.057V50.8333H278.457ZM271.417 50.8333V7.95332H273.017V50.8333H271.417ZM274.937 50.8333V7.95332H276.537V50.8333H274.937ZM327.188 29.3933C327.188 26.5489 326.691 23.8822 325.695 21.3933C324.735 18.8689 323.348 16.6644 321.535 14.78C319.722 12.8956 317.552 11.42 315.028 10.3533C312.504 9.28665 309.677 8.75332 306.548 8.75332C303.419 8.75332 300.592 9.28665 298.068 10.3533C295.544 11.42 293.375 12.8956 291.562 14.78C289.748 16.6644 288.344 18.8689 287.348 21.3933C286.388 23.8822 285.908 26.5489 285.908 29.3933C285.908 32.2377 286.388 34.9222 287.348 37.4467C288.344 39.9356 289.748 42.1222 291.562 44.0067C293.375 45.8911 295.544 47.3667 298.068 48.4333C300.592 49.5 303.419 50.0333 306.548 50.0333C309.677 50.0333 312.504 49.5 315.028 48.4333C317.552 47.3667 319.722 45.8911 321.535 44.0067C323.348 42.1222 324.735 39.9356 325.695 37.4467C326.691 34.9222 327.188 32.2377 327.188 29.3933ZM323.668 29.3933C323.668 26.2289 322.975 23.3667 321.588 20.8067C320.202 18.2111 318.228 16.1489 315.668 14.62C313.108 13.0911 310.068 12.3267 306.548 12.3267C303.064 12.3267 300.024 13.0911 297.428 14.62C294.868 16.1489 292.895 18.2111 291.508 20.8067C290.122 23.3667 289.428 26.2289 289.428 29.3933C289.428 32.5222 290.122 35.3844 291.508 37.98C292.895 40.5756 294.868 42.6377 297.428 44.1667C300.024 45.6956 303.064 46.46 306.548 46.46C310.068 46.46 313.108 45.6956 315.668 44.1667C318.228 42.6377 320.202 40.5756 321.588 37.98C322.975 35.3844 323.668 32.5222 323.668 29.3933ZM320.148 29.3933C320.148 26.9044 319.615 24.6467 318.548 22.62C317.482 20.5577 315.935 18.9222 313.908 17.7133C311.882 16.4689 309.428 15.8467 306.548 15.8467C303.704 15.8467 301.251 16.4689 299.188 17.7133C297.162 18.9222 295.615 20.5577 294.548 22.62C293.482 24.6467 292.948 26.9044 292.948 29.3933C292.948 31.8822 293.482 34.1577 294.548 36.22C295.615 38.2467 297.162 39.8822 299.188 41.1267C301.251 42.3356 303.704 42.94 306.548 42.94C309.428 42.94 311.882 42.3356 313.908 41.1267C315.935 39.8822 317.482 38.2467 318.548 36.22C319.615 34.1577 320.148 31.8822 320.148 29.3933ZM306.548 44.5933C303.384 44.5933 300.664 43.9177 298.388 42.5667C296.112 41.18 294.371 39.3311 293.162 37.02C291.952 34.7089 291.348 32.1667 291.348 29.3933C291.348 26.5844 291.952 24.0422 293.162 21.7667C294.371 19.4556 296.112 17.6244 298.388 16.2733C300.664 14.8867 303.384 14.1933 306.548 14.1933C309.712 14.1933 312.432 14.8867 314.708 16.2733C316.984 17.6244 318.726 19.4556 319.935 21.7667C321.144 24.0422 321.748 26.5844 321.748 29.3933C321.748 32.1667 321.144 34.7089 319.935 37.02C318.726 39.3311 316.984 41.18 314.708 42.5667C312.432 43.9177 309.712 44.5933 306.548 44.5933ZM306.548 48.1133C303.704 48.1133 301.126 47.6333 298.815 46.6733C296.539 45.6777 294.566 44.3267 292.895 42.62C291.259 40.9133 289.997 38.94 289.108 36.7C288.255 34.4244 287.828 31.9889 287.828 29.3933C287.828 26.7977 288.255 24.38 289.108 22.14C289.997 19.8644 291.259 17.8733 292.895 16.1667C294.566 14.4244 296.539 13.0733 298.815 12.1133C301.126 11.1533 303.704 10.6733 306.548 10.6733C309.392 10.6733 311.952 11.1533 314.228 12.1133C316.539 13.0733 318.512 14.4244 320.148 16.1667C321.819 17.8733 323.082 19.8644 323.935 22.14C324.824 24.38 325.268 26.7977 325.268 29.3933C325.268 31.9889 324.824 34.4244 323.935 36.7C323.082 38.94 321.819 40.9133 320.148 42.62C318.512 44.3267 316.539 45.6777 314.228 46.6733C311.952 47.6333 309.392 48.1133 306.548 48.1133ZM306.548 51.6333C303.206 51.6333 300.166 51.0644 297.428 49.9267C294.726 48.7533 292.397 47.1533 290.442 45.1267C288.486 43.1 286.975 40.7533 285.908 38.0867C284.842 35.3844 284.308 32.4867 284.308 29.3933C284.308 26.3 284.842 23.42 285.908 20.7533C286.975 18.0511 288.486 15.6867 290.442 13.66C292.397 11.6333 294.726 10.0511 297.428 8.91332C300.166 7.73999 303.206 7.15332 306.548 7.15332C309.891 7.15332 312.912 7.73999 315.615 8.91332C318.352 10.0511 320.699 11.6333 322.655 13.66C324.611 15.6867 326.122 18.0511 327.188 20.7533C328.255 23.42 328.788 26.3 328.788 29.3933C328.788 32.4867 328.255 35.3844 327.188 38.0867C326.122 40.7533 324.611 43.1 322.655 45.1267C320.699 47.1533 318.352 48.7533 315.615 49.9267C312.912 51.0644 309.891 51.6333 306.548 51.6333Z" fill="#FAE100"/>
<path d="M168.12 94.1667V84.8333H171.76C172.578 84.8333 173.276 84.9625 173.853 85.22C174.431 85.4775 174.876 85.8508 175.187 86.34C175.498 86.8292 175.653 87.4108 175.653 88.0867C175.653 88.7625 175.498 89.3442 175.187 89.8333C174.876 90.3133 174.431 90.6867 173.853 90.9533C173.276 91.2108 172.578 91.34 171.76 91.34H168.853L169.453 90.7133V94.1667H168.12ZM169.453 90.8467L168.853 90.18H171.72C172.573 90.18 173.218 89.9975 173.653 89.6333C174.098 89.2692 174.32 88.7533 174.32 88.0867C174.32 87.42 174.098 86.9042 173.653 86.54C173.218 86.1758 172.573 85.9933 171.72 85.9933H168.853L169.453 85.3267V90.8467ZM181.563 94.1667V92.6733L181.497 92.3933V89.8467C181.497 89.3042 181.337 88.8867 181.017 88.5933C180.705 88.2908 180.234 88.14 179.603 88.14C179.185 88.14 178.777 88.2108 178.377 88.3533C177.977 88.4867 177.638 88.6692 177.363 88.9L176.83 87.94C177.194 87.6467 177.63 87.4242 178.137 87.2733C178.652 87.1133 179.19 87.0333 179.75 87.0333C180.718 87.0333 181.465 87.2692 181.99 87.74C182.514 88.2108 182.777 88.9308 182.777 89.9V94.1667H181.563ZM179.243 94.2467C178.718 94.2467 178.257 94.1575 177.857 93.98C177.465 93.8025 177.163 93.5575 176.95 93.2467C176.737 92.9267 176.63 92.5667 176.63 92.1667C176.63 91.7842 176.718 91.4375 176.897 91.1267C177.083 90.8158 177.381 90.5667 177.79 90.38C178.208 90.1933 178.768 90.1 179.47 90.1H181.71V91.02H179.523C178.883 91.02 178.452 91.1267 178.23 91.34C178.008 91.5533 177.897 91.8108 177.897 92.1133C177.897 92.46 178.034 92.74 178.31 92.9533C178.585 93.1575 178.968 93.26 179.457 93.26C179.937 93.26 180.354 93.1533 180.71 92.94C181.074 92.7267 181.337 92.4158 181.497 92.0067L181.75 92.8867C181.581 93.3042 181.283 93.6375 180.857 93.8867C180.43 94.1267 179.892 94.2467 179.243 94.2467ZM187.031 94.26C187.653 94.26 188.204 94.1708 188.684 93.9933C189.173 93.8067 189.559 93.5533 189.844 93.2333C190.128 92.9042 190.271 92.5267 190.271 92.1C190.271 91.5667 190.044 91.1442 189.591 90.8333C189.138 90.5225 188.515 90.3667 187.724 90.3667L187.671 90.6733C188.133 90.6733 188.542 90.5975 188.898 90.4467C189.253 90.2958 189.538 90.0908 189.751 89.8333C189.964 89.5667 190.071 89.2642 190.071 88.9267C190.071 88.5267 189.928 88.18 189.644 87.8867C189.368 87.5933 188.991 87.3708 188.511 87.22C188.031 87.06 187.484 86.9892 186.871 87.0067C186.462 87.0158 186.048 87.0775 185.631 87.1933C185.222 87.3 184.804 87.4558 184.378 87.66L184.724 88.66C185.106 88.4733 185.479 88.3358 185.844 88.2467C186.218 88.1575 186.582 88.1092 186.938 88.1C187.302 88.1 187.618 88.14 187.884 88.22C188.159 88.3 188.373 88.4158 188.524 88.5667C188.675 88.7175 188.751 88.9 188.751 89.1133C188.751 89.3092 188.684 89.4825 188.551 89.6333C188.426 89.7758 188.248 89.8825 188.018 89.9533C187.786 90.0242 187.515 90.06 187.204 90.06H186.004V90.98H187.284C187.808 90.98 188.218 91.0692 188.511 91.2467C188.804 91.4242 188.951 91.6775 188.951 92.0067C188.951 92.2375 188.871 92.4425 188.711 92.62C188.551 92.7892 188.319 92.9225 188.018 93.02C187.724 93.1175 187.373 93.1667 186.964 93.1667C186.519 93.1667 186.079 93.1092 185.644 92.9933C185.208 92.8692 184.822 92.7 184.484 92.4867L184.098 93.46C184.498 93.7175 184.951 93.9175 185.458 94.06C185.973 94.1933 186.498 94.26 187.031 94.26ZM195.963 94.2467C195.377 94.2467 194.839 94.1133 194.35 93.8467C193.87 93.5708 193.483 93.1667 193.19 92.6333C192.906 92.1 192.763 91.4333 192.763 90.6333C192.763 89.8333 192.901 89.1667 193.177 88.6333C193.461 88.1 193.843 87.7 194.323 87.4333C194.813 87.1667 195.359 87.0333 195.963 87.0333C196.657 87.0333 197.27 87.1842 197.803 87.4867C198.337 87.7892 198.759 88.2108 199.07 88.7533C199.381 89.2867 199.537 89.9133 199.537 90.6333C199.537 91.3533 199.381 91.9842 199.07 92.5267C198.759 93.0692 198.337 93.4908 197.803 93.7933C197.27 94.0958 196.657 94.2467 195.963 94.2467ZM192.217 96.7533V87.1H193.443V89.0067L193.363 90.6467L193.497 92.2867V96.7533H192.217ZM195.857 93.1267C196.31 93.1267 196.714 93.0242 197.07 92.82C197.434 92.6158 197.719 92.3267 197.923 91.9533C198.137 91.5708 198.243 91.1308 198.243 90.6333C198.243 90.1267 198.137 89.6908 197.923 89.3267C197.719 88.9533 197.434 88.6642 197.07 88.46C196.714 88.2558 196.31 88.1533 195.857 88.1533C195.413 88.1533 195.008 88.2558 194.643 88.46C194.288 88.6642 194.003 88.9533 193.79 89.3267C193.586 89.6908 193.483 90.1267 193.483 90.6333C193.483 91.1308 193.586 91.5708 193.79 91.9533C194.003 92.3267 194.288 92.6158 194.643 92.82C195.008 93.0242 195.413 93.1267 195.857 93.1267ZM204.663 94.2733C204.077 94.2733 203.557 94.18 203.103 93.9933C202.658 93.8067 202.277 93.5308 201.957 93.1667C201.637 92.7933 201.392 92.3267 201.223 91.7667C201.063 91.1975 200.983 90.5308 200.983 89.7667C200.983 89.1625 201.037 88.62 201.143 88.14C201.25 87.66 201.401 87.2333 201.597 86.86C201.801 86.4867 202.05 86.1625 202.343 85.8867C202.645 85.6108 202.983 85.3842 203.357 85.2067C203.738 85.02 204.157 84.8775 204.61 84.78L207.837 84.06L208.023 85.2467L205.05 85.8867C204.872 85.9225 204.658 85.9758 204.41 86.0467C204.161 86.1175 203.908 86.2292 203.65 86.38C203.392 86.5225 203.152 86.7225 202.93 86.98C202.708 87.2375 202.53 87.5758 202.397 87.9933C202.263 88.4025 202.197 88.9092 202.197 89.5133C202.197 89.6825 202.201 89.8108 202.21 89.9C202.218 89.9892 202.228 90.0775 202.237 90.1667C202.254 90.2558 202.268 90.3892 202.277 90.5667L201.743 90.02C201.885 89.5308 202.112 89.1042 202.423 88.74C202.734 88.3758 203.108 88.0958 203.543 87.9C203.988 87.6958 204.472 87.5933 204.997 87.5933C205.654 87.5933 206.237 87.7358 206.743 88.02C207.258 88.3042 207.663 88.6958 207.957 89.1933C208.25 89.6908 208.397 90.26 208.397 90.9C208.397 91.5492 208.241 92.1308 207.93 92.6467C207.628 93.1533 207.197 93.5533 206.637 93.8467C206.077 94.1308 205.418 94.2733 204.663 94.2733ZM204.783 93.2067C205.237 93.2067 205.637 93.1092 205.983 92.9133C206.33 92.7092 206.601 92.4375 206.797 92.1C206.992 91.7533 207.09 91.3667 207.09 90.94C207.09 90.5133 206.992 90.1358 206.797 89.8067C206.601 89.4775 206.33 89.22 205.983 89.0333C205.637 88.8375 205.228 88.74 204.757 88.74C204.312 88.74 203.912 88.8333 203.557 89.02C203.201 89.1975 202.925 89.4508 202.73 89.78C202.534 90.1 202.437 90.4733 202.437 90.9C202.437 91.3267 202.534 91.7175 202.73 92.0733C202.934 92.42 203.21 92.6958 203.557 92.9C203.912 93.1042 204.321 93.2067 204.783 93.2067ZM213.251 94.2467C212.54 94.2467 211.909 94.0908 211.358 93.78C210.807 93.4692 210.371 93.0425 210.051 92.5C209.731 91.9492 209.571 91.3267 209.571 90.6333C209.571 89.9308 209.731 89.3092 210.051 88.7667C210.371 88.2242 210.807 87.8025 211.358 87.5C211.909 87.1892 212.54 87.0333 213.251 87.0333C213.953 87.0333 214.58 87.1892 215.131 87.5C215.691 87.8025 216.127 88.2242 216.438 88.7667C216.758 89.3 216.918 89.9225 216.918 90.6333C216.918 91.3358 216.758 91.9575 216.438 92.5C216.127 93.0425 215.691 93.4692 215.131 93.78C214.58 94.0908 213.953 94.2467 213.251 94.2467ZM213.251 93.1267C213.704 93.1267 214.109 93.0242 214.464 92.82C214.829 92.6158 215.113 92.3267 215.318 91.9533C215.523 91.5708 215.624 91.1308 215.624 90.6333C215.624 90.1267 215.523 89.6908 215.318 89.3267C215.113 88.9533 214.829 88.6642 214.464 88.46C214.109 88.2558 213.704 88.1533 213.251 88.1533C212.798 88.1533 212.393 88.2558 212.038 88.46C211.683 88.6642 211.398 88.9533 211.184 89.3267C210.971 89.6908 210.864 90.1267 210.864 90.6333C210.864 91.1308 210.971 91.5708 211.184 91.9533C211.398 92.3267 211.683 92.6158 212.038 92.82C212.393 93.0242 212.798 93.1267 213.251 93.1267ZM219.906 94.1667V87.8867L220.226 88.22H217.319V87.1H223.773V88.22H220.879L221.186 87.8867V94.1667H219.906ZM230.201 94.1667L227.468 90.7267L228.521 90.0867L231.708 94.1667H230.201ZM225.081 94.1667V87.1H226.361V94.1667H225.081ZM225.974 91.18V90.0867H228.308V91.18H225.974ZM228.628 90.78L227.441 90.62L230.148 87.1H231.521L228.628 90.78ZM237.253 94.1667V92.6733L237.187 92.3933V89.8467C237.187 89.3042 237.027 88.8867 236.707 88.5933C236.395 88.2908 235.924 88.14 235.293 88.14C234.875 88.14 234.467 88.2108 234.067 88.3533C233.667 88.4867 233.328 88.6692 233.053 88.9L232.52 87.94C232.884 87.6467 233.32 87.4242 233.827 87.2733C234.342 87.1133 234.88 87.0333 235.44 87.0333C236.408 87.0333 237.155 87.2692 237.68 87.74C238.204 88.2108 238.467 88.9308 238.467 89.9V94.1667H237.253ZM234.933 94.2467C234.408 94.2467 233.947 94.1575 233.547 93.98C233.155 93.8025 232.853 93.5575 232.64 93.2467C232.427 92.9267 232.32 92.5667 232.32 92.1667C232.32 91.7842 232.408 91.4375 232.587 91.1267C232.773 90.8158 233.071 90.5667 233.48 90.38C233.898 90.1933 234.458 90.1 235.16 90.1H237.4V91.02H235.213C234.573 91.02 234.142 91.1267 233.92 91.34C233.698 91.5533 233.587 91.8108 233.587 92.1133C233.587 92.46 233.724 92.74 234 92.9533C234.275 93.1575 234.658 93.26 235.147 93.26C235.627 93.26 236.044 93.1533 236.4 92.94C236.764 92.7267 237.027 92.4158 237.187 92.0067L237.44 92.8867C237.271 93.3042 236.973 93.6375 236.547 93.8867C236.12 94.1267 235.582 94.2467 234.933 94.2467ZM247.432 94.2467C246.712 94.2467 246.068 94.0908 245.498 93.78C244.938 93.4692 244.498 93.0425 244.178 92.5C243.858 91.9575 243.698 91.3358 243.698 90.6333C243.698 89.9308 243.858 89.3092 244.178 88.7667C244.498 88.2242 244.938 87.8025 245.498 87.5C246.068 87.1892 246.712 87.0333 247.432 87.0333C248.072 87.0333 248.641 87.1625 249.138 87.42C249.645 87.6692 250.037 88.0425 250.312 88.54L249.338 89.1667C249.108 88.82 248.823 88.5667 248.485 88.4067C248.157 88.2375 247.801 88.1533 247.418 88.1533C246.957 88.1533 246.543 88.2558 246.178 88.46C245.814 88.6642 245.525 88.9533 245.312 89.3267C245.098 89.6908 244.992 90.1267 244.992 90.6333C244.992 91.14 245.098 91.58 245.312 91.9533C245.525 92.3267 245.814 92.6158 246.178 92.82C246.543 93.0242 246.957 93.1267 247.418 93.1267C247.801 93.1267 248.157 93.0467 248.485 92.8867C248.823 92.7175 249.108 92.46 249.338 92.1133L250.312 92.7267C250.037 93.2158 249.645 93.5933 249.138 93.86C248.641 94.1175 248.072 94.2467 247.432 94.2467ZM256.303 94.1667V92.6733L256.236 92.3933V89.8467C256.236 89.3042 256.076 88.8867 255.756 88.5933C255.445 88.2908 254.973 88.14 254.343 88.14C253.925 88.14 253.516 88.2108 253.116 88.3533C252.716 88.4867 252.378 88.6692 252.103 88.9L251.569 87.94C251.933 87.6467 252.369 87.4242 252.876 87.2733C253.392 87.1133 253.929 87.0333 254.489 87.0333C255.458 87.0333 256.205 87.2692 256.729 87.74C257.253 88.2108 257.516 88.9308 257.516 89.9V94.1667H256.303ZM253.983 94.2467C253.458 94.2467 252.996 94.1575 252.596 93.98C252.205 93.8025 251.903 93.5575 251.689 93.2467C251.476 92.9267 251.369 92.5667 251.369 92.1667C251.369 91.7842 251.458 91.4375 251.636 91.1267C251.823 90.8158 252.12 90.5667 252.529 90.38C252.947 90.1933 253.507 90.1 254.209 90.1H256.449V91.02H254.263C253.623 91.02 253.192 91.1267 252.969 91.34C252.747 91.5533 252.636 91.8108 252.636 92.1133C252.636 92.46 252.773 92.74 253.049 92.9533C253.325 93.1575 253.707 93.26 254.196 93.26C254.676 93.26 255.093 93.1533 255.449 92.94C255.813 92.7267 256.076 92.4158 256.236 92.0067L256.489 92.8867C256.32 93.3042 256.023 93.6375 255.596 93.8867C255.169 94.1267 254.632 94.2467 253.983 94.2467ZM259.821 94.1667V87.1H261.101V92.2467L265.434 87.1H266.594V94.1667H265.314V89.02L260.994 94.1667H259.821ZM263.128 86.18C262.478 86.18 261.968 86.0242 261.594 85.7133C261.23 85.3933 261.043 84.9358 261.034 84.34H261.901C261.91 84.6775 262.021 84.9442 262.234 85.14C262.457 85.3358 262.75 85.4333 263.114 85.4333C263.478 85.4333 263.772 85.3358 263.994 85.14C264.217 84.9442 264.332 84.6775 264.341 84.34H265.234C265.225 84.9358 265.034 85.3933 264.661 85.7133C264.288 86.0242 263.777 86.18 263.128 86.18ZM270.478 94.1667V87.8867L270.798 88.22H267.892V87.1H274.345V88.22H271.452L271.758 87.8867V94.1667H270.478ZM278.368 94.2467C277.658 94.2467 277.026 94.0908 276.475 93.78C275.924 93.4692 275.488 93.0425 275.168 92.5C274.848 91.9492 274.688 91.3267 274.688 90.6333C274.688 89.9308 274.848 89.3092 275.168 88.7667C275.488 88.2242 275.924 87.8025 276.475 87.5C277.026 87.1892 277.658 87.0333 278.368 87.0333C279.071 87.0333 279.698 87.1892 280.248 87.5C280.808 87.8025 281.244 88.2242 281.555 88.7667C281.875 89.3 282.035 89.9225 282.035 90.6333C282.035 91.3358 281.875 91.9575 281.555 92.5C281.244 93.0425 280.808 93.4692 280.248 93.78C279.698 94.0908 279.071 94.2467 278.368 94.2467ZM278.368 93.1267C278.822 93.1267 279.226 93.0242 279.582 92.82C279.946 92.6158 280.231 92.3267 280.435 91.9533C280.639 91.5708 280.742 91.1308 280.742 90.6333C280.742 90.1267 280.639 89.6908 280.435 89.3267C280.231 88.9533 279.946 88.6642 279.582 88.46C279.226 88.2558 278.822 88.1533 278.368 88.1533C277.915 88.1533 277.511 88.2558 277.155 88.46C276.799 88.6642 276.515 88.9533 276.302 89.3267C276.088 89.6908 275.982 90.1267 275.982 90.6333C275.982 91.1308 276.088 91.5708 276.302 91.9533C276.515 92.3267 276.799 92.6158 277.155 92.82C277.511 93.0242 277.915 93.1267 278.368 93.1267ZM283.883 94.1667V87.1H287.163C287.99 87.1 288.639 87.26 289.11 87.58C289.59 87.8908 289.83 88.3358 289.83 88.9133C289.83 89.4908 289.603 89.94 289.15 90.26C288.706 90.5708 288.114 90.7267 287.377 90.7267L287.577 90.38C288.421 90.38 289.048 90.5358 289.457 90.8467C289.866 91.1575 290.07 91.6158 290.07 92.22C290.07 92.8333 289.839 93.3133 289.377 93.66C288.923 93.9975 288.226 94.1667 287.283 94.1667H283.883ZM285.137 93.18H287.19C287.723 93.18 288.123 93.1 288.39 92.94C288.657 92.7708 288.79 92.5042 288.79 92.14C288.79 91.7667 288.666 91.4958 288.417 91.3267C288.177 91.1492 287.794 91.06 287.27 91.06H285.137V93.18ZM285.137 90.14H287.057C287.546 90.14 287.914 90.0508 288.163 89.8733C288.421 89.6867 288.55 89.4292 288.55 89.1C288.55 88.7625 288.421 88.5092 288.163 88.34C287.914 88.1708 287.546 88.0867 287.057 88.0867H285.137V90.14Z" fill="#FAE100"/>
</svg>
