<svg width="372" height="151" viewBox="0 0 372 151" fill="none" xmlns="http://www.w3.org/2000/svg">
<path d="M78.05 82.675L29.575 8.3H35.875L84.525 82.675H78.05ZM50.4 82.675L1.925 8.3H8.225L56.7 82.675H50.4ZM64.4 82.675L15.75 8.3H22.05L70.525 82.675H64.4ZM74.2 55.2L70.875 50.3L98.875 8.3H105.175L74.2 55.2ZM81.2 66.05L78.05 60.975L112.7 8.3H119L81.2 66.05ZM88.2 76.725L84.875 71.825L126.525 8.3H132.825L88.2 76.725ZM76.3 149V89.15H81.55V149H76.3ZM53.2 149V89.15H58.45V149H53.2ZM64.75 149V89.15H70V149H64.75Z" fill="white"/>
<path d="M104.88 134L121.758 87.368H123.614L106.736 134H104.88ZM96.7601 134L113.638 87.368H115.436L98.6161 134H96.7601ZM100.82 134L117.64 87.368H119.554L102.676 134H100.82ZM138.868 134L123.73 92.182L124.658 89.572L140.724 134H138.868ZM134.808 134L121.758 97.866L122.628 95.198L136.664 134H134.808ZM130.748 134L119.728 103.492L120.656 100.882L132.604 134H130.748ZM114.334 118.572L114.972 116.832H122.628L123.266 118.572H114.334ZM112.942 122.458L113.58 120.718H124.02L124.658 122.458H112.942ZM111.55 126.286L112.188 124.546H125.412L126.05 126.286H111.55ZM183.403 134V87.368H185.143V134H183.403ZM175.747 134V87.368H177.487V134H175.747ZM179.575 134V87.368H181.315V134H179.575ZM152.431 134V87.368H154.171V134H152.431ZM144.775 134V87.368H146.515V134H144.775ZM148.603 134V87.368H150.343V134H148.603ZM173.659 117.934L156.259 92.936V89.862L173.659 114.86V117.934ZM173.659 124.662L156.259 99.664V96.59L173.659 121.588V124.662ZM173.659 131.39L156.259 106.392V103.318L173.659 128.316V131.39Z" fill="white"/>
<path d="M139.928 75.512C136.899 75.512 134.403 74.936 132.44 73.784C130.477 72.5893 129.411 71.0107 129.24 69.048L131.096 68.536C131.096 69.9867 131.907 71.2027 133.528 72.184C135.192 73.1227 137.325 73.592 139.928 73.592C142.616 73.592 144.792 73.1013 146.456 72.12C148.163 71.1387 149.016 69.88 149.016 68.344C149.016 66.8933 148.312 65.72 146.904 64.824C145.496 63.928 143.576 63.1387 141.144 62.456L137.176 61.304C131.885 59.768 127.896 57.8267 125.208 55.48C122.52 53.1333 121.176 49.912 121.176 45.816C121.176 42.872 121.987 40.2693 123.608 38.008C125.272 35.704 127.512 33.8907 130.328 32.568C133.187 31.2453 136.408 30.584 139.992 30.584C143.235 30.584 146.157 31.1173 148.76 32.184C151.405 33.208 153.581 34.68 155.288 36.6C157.037 38.52 158.147 40.76 158.616 43.32L156.76 43.832C156.376 41.5707 155.416 39.5867 153.88 37.88C152.344 36.1733 150.381 34.8507 147.992 33.912C145.603 32.9733 142.936 32.504 139.992 32.504C136.749 32.504 133.848 33.1013 131.288 34.296C128.771 35.448 126.765 37.0267 125.272 39.032C123.821 41.0373 123.096 43.3413 123.096 45.944C123.096 49.4427 124.312 52.2587 126.744 54.392C129.219 56.4827 132.867 58.1893 137.688 59.512L141.656 60.6C144.6 61.4107 146.883 62.392 148.504 63.544C150.125 64.696 150.936 66.2533 150.936 68.216C150.936 70.392 149.933 72.1627 147.928 73.528C145.923 74.8507 143.256 75.512 139.928 75.512ZM139.928 79.736C135.917 79.736 132.547 78.8613 129.816 77.112C127.128 75.32 125.549 72.9947 125.08 70.136L127 69.624C127.341 72.0987 128.664 74.0827 130.968 75.576C133.315 77.0693 136.301 77.816 139.928 77.816C142.573 77.816 144.899 77.4107 146.904 76.6C148.909 75.7893 150.467 74.6587 151.576 73.208C152.685 71.7573 153.24 70.0933 153.24 68.216C153.24 65.6133 152.259 63.5653 150.296 62.072C148.333 60.536 145.624 59.2987 142.168 58.36L138.264 57.272C134.125 56.12 130.947 54.6693 128.728 52.92C126.509 51.1707 125.4 48.8453 125.4 45.944C125.4 43.768 126.019 41.848 127.256 40.184C128.536 38.52 130.285 37.2187 132.504 36.28C134.723 35.2987 137.219 34.808 139.992 34.808C142.595 34.808 144.92 35.2133 146.968 36.024C149.059 36.792 150.765 37.9013 152.088 39.352C153.411 40.8027 154.221 42.488 154.52 44.408L152.6 44.92C152.301 42.4453 150.979 40.4613 148.632 38.968C146.328 37.4747 143.448 36.728 139.992 36.728C137.56 36.728 135.384 37.1333 133.464 37.944C131.544 38.712 130.029 39.8 128.92 41.208C127.853 42.5733 127.32 44.152 127.32 45.944C127.32 48.376 128.28 50.296 130.2 51.704C132.163 53.112 135 54.3493 138.712 55.416L142.552 56.504C146.52 57.6133 149.613 59.0853 151.832 60.92C154.051 62.712 155.16 65.144 155.16 68.216C155.16 70.4773 154.52 72.4827 153.24 74.232C151.96 75.9387 150.168 77.2827 147.864 78.264C145.603 79.2453 142.957 79.736 139.928 79.736ZM139.928 83.96C136.6 83.96 133.592 83.448 130.904 82.424C128.259 81.3573 126.061 79.8853 124.312 78.008C122.605 76.088 121.496 73.8267 120.984 71.224L122.84 70.712C123.267 73.016 124.227 75.0213 125.72 76.728C127.256 78.392 129.24 79.6933 131.672 80.632C134.104 81.5707 136.856 82.04 139.928 82.04C143.427 82.04 146.477 81.464 149.08 80.312C151.725 79.1173 153.773 77.496 155.224 75.448C156.717 73.3573 157.464 70.9467 157.464 68.216C157.464 64.5893 156.205 61.688 153.688 59.512C151.171 57.336 147.629 55.5867 143.064 54.264L139.288 53.176C136.173 52.28 133.784 51.2987 132.12 50.232C130.456 49.1653 129.624 47.736 129.624 45.944C129.624 43.8533 130.605 42.1893 132.568 40.952C134.531 39.672 137.005 39.032 139.992 39.032C142.893 39.032 145.283 39.6293 147.16 40.824C149.037 42.0187 150.104 43.576 150.36 45.496L148.504 46.008C148.419 44.5147 147.587 43.2987 146.008 42.36C144.472 41.4213 142.467 40.952 139.992 40.952C137.645 40.952 135.64 41.4 133.976 42.296C132.355 43.192 131.544 44.3653 131.544 45.816C131.544 47.1387 132.291 48.2053 133.784 49.016C135.32 49.8267 137.325 50.5947 139.8 51.32L143.448 52.408C148.611 53.944 152.557 55.9493 155.288 58.424C158.019 60.856 159.384 64.1627 159.384 68.344C159.384 71.3733 158.552 74.0827 156.888 76.472C155.267 78.8187 152.984 80.6533 150.04 81.976C147.139 83.2987 143.768 83.96 139.928 83.96ZM160.64 33.464V31.544H200.384V33.464H160.64ZM160.64 37.688V35.768H200.384V37.688H160.64ZM160.64 41.912V39.992H200.384V41.912H160.64ZM183.808 83V43.96H185.728V83H183.808ZM175.36 83V43.96H177.28V83H175.36ZM179.584 83V43.96H181.504V83H179.584ZM223.464 75.512C221.032 75.512 219.005 75.0213 217.384 74.04C215.805 73.0587 214.611 71.7573 213.8 70.136C213.032 68.472 212.648 66.6373 212.648 64.632V31.544H214.568V64.632C214.568 67.1067 215.272 69.2187 216.68 70.968C218.088 72.7173 220.349 73.592 223.464 73.592C226.579 73.592 228.84 72.7173 230.248 70.968C231.656 69.2187 232.36 67.1067 232.36 64.632V31.544H234.28V64.632C234.28 66.6373 233.875 68.472 233.064 70.136C232.296 71.7573 231.101 73.0587 229.48 74.04C227.901 75.0213 225.896 75.512 223.464 75.512ZM223.464 83.96C219.496 83.96 216.061 83.1067 213.16 81.4C210.301 79.6507 208.083 77.304 206.504 74.36C204.968 71.416 204.2 68.1733 204.2 64.632V31.544H206.12V64.632C206.12 67.832 206.803 70.7547 208.168 73.4C209.576 76.0453 211.56 78.1573 214.12 79.736C216.723 81.272 219.837 82.04 223.464 82.04C227.091 82.04 230.184 81.272 232.744 79.736C235.347 78.1573 237.331 76.0453 238.696 73.4C240.104 70.7547 240.808 67.832 240.808 64.632V31.544H242.728V64.632C242.728 68.1733 241.939 71.416 240.36 74.36C238.824 77.304 236.627 79.6507 233.768 81.4C230.909 83.1067 227.475 83.96 223.464 83.96ZM223.464 79.736C220.264 79.736 217.533 79.0533 215.272 77.688C213.053 76.3227 211.347 74.5093 210.152 72.248C209 69.944 208.424 67.4053 208.424 64.632V31.544H210.344V64.632C210.344 67.064 210.835 69.2827 211.816 71.288C212.84 73.2507 214.333 74.8293 216.296 76.024C218.259 77.2187 220.648 77.816 223.464 77.816C226.323 77.816 228.712 77.2187 230.632 76.024C232.595 74.8293 234.067 73.2507 235.048 71.288C236.072 69.2827 236.584 67.064 236.584 64.632V31.544H238.504V64.632C238.504 67.4053 237.907 69.944 236.712 72.248C235.56 74.5093 233.853 76.3227 231.592 77.688C229.373 79.0533 226.664 79.736 223.464 79.736ZM261.81 83V81.08H268.85C272.476 81.08 275.783 80.504 278.77 79.352C281.799 78.1573 284.423 76.4933 286.642 74.36C288.86 72.2267 290.567 69.7093 291.762 66.808C292.999 63.9067 293.618 60.728 293.618 57.272C293.618 53.816 292.999 50.6373 291.762 47.736C290.567 44.8347 288.86 42.3173 286.642 40.184C284.423 38.0507 281.799 36.408 278.77 35.256C275.783 34.0613 272.476 33.464 268.85 33.464H261.81V31.544H268.914C272.796 31.544 276.359 32.184 279.602 33.464C282.844 34.744 285.66 36.536 288.05 38.84C290.439 41.144 292.295 43.8533 293.618 46.968C294.94 50.0827 295.602 53.5173 295.602 57.272C295.602 61.0267 294.94 64.4827 293.618 67.64C292.295 70.7547 290.439 73.464 288.05 75.768C285.66 78.072 282.844 79.864 279.602 81.144C276.359 82.3813 272.796 83 268.914 83H261.81ZM257.586 83V31.544H259.506V83H257.586ZM249.138 83V31.544H251.058V83H249.138ZM253.362 83V31.544H255.282V83H253.362ZM261.81 78.776V76.856H268.85C272.903 76.856 276.466 76.024 279.538 74.36C282.61 72.696 285.02 70.392 286.77 67.448C288.519 64.4613 289.394 61.0693 289.394 57.272C289.394 53.432 288.519 50.04 286.77 47.096C285.02 44.152 282.61 41.848 279.538 40.184C276.466 38.52 272.903 37.688 268.85 37.688H261.81V35.768H268.914C273.308 35.768 277.191 36.7067 280.562 38.584C283.932 40.4187 286.578 42.9573 288.498 46.2C290.418 49.4 291.378 53.0907 291.378 57.272C291.378 61.4533 290.418 65.1653 288.498 68.408C286.578 71.6507 283.932 74.1893 280.562 76.024C277.191 77.8587 273.308 78.776 268.914 78.776H261.81ZM261.81 74.552V72.632H268.85C272.092 72.632 274.93 71.992 277.362 70.712C279.794 69.432 281.692 67.64 283.058 65.336C284.423 62.9893 285.106 60.3013 285.106 57.272C285.106 54.2 284.423 51.512 283.058 49.208C281.692 46.904 279.794 45.112 277.362 43.832C274.93 42.552 272.092 41.912 268.85 41.912H261.81V39.992H268.914C272.498 39.992 275.655 40.7387 278.386 42.232C281.116 43.6827 283.25 45.7093 284.786 48.312C286.322 50.872 287.09 53.8587 287.09 57.272C287.09 60.6853 286.322 63.6933 284.786 66.296C283.25 68.8987 281.116 70.9253 278.386 72.376C275.655 73.8267 272.498 74.552 268.914 74.552H261.81ZM309.148 83V31.544H311.068V83H309.148ZM300.7 83V31.544H302.62V83H300.7ZM304.924 83V31.544H306.844V83H304.924ZM367.626 57.272C367.626 53.8587 367.029 50.6587 365.834 47.672C364.682 44.6427 363.018 41.9973 360.842 39.736C358.666 37.4747 356.063 35.704 353.034 34.424C350.005 33.144 346.613 32.504 342.858 32.504C339.103 32.504 335.711 33.144 332.682 34.424C329.653 35.704 327.05 37.4747 324.874 39.736C322.698 41.9973 321.013 44.6427 319.818 47.672C318.666 50.6587 318.09 53.8587 318.09 57.272C318.09 60.6853 318.666 63.9067 319.818 66.936C321.013 69.9227 322.698 72.5467 324.874 74.808C327.05 77.0693 329.653 78.84 332.682 80.12C335.711 81.4 339.103 82.04 342.858 82.04C346.613 82.04 350.005 81.4 353.034 80.12C356.063 78.84 358.666 77.0693 360.842 74.808C363.018 72.5467 364.682 69.9227 365.834 66.936C367.029 63.9067 367.626 60.6853 367.626 57.272ZM363.402 57.272C363.402 53.4747 362.57 50.04 360.906 46.968C359.242 43.8533 356.874 41.3787 353.802 39.544C350.73 37.7093 347.082 36.792 342.858 36.792C338.677 36.792 335.029 37.7093 331.914 39.544C328.842 41.3787 326.474 43.8533 324.81 46.968C323.146 50.04 322.314 53.4747 322.314 57.272C322.314 61.0267 323.146 64.4613 324.81 67.576C326.474 70.6907 328.842 73.1653 331.914 75C335.029 76.8347 338.677 77.752 342.858 77.752C347.082 77.752 350.73 76.8347 353.802 75C356.874 73.1653 359.242 70.6907 360.906 67.576C362.57 64.4613 363.402 61.0267 363.402 57.272ZM359.178 57.272C359.178 54.2853 358.538 51.576 357.258 49.144C355.978 46.6693 354.122 44.7067 351.69 43.256C349.258 41.7627 346.314 41.016 342.858 41.016C339.445 41.016 336.501 41.7627 334.026 43.256C331.594 44.7067 329.738 46.6693 328.458 49.144C327.178 51.576 326.538 54.2853 326.538 57.272C326.538 60.2587 327.178 62.9893 328.458 65.464C329.738 67.896 331.594 69.8587 334.026 71.352C336.501 72.8027 339.445 73.528 342.858 73.528C346.314 73.528 349.258 72.8027 351.69 71.352C354.122 69.8587 355.978 67.896 357.258 65.464C358.538 62.9893 359.178 60.2587 359.178 57.272ZM342.858 75.512C339.061 75.512 335.797 74.7013 333.066 73.08C330.335 71.416 328.245 69.1973 326.794 66.424C325.343 63.6507 324.618 60.6 324.618 57.272C324.618 53.9013 325.343 50.8507 326.794 48.12C328.245 45.3467 330.335 43.1493 333.066 41.528C335.797 39.864 339.061 39.032 342.858 39.032C346.655 39.032 349.919 39.864 352.65 41.528C355.381 43.1493 357.471 45.3467 358.922 48.12C360.373 50.8507 361.098 53.9013 361.098 57.272C361.098 60.6 360.373 63.6507 358.922 66.424C357.471 69.1973 355.381 71.416 352.65 73.08C349.919 74.7013 346.655 75.512 342.858 75.512ZM342.858 79.736C339.445 79.736 336.351 79.16 333.578 78.008C330.847 76.8133 328.479 75.192 326.474 73.144C324.511 71.096 322.997 68.728 321.93 66.04C320.906 63.3093 320.394 60.3867 320.394 57.272C320.394 54.1573 320.906 51.256 321.93 48.568C322.997 45.8373 324.511 43.448 326.474 41.4C328.479 39.3093 330.847 37.688 333.578 36.536C336.351 35.384 339.445 34.808 342.858 34.808C346.271 34.808 349.343 35.384 352.074 36.536C354.847 37.688 357.215 39.3093 359.178 41.4C361.183 43.448 362.698 45.8373 363.722 48.568C364.789 51.256 365.322 54.1573 365.322 57.272C365.322 60.3867 364.789 63.3093 363.722 66.04C362.698 68.728 361.183 71.096 359.178 73.144C357.215 75.192 354.847 76.8133 352.074 78.008C349.343 79.16 346.271 79.736 342.858 79.736ZM342.858 83.96C338.847 83.96 335.199 83.2773 331.914 81.912C328.671 80.504 325.877 78.584 323.53 76.152C321.183 73.72 319.37 70.904 318.09 67.704C316.81 64.4613 316.17 60.984 316.17 57.272C316.17 53.56 316.81 50.104 318.09 46.904C319.37 43.6613 321.183 40.824 323.53 38.392C325.877 35.96 328.671 34.0613 331.914 32.696C335.199 31.288 338.847 30.584 342.858 30.584C346.869 30.584 350.495 31.288 353.738 32.696C357.023 34.0613 359.839 35.96 362.186 38.392C364.533 40.824 366.346 43.6613 367.626 46.904C368.906 50.104 369.546 53.56 369.546 57.272C369.546 60.984 368.906 64.4613 367.626 67.704C366.346 70.904 364.533 73.72 362.186 76.152C359.839 78.584 357.023 80.504 353.738 81.912C350.495 83.2773 346.869 83.96 342.858 83.96Z" fill="white"/>
<path d="M79.5 146.653L343.95 146.653" stroke="white" stroke-width="4.7"/>
<line x1="342.949" y1="148.034" x2="342.949" y2="83.0342" stroke="white" stroke-width="2"/>
<path d="M205.781 110V95.501C205.781 94.691 205.664 94.043 205.43 93.557C205.214 93.053 204.701 92.801 203.891 92.801H203.432V92.18H210.56C211.028 92.18 211.559 92.216 212.153 92.288C212.747 92.342 213.35 92.477 213.962 92.693C214.592 92.891 215.168 93.188 215.69 93.584C216.212 93.98 216.635 94.502 216.959 95.15C217.283 95.798 217.445 96.608 217.445 97.58C217.445 98.516 217.283 99.299 216.959 99.929C216.653 100.541 216.248 101.036 215.744 101.414C215.24 101.792 214.709 102.08 214.151 102.278C213.593 102.458 213.062 102.584 212.558 102.656C212.072 102.71 211.676 102.737 211.37 102.737H208.508V110H205.781ZM208.508 101.738H210.425C210.821 101.738 211.244 101.675 211.694 101.549C212.162 101.405 212.603 101.171 213.017 100.847C213.449 100.505 213.791 100.064 214.043 99.524C214.313 98.966 214.448 98.273 214.448 97.445C214.448 96.635 214.313 95.96 214.043 95.42C213.791 94.862 213.449 94.421 213.017 94.097C212.603 93.755 212.171 93.512 211.721 93.368C211.271 93.224 210.848 93.152 210.452 93.152C210.146 93.152 209.822 93.179 209.48 93.233C209.138 93.269 208.814 93.332 208.508 93.422V101.738ZM223 110.27C222.514 110.27 222.037 110.198 221.569 110.054C221.101 109.928 220.66 109.721 220.246 109.433C219.85 109.127 219.526 108.74 219.274 108.272C219.022 107.786 218.896 107.201 218.896 106.517C218.896 105.563 219.184 104.807 219.76 104.249C220.354 103.691 221.173 103.295 222.217 103.061C223.279 102.809 224.503 102.683 225.889 102.683H226.591C226.591 101.459 226.474 100.523 226.24 99.875C226.006 99.227 225.682 98.777 225.268 98.525C224.854 98.273 224.377 98.147 223.837 98.147C223.117 98.147 222.505 98.309 222.001 98.633C221.497 98.957 221.146 99.578 220.948 100.496H219.652C219.652 100.028 219.679 99.578 219.733 99.146C219.787 98.714 219.985 98.327 220.327 97.985C220.669 97.643 221.218 97.4 221.974 97.256C222.748 97.112 223.549 97.04 224.377 97.04C225.061 97.04 225.7 97.13 226.294 97.31C226.888 97.472 227.41 97.76 227.86 98.174C228.31 98.57 228.661 99.137 228.913 99.875C229.183 100.613 229.318 101.558 229.318 102.71V110H227.725L226.78 108.785H226.645C226.375 109.145 225.943 109.487 225.349 109.811C224.755 110.117 223.972 110.27 223 110.27ZM224.107 109.028C224.755 109.028 225.268 108.857 225.646 108.515C226.042 108.155 226.357 107.768 226.591 107.354V103.79H225.889C224.557 103.79 223.531 104.033 222.811 104.519C222.109 105.005 221.758 105.671 221.758 106.517C221.758 107.363 221.992 107.993 222.46 108.407C222.928 108.821 223.477 109.028 224.107 109.028ZM236.752 110.27C235.528 110.27 234.538 110.063 233.782 109.649C233.026 109.235 232.414 108.722 231.946 108.11L232.567 107.624C232.891 107.966 233.323 108.308 233.863 108.65C234.403 108.992 235.159 109.163 236.131 109.163C237.157 109.163 237.949 108.965 238.507 108.569C239.083 108.155 239.371 107.507 239.371 106.625C239.371 105.779 239.074 105.14 238.48 104.708C237.904 104.276 236.986 104.06 235.726 104.06H234.484V102.953H235.726C236.806 102.953 237.616 102.755 238.156 102.359C238.696 101.963 238.966 101.36 238.966 100.55C238.966 99.74 238.705 99.137 238.183 98.741C237.679 98.345 237.067 98.147 236.347 98.147C235.411 98.147 234.628 98.408 233.998 98.93C233.368 99.452 233.026 100.154 232.972 101.036H232.351C232.351 100.28 232.378 99.668 232.432 99.2C232.486 98.732 232.684 98.327 233.026 97.985C233.368 97.643 233.863 97.4 234.511 97.256C235.177 97.112 235.942 97.04 236.806 97.04C237.688 97.04 238.507 97.157 239.263 97.391C240.019 97.607 240.631 97.967 241.099 98.471C241.585 98.975 241.828 99.668 241.828 100.55C241.828 101.36 241.567 102.017 241.045 102.521C240.523 103.007 239.83 103.34 238.966 103.52C239.992 103.7 240.793 104.06 241.369 104.6C241.945 105.14 242.233 105.815 242.233 106.625C242.233 107.543 241.981 108.272 241.477 108.812C240.991 109.334 240.334 109.712 239.506 109.946C238.696 110.162 237.778 110.27 236.752 110.27ZM245.637 115.13V100.631C245.637 99.821 245.52 99.173 245.286 98.687C245.07 98.183 244.557 97.931 243.747 97.931H243.288V97.31H245.772C246.438 97.31 246.942 97.409 247.284 97.607C247.644 97.787 247.905 98.084 248.067 98.498C248.427 98.156 248.904 97.832 249.498 97.526C250.11 97.202 250.884 97.04 251.82 97.04C252.954 97.04 253.89 97.337 254.628 97.931C255.384 98.525 255.951 99.326 256.329 100.334C256.707 101.324 256.896 102.431 256.896 103.655C256.896 104.861 256.698 105.968 256.302 106.976C255.924 107.984 255.339 108.785 254.547 109.379C253.773 109.973 252.783 110.27 251.577 110.27C250.875 110.27 250.254 110.18 249.714 110C249.192 109.838 248.742 109.658 248.364 109.46V115.13H245.637ZM250.848 109.163C251.622 109.163 252.243 108.92 252.711 108.434C253.179 107.93 253.512 107.264 253.71 106.436C253.926 105.608 254.034 104.681 254.034 103.655C254.034 102.611 253.935 101.684 253.737 100.874C253.539 100.046 253.215 99.389 252.765 98.903C252.333 98.399 251.775 98.147 251.091 98.147C250.389 98.147 249.822 98.3 249.39 98.606C248.958 98.894 248.616 99.227 248.364 99.605V108.353C248.724 108.533 249.12 108.713 249.552 108.893C249.984 109.073 250.416 109.163 250.848 109.163ZM265.398 110.27C264.282 110.27 263.283 110.045 262.401 109.595C261.537 109.127 260.853 108.407 260.349 107.435C259.845 106.463 259.593 105.221 259.593 103.709V102.71C259.593 101.036 259.674 99.659 259.836 98.579C259.998 97.481 260.25 96.608 260.592 95.96C260.934 95.294 261.366 94.799 261.888 94.475C262.41 94.133 263.022 93.881 263.724 93.719L267.693 92.774C268.341 92.63 268.845 92.477 269.205 92.315C269.583 92.135 269.808 91.874 269.88 91.532H270.474V93.395C270.474 93.737 270.393 94.025 270.231 94.259C270.087 94.493 269.826 94.655 269.448 94.745L264.804 95.798C264.048 95.996 263.4 96.302 262.86 96.716C262.32 97.112 261.888 97.715 261.564 98.525C261.258 99.335 261.051 100.433 260.943 101.819H261.078C261.438 100.541 262.005 99.605 262.779 99.011C263.553 98.417 264.606 98.12 265.938 98.12C266.892 98.12 267.765 98.336 268.557 98.768C269.367 99.2 270.015 99.866 270.501 100.766C270.987 101.648 271.23 102.791 271.23 104.195C271.23 105.581 270.978 106.724 270.474 107.624C269.97 108.524 269.277 109.19 268.395 109.622C267.531 110.054 266.532 110.27 265.398 110.27ZM265.398 109.163C265.902 109.163 266.379 109.019 266.829 108.731C267.279 108.443 267.648 107.939 267.936 107.219C268.224 106.499 268.368 105.491 268.368 104.195C268.368 102.935 268.224 101.945 267.936 101.225C267.648 100.505 267.279 99.992 266.829 99.686C266.379 99.38 265.902 99.227 265.398 99.227C264.912 99.227 264.444 99.38 263.994 99.686C263.544 99.992 263.175 100.505 262.887 101.225C262.599 101.945 262.455 102.935 262.455 104.195C262.455 105.491 262.599 106.499 262.887 107.219C263.175 107.939 263.544 108.443 263.994 108.731C264.444 109.019 264.912 109.163 265.398 109.163ZM279.687 110.27C278.409 110.27 277.311 109.973 276.393 109.379C275.493 108.785 274.8 107.984 274.314 106.976C273.846 105.968 273.612 104.861 273.612 103.655C273.612 102.431 273.846 101.324 274.314 100.334C274.8 99.326 275.493 98.525 276.393 97.931C277.311 97.337 278.409 97.04 279.687 97.04C280.965 97.04 282.054 97.337 282.954 97.931C283.872 98.525 284.565 99.326 285.033 100.334C285.519 101.324 285.762 102.431 285.762 103.655C285.762 104.861 285.519 105.968 285.033 106.976C284.565 107.984 283.872 108.785 282.954 109.379C282.054 109.973 280.965 110.27 279.687 110.27ZM279.687 109.163C280.353 109.163 280.929 108.92 281.415 108.434C281.901 107.93 282.27 107.264 282.522 106.436C282.792 105.608 282.927 104.681 282.927 103.655C282.927 102.611 282.792 101.684 282.522 100.874C282.27 100.046 281.901 99.389 281.415 98.903C280.929 98.399 280.353 98.147 279.687 98.147C279.021 98.147 278.445 98.399 277.959 98.903C277.473 99.389 277.095 100.046 276.825 100.874C276.573 101.684 276.447 102.611 276.447 103.655C276.447 104.681 276.573 105.608 276.825 106.436C277.095 107.264 277.473 107.93 277.959 108.434C278.445 108.92 279.021 109.163 279.687 109.163ZM292.246 110V98.417H291.031C290.221 98.417 289.555 98.651 289.033 99.119C288.529 99.569 288.277 100.253 288.277 101.171H287.656V99.47C287.656 98.93 287.791 98.435 288.061 97.985C288.331 97.535 288.871 97.31 289.681 97.31H299.32V98.417H294.946V110H292.246ZM311.623 110.27C310.921 110.27 310.237 110.108 309.571 109.784C308.923 109.442 308.293 108.884 307.681 108.11L304.711 104.33V110H301.984V100.631C301.984 99.821 301.867 99.173 301.633 98.687C301.417 98.183 300.904 97.931 300.094 97.931H299.635V97.31H302.281C302.911 97.31 303.397 97.4 303.739 97.58C304.099 97.76 304.351 98.093 304.495 98.579C304.639 99.047 304.711 99.731 304.711 100.631V103.682L308.059 99.146C308.491 98.57 308.968 98.12 309.49 97.796C310.03 97.472 310.75 97.31 311.65 97.31H312.298V97.985C311.848 97.985 311.407 98.084 310.975 98.282C310.543 98.462 310.156 98.786 309.814 99.254L306.925 103.169L310.165 107.3C310.633 107.912 311.101 108.407 311.569 108.785C312.037 109.145 312.55 109.37 313.108 109.46V110C312.964 110.072 312.748 110.135 312.46 110.189C312.19 110.243 311.911 110.27 311.623 110.27ZM318.344 110.27C317.858 110.27 317.381 110.198 316.913 110.054C316.445 109.928 316.004 109.721 315.59 109.433C315.194 109.127 314.87 108.74 314.618 108.272C314.366 107.786 314.24 107.201 314.24 106.517C314.24 105.563 314.528 104.807 315.104 104.249C315.698 103.691 316.517 103.295 317.561 103.061C318.623 102.809 319.847 102.683 321.233 102.683H321.935C321.935 101.459 321.818 100.523 321.584 99.875C321.35 99.227 321.026 98.777 320.612 98.525C320.198 98.273 319.721 98.147 319.181 98.147C318.461 98.147 317.849 98.309 317.345 98.633C316.841 98.957 316.49 99.578 316.292 100.496H314.996C314.996 100.028 315.023 99.578 315.077 99.146C315.131 98.714 315.329 98.327 315.671 97.985C316.013 97.643 316.562 97.4 317.318 97.256C318.092 97.112 318.893 97.04 319.721 97.04C320.405 97.04 321.044 97.13 321.638 97.31C322.232 97.472 322.754 97.76 323.204 98.174C323.654 98.57 324.005 99.137 324.257 99.875C324.527 100.613 324.662 101.558 324.662 102.71V110H323.069L322.124 108.785H321.989C321.719 109.145 321.287 109.487 320.693 109.811C320.099 110.117 319.316 110.27 318.344 110.27ZM319.451 109.028C320.099 109.028 320.612 108.857 320.99 108.515C321.386 108.155 321.701 107.768 321.935 107.354V103.79H321.233C319.901 103.79 318.875 104.033 318.155 104.519C317.453 105.005 317.102 105.671 317.102 106.517C317.102 107.363 317.336 107.993 317.804 108.407C318.272 108.821 318.821 109.028 319.451 109.028Z" fill="white"/>
<path d="M232.968 133.26C231.651 133.26 230.559 132.974 229.692 132.402C228.825 131.83 228.175 131.059 227.742 130.088C227.326 129.117 227.118 128.051 227.118 126.89C227.118 125.711 227.326 124.645 227.742 123.692C228.175 122.721 228.825 121.95 229.692 121.378C230.559 120.806 231.651 120.52 232.968 120.52C233.904 120.52 234.693 120.589 235.334 120.728C235.975 120.867 236.461 121.101 236.79 121.43C237.119 121.759 237.31 122.175 237.362 122.678C237.414 123.163 237.44 123.9 237.44 124.888H236.868C236.799 123.779 236.443 122.955 235.802 122.418C235.178 121.863 234.398 121.586 233.462 121.586C232.647 121.586 231.971 121.811 231.434 122.262C230.914 122.713 230.515 123.337 230.238 124.134C229.978 124.914 229.848 125.833 229.848 126.89C229.848 127.913 229.978 128.823 230.238 129.62C230.498 130.417 230.897 131.05 231.434 131.518C231.971 131.969 232.656 132.194 233.488 132.194C234.407 132.194 235.143 132.003 235.698 131.622C236.27 131.241 236.781 130.729 237.232 130.088L237.83 130.53C237.483 131.119 237.076 131.622 236.608 132.038C236.157 132.437 235.629 132.74 235.022 132.948C234.433 133.156 233.748 133.26 232.968 133.26ZM243.533 133.26C243.065 133.26 242.605 133.191 242.155 133.052C241.704 132.931 241.279 132.731 240.881 132.454C240.499 132.159 240.187 131.787 239.945 131.336C239.702 130.868 239.581 130.305 239.581 129.646C239.581 128.727 239.858 127.999 240.413 127.462C240.985 126.925 241.773 126.543 242.779 126.318C243.801 126.075 244.98 125.954 246.315 125.954H246.991C246.991 124.775 246.878 123.874 246.653 123.25C246.427 122.626 246.115 122.193 245.717 121.95C245.318 121.707 244.859 121.586 244.339 121.586C243.645 121.586 243.056 121.742 242.571 122.054C242.085 122.366 241.747 122.964 241.557 123.848H240.309C240.309 123.397 240.335 122.964 240.387 122.548C240.439 122.132 240.629 121.759 240.959 121.43C241.288 121.101 241.817 120.867 242.545 120.728C243.29 120.589 244.061 120.52 244.859 120.52C245.517 120.52 246.133 120.607 246.705 120.78C247.277 120.936 247.779 121.213 248.213 121.612C248.646 121.993 248.984 122.539 249.227 123.25C249.487 123.961 249.617 124.871 249.617 125.98V133H248.083L247.173 131.83H247.043C246.783 132.177 246.367 132.506 245.795 132.818C245.223 133.113 244.469 133.26 243.533 133.26ZM244.599 132.064C245.223 132.064 245.717 131.899 246.081 131.57C246.462 131.223 246.765 130.851 246.991 130.452V127.02H246.315C245.032 127.02 244.044 127.254 243.351 127.722C242.675 128.19 242.337 128.831 242.337 129.646C242.337 130.461 242.562 131.067 243.013 131.466C243.463 131.865 243.992 132.064 244.599 132.064ZM253.448 133V123.978C253.448 123.198 253.335 122.574 253.11 122.106C252.902 121.621 252.408 121.378 251.628 121.378H251.264V120.78H253.734C254.34 120.78 254.808 120.867 255.138 121.04C255.484 121.213 255.727 121.534 255.866 122.002C256.004 122.453 256.074 123.111 256.074 123.978V130.426L261.326 120.78H263.874V133H261.248V123.354L255.996 133H253.448ZM258.596 119.532C257.746 119.532 257.036 119.324 256.464 118.908C255.909 118.492 255.467 117.972 255.138 117.348L255.71 116.932C256.022 117.261 256.394 117.53 256.828 117.738C257.278 117.929 257.868 118.024 258.596 118.024C259.324 118.024 259.904 117.929 260.338 117.738C260.788 117.53 261.17 117.261 261.482 116.932L262.054 117.348C261.724 117.972 261.274 118.492 260.702 118.908C260.147 119.324 259.445 119.532 258.596 119.532ZM270.757 133V121.846H269.587C268.807 121.846 268.165 122.071 267.663 122.522C267.177 122.955 266.935 123.614 266.935 124.498H266.337V122.86C266.337 122.34 266.467 121.863 266.727 121.43C266.987 120.997 267.507 120.78 268.287 120.78H277.569V121.846H273.357V133H270.757ZM284.511 133.26C283.28 133.26 282.223 132.974 281.339 132.402C280.472 131.83 279.805 131.059 279.337 130.088C278.886 129.117 278.661 128.051 278.661 126.89C278.661 125.711 278.886 124.645 279.337 123.692C279.805 122.721 280.472 121.95 281.339 121.378C282.223 120.806 283.28 120.52 284.511 120.52C285.742 120.52 286.79 120.806 287.657 121.378C288.541 121.95 289.208 122.721 289.659 123.692C290.127 124.645 290.361 125.711 290.361 126.89C290.361 128.051 290.127 129.117 289.659 130.088C289.208 131.059 288.541 131.83 287.657 132.402C286.79 132.974 285.742 133.26 284.511 133.26ZM284.511 132.194C285.152 132.194 285.707 131.96 286.175 131.492C286.643 131.007 286.998 130.365 287.241 129.568C287.501 128.771 287.631 127.878 287.631 126.89C287.631 125.885 287.501 124.992 287.241 124.212C286.998 123.415 286.643 122.782 286.175 122.314C285.707 121.829 285.152 121.586 284.511 121.586C283.87 121.586 283.315 121.829 282.847 122.314C282.379 122.782 282.015 123.415 281.755 124.212C281.512 124.992 281.391 125.885 281.391 126.89C281.391 127.878 281.512 128.771 281.755 129.568C282.015 130.365 282.379 131.007 282.847 131.492C283.315 131.96 283.87 132.194 284.511 132.194ZM293.562 133V123.978C293.562 123.198 293.45 122.574 293.224 122.106C293.016 121.621 292.522 121.378 291.742 121.378H291.508V120.78H298.034C298.953 120.78 299.794 120.884 300.556 121.092C301.319 121.283 301.926 121.612 302.376 122.08C302.827 122.531 303.052 123.137 303.052 123.9C303.052 124.645 302.827 125.243 302.376 125.694C301.926 126.145 301.224 126.457 300.27 126.63C301.293 126.803 302.099 127.15 302.688 127.67C303.278 128.173 303.572 128.823 303.572 129.62C303.572 130.469 303.338 131.145 302.87 131.648C302.402 132.133 301.752 132.48 300.92 132.688C300.088 132.896 299.126 133 298.034 133H293.562ZM297.722 132.064C298.693 132.064 299.456 131.865 300.01 131.466C300.565 131.067 300.842 130.452 300.842 129.62C300.842 128.805 300.556 128.19 299.984 127.774C299.412 127.358 298.572 127.15 297.462 127.15H296.162V131.804C296.353 131.873 296.604 131.934 296.916 131.986C297.228 132.038 297.497 132.064 297.722 132.064ZM296.162 126.084H297.462C298.312 126.084 298.996 125.902 299.516 125.538C300.054 125.157 300.322 124.611 300.322 123.9C300.322 123.172 300.062 122.626 299.542 122.262C299.04 121.898 298.433 121.716 297.722 121.716C297.497 121.716 297.228 121.742 296.916 121.794C296.604 121.846 296.353 121.907 296.162 121.976V126.084Z" fill="white"/>
</svg>
