<svg width="75" height="84" viewBox="0 0 75 84" fill="none" xmlns="http://www.w3.org/2000/svg">
<path fill-rule="evenodd" clip-rule="evenodd" d="M60.0137 83.5887H15.2641C14.7131 83.5887 14.2661 83.1417 14.2661 82.5907C14.2661 82.0393 14.7131 81.5928 15.2641 81.5928H60.0137C60.5651 81.5928 61.0116 82.0393 61.0116 82.5907C61.0116 83.1417 60.5651 83.5887 60.0137 83.5887Z" fill="#9FA63A"/>
<path fill-rule="evenodd" clip-rule="evenodd" d="M37.5 6.17049C20.2245 6.17049 6.17049 20.2249 6.17049 37.5C6.17049 54.7754 20.2245 68.8298 37.5 68.8298C54.7754 68.8298 68.8298 54.7754 68.8298 37.5C68.8298 20.2249 54.7754 6.17049 37.5 6.17049ZM37.5 74.9999C16.8224 74.9999 0 58.1775 0 37.5C0 16.8228 16.8224 0 37.5 0C58.1775 0 74.9999 16.8228 74.9999 37.5C74.9999 58.1775 58.1775 74.9999 37.5 74.9999Z" fill="#F5C047"/>
<path fill-rule="evenodd" clip-rule="evenodd" d="M24.5353 38.1733C24.3171 38.4049 24.2078 38.5212 24.2078 38.5212L23.5524 39.2168C23.5524 39.2168 23.4431 39.3326 23.2245 39.5646C23.4187 39.7466 23.5158 39.8377 23.5158 39.8377C23.5158 39.8377 24.3337 40.6036 25.56 41.7519C26.7794 42.8989 28.3877 44.4227 29.8204 46.0667C31.2653 47.7021 32.4741 49.4993 33.249 50.9243C33.6358 51.6362 33.9397 52.2408 34.1295 52.6756C34.3253 53.1075 34.4375 53.3541 34.4375 53.3541L34.4399 53.3602C34.4399 53.3602 34.4643 53.4382 34.5013 53.5549C34.5192 53.6142 34.5468 53.678 34.5671 53.7548C34.5817 53.8377 34.5968 53.9262 34.6122 54.0148C34.6545 54.1851 34.6573 54.3817 34.6671 54.5248C34.6768 54.6682 34.6833 54.7641 34.6833 54.7641L34.6675 55.283C34.6675 55.283 34.6703 55.3866 34.6447 55.591C34.6211 55.7941 34.6033 56.0895 34.5305 56.4747C34.4086 57.2407 34.1522 58.3491 33.7223 59.6644C32.8735 62.299 31.3453 65.7349 29.5827 69.051C27.8253 72.3719 25.8546 75.5847 24.276 77.9126C22.7011 80.2469 21.5272 81.6812 21.5272 81.6812C21.5272 81.6812 21.4464 81.7824 21.2847 81.9848C21.5313 82.1867 21.6544 82.2879 21.6544 82.2879L22.0242 82.5906L22.3939 82.8933C22.3939 82.8933 22.5171 82.9941 22.7637 83.196C22.9335 82.9835 23.0185 82.8775 23.0185 82.8775C23.0185 82.8775 24.25 81.37 25.8595 78.9832C27.4759 76.5997 29.4787 73.3341 31.2722 69.9457C33.0706 66.5602 34.6419 63.041 35.5407 60.2544C35.9958 58.8635 36.2786 57.6551 36.4175 56.7819C36.5593 55.9099 36.5768 55.3837 36.5768 55.3837L36.5947 54.7365C36.5947 54.7365 36.5874 54.6073 36.5756 54.4134C36.5626 54.2188 36.5553 53.964 36.4963 53.6926C36.472 53.5589 36.4472 53.4257 36.4244 53.3005C36.3915 53.1737 36.3472 53.0526 36.3147 52.9502C36.2448 52.7463 36.1985 52.6106 36.1985 52.6106L36.1949 52.6016C36.1949 52.6016 36.0754 52.3383 35.8665 51.8771C35.6638 51.4139 35.3387 50.7654 34.9235 50.0019C34.0941 48.4737 32.787 46.536 31.262 44.8107C29.7485 43.0753 28.0967 41.5138 26.8696 40.359C25.6429 39.2103 24.825 38.4448 24.825 38.4448C24.825 38.4448 24.7287 38.3542 24.5353 38.1733Z" fill="url(#paint0_linear_227_245)"/>
<path fill-rule="evenodd" clip-rule="evenodd" d="M33.5162 21.1606C33.2273 21.2939 33.0822 21.361 33.0822 21.361L32.6483 21.5609L32.2143 21.7616C32.2143 21.7616 32.0697 21.8282 31.7804 21.9615C31.8881 22.2008 31.9417 22.3207 31.9417 22.3207C31.9417 22.3207 32.615 23.7782 33.5345 26.026C34.4601 28.2689 35.6364 31.2912 36.7506 34.337C37.8676 37.3816 38.9208 40.4498 39.6708 42.7602C40.4242 45.0702 40.8797 46.6203 40.8797 46.6203C40.8797 46.6203 41.3701 48.2505 41.8081 49.8876C42.2437 51.5267 42.5822 53.163 42.5822 53.163L42.583 53.1699C42.583 53.1699 42.6135 53.4064 42.6435 53.6429C42.6525 53.8976 42.6614 54.1528 42.6614 54.1528C42.6614 54.1528 42.6565 54.2613 42.6472 54.4649C42.646 54.6664 42.6155 54.9711 42.572 55.3612C42.4741 56.143 42.2547 57.2795 41.8784 58.6362C41.1348 61.3529 39.7692 64.9225 38.1938 68.397C36.6222 71.8752 34.8494 75.2668 33.4069 77.7283C32.6877 78.9607 32.0563 79.9627 31.6 80.6486C31.1424 81.3341 30.8678 81.7091 30.8678 81.7091C30.8678 81.7091 30.793 81.8135 30.6431 82.022C30.8995 82.2117 31.027 82.306 31.027 82.306L31.4114 82.5904L31.7962 82.8745C31.7962 82.8745 31.9242 82.9691 32.1802 83.1585C32.3403 82.9362 32.4203 82.8249 32.4203 82.8249C32.4203 82.8249 32.7145 82.423 33.1924 81.7063C33.6694 80.9895 34.3211 79.9542 35.0578 78.6917C36.5364 76.1688 38.3352 72.726 39.9358 69.1849C41.5395 65.645 42.9377 62.0034 43.7211 59.1453C44.1173 57.7183 44.3582 56.4863 44.4692 55.5969C44.52 55.1495 44.5537 54.7956 44.5573 54.5449C44.5675 54.2975 44.5728 54.1658 44.5728 54.1658C44.5728 54.1658 44.5614 53.8314 44.55 53.4974C44.5135 53.1516 44.4594 52.8018 44.4594 52.8018L44.4578 52.7928C44.4578 52.7928 44.1018 51.0724 43.6561 49.3984C43.2083 47.7251 42.7114 46.0734 42.7114 46.0734C42.7114 46.0734 42.2494 44.5005 41.4888 42.169C40.7314 39.8359 39.6708 36.7461 38.5457 33.6796C37.4239 30.6122 36.2386 27.5676 35.3024 25.2975C34.3732 23.0261 33.6812 21.528 33.6812 21.528C33.6812 21.528 33.6263 21.4057 33.5162 21.1606Z" fill="url(#paint1_linear_227_245)"/>
<path fill-rule="evenodd" clip-rule="evenodd" d="M52.5764 34.0864C52.2582 34.108 52.0994 34.1189 52.0994 34.1189L51.6227 34.1514L51.1457 34.1839C51.1457 34.1839 50.9868 34.1949 50.6691 34.2165C50.6878 34.4822 50.6971 34.6151 50.6971 34.6151C50.6971 34.6151 50.9409 37.8405 51.1843 41.0659C51.2961 42.6681 51.3619 44.2621 51.379 45.4595C51.3887 46.058 51.3907 46.5574 51.3871 46.9069C51.3863 47.2563 51.3855 47.4558 51.3855 47.4558C51.3855 47.4558 51.3688 48.8276 51.3111 50.2026C51.2554 51.5772 51.1664 52.9538 51.1664 52.9538L51.166 52.9615C51.166 52.9615 51.1189 53.3382 51.0718 53.7153C51.0498 53.9034 51.0299 54.0911 50.9929 54.239C50.9629 54.3849 50.943 54.482 50.943 54.482C50.943 54.482 50.9202 54.5925 50.878 54.7998C50.8284 55.0074 50.7886 55.3093 50.6789 55.699C50.5773 56.0878 50.4537 56.5596 50.3119 57.1012C50.149 57.6412 49.9649 58.2511 49.7642 58.9159C48.9207 61.5712 47.6042 65.0746 46.1365 68.5129C44.6741 71.9537 43.0582 75.3303 41.7214 77.7743C41.3805 78.3798 41.0786 78.9437 40.7925 79.4277C40.5024 79.9084 40.2492 80.3269 40.0412 80.6718C39.6003 81.335 39.3484 81.7137 39.3484 81.7137C39.3484 81.7137 39.2769 81.8201 39.1343 82.033C39.3931 82.2187 39.5227 82.3114 39.5227 82.3114L39.9108 82.5901L40.2992 82.8685C40.2992 82.8685 40.4288 82.9615 40.6877 83.1472C40.8409 82.9193 40.9176 82.8051 40.9176 82.8051C40.9176 82.8051 41.1866 82.4004 41.6584 81.6917C41.8758 81.3317 42.1399 80.8941 42.4426 80.3927C42.74 79.8893 43.0497 79.3119 43.4011 78.6869C44.7745 76.1754 46.412 72.7521 47.8951 69.2626C49.3835 65.7755 50.7191 62.2238 51.5862 59.4957C51.7934 58.809 51.9832 58.1796 52.1518 57.6213C52.3005 57.0533 52.4301 56.558 52.537 56.1496C52.6499 55.7457 52.6987 55.404 52.7507 55.1825C52.7966 54.9574 52.8214 54.8372 52.8214 54.8372C52.8214 54.8372 52.843 54.7319 52.8755 54.5735C52.9132 54.4195 52.9392 54.1956 52.9661 53.9729C53.0201 53.5284 53.0737 53.0834 53.0737 53.0834L53.0746 53.0753C53.0746 53.0753 53.1644 51.6808 53.2212 50.281C53.2802 48.8812 53.2972 47.4765 53.2972 47.4765C53.2972 47.4765 53.298 47.2717 53.2988 46.9134C53.3025 46.5554 53.3005 46.0434 53.2907 45.4291C53.2728 44.1999 53.205 42.5608 53.0916 40.9355C52.8482 37.7088 52.6044 34.4822 52.6044 34.4822C52.6044 34.4822 52.5951 34.3501 52.5764 34.0864Z" fill="url(#paint2_linear_227_245)"/>
<path fill-rule="evenodd" clip-rule="evenodd" d="M58.5248 29.65C57.9299 29.4753 56.1823 29.3286 54.5192 30.1604C52.7228 31.0584 51.4929 32.6918 51.3702 34.0607C51.3608 34.1058 51.356 34.1525 51.356 34.2005C51.356 34.5841 51.8988 35.7027 51.8988 35.3191C51.8988 34.823 52.5713 34.4874 53.4559 34.3074C54.7642 34.0412 56.1088 34.363 58.112 34.363C59.4224 34.363 60.4849 33.3005 60.4849 31.9901C60.4849 30.8085 59.7698 30.0157 58.5248 29.65Z" fill="#DC3F39"/>
<path fill-rule="evenodd" clip-rule="evenodd" d="M43.0708 31.9901C43.0708 33.3005 44.1329 34.363 45.4437 34.363C47.4465 34.363 48.7911 34.0412 50.0994 34.3074C50.9844 34.4874 51.6565 34.823 51.6565 35.3191C51.6565 35.7027 52.1998 34.5841 52.1998 34.2005C52.1998 34.1525 52.1949 34.1058 52.1855 34.0607C52.0624 32.6918 50.8329 31.0584 49.0365 30.1604C47.373 29.3286 45.6258 29.4753 45.0305 29.65C43.7859 30.0157 43.0708 30.8085 43.0708 31.9901Z" fill="#DC3F39"/>
<path fill-rule="evenodd" clip-rule="evenodd" d="M38.0012 14.9699C37.3823 15.0097 35.6908 15.4713 34.4133 16.8227C33.0338 18.2826 32.4385 20.2383 32.7924 21.5666C32.7994 21.6121 32.8107 21.6576 32.8274 21.7027C32.9586 22.0631 33.8526 22.9278 33.7209 22.5674C33.5507 22.1013 34.0671 21.5556 34.8367 21.083C35.9744 20.3846 37.3478 20.2257 39.2295 19.5386C40.4603 19.0892 41.0941 17.7272 40.6447 16.496C40.2396 15.3863 39.2957 14.8866 38.0012 14.9699Z" fill="#DF4B41"/>
<path fill-rule="evenodd" clip-rule="evenodd" d="M23.5227 22.7458C23.9721 23.977 25.3345 24.6109 26.5657 24.1615C28.4474 23.4744 29.6001 22.7113 30.9203 22.513C31.813 22.3785 32.5598 22.4634 32.7297 22.9291C32.8613 23.2895 32.9881 22.0526 32.8564 21.6922C32.8398 21.6471 32.8195 21.6048 32.7951 21.5658C32.2104 20.3221 30.4949 19.2095 28.4994 18.9816C26.6518 18.7707 25.0606 19.5074 24.5617 19.8759C23.5178 20.6459 23.1176 21.6361 23.5227 22.7458Z" fill="#DF4B41"/>
<path fill-rule="evenodd" clip-rule="evenodd" d="M26.007 30.8015C25.447 31.068 24.0473 32.1241 23.3622 33.853C22.6227 35.7201 22.795 37.7574 23.6161 38.8594C23.6393 38.8992 23.6669 38.9374 23.699 38.9731C23.955 39.2592 25.1053 39.7305 24.8493 39.4445C24.5186 39.0751 24.7961 38.3766 25.3353 37.6526C26.1329 36.5819 27.3495 35.9249 28.8419 34.5893C29.8187 33.7153 29.902 32.2151 29.028 31.2387C28.2406 30.3582 27.1784 30.244 26.007 30.8015Z" fill="#DC3F39"/>
<path fill-rule="evenodd" clip-rule="evenodd" d="M15.4446 42.9861C16.3182 43.9625 17.8184 44.0458 18.7952 43.1722C20.288 41.8362 21.0755 40.7001 22.2278 40.026C23.0072 39.5701 23.732 39.3722 24.0628 39.7415C24.3184 40.0276 23.9775 38.8318 23.7215 38.5461C23.6898 38.5104 23.6548 38.4787 23.6179 38.4511C22.6134 37.5128 20.6078 37.1159 18.67 37.6445C16.8761 38.1337 15.6717 39.408 15.3446 39.9354C14.6612 41.0377 14.6567 42.1056 15.4446 42.9861Z" fill="#DC3F39"/>
<defs>
<linearGradient id="paint0_linear_227_245" x1="28.9397" y1="38.1733" x2="28.9397" y2="83.196" gradientUnits="userSpaceOnUse">
<stop stop-color="#DC3F39"/>
<stop offset="1" stop-color="#9FA63A"/>
</linearGradient>
<linearGradient id="paint1_linear_227_245" x1="37.6079" y1="21.1606" x2="37.6079" y2="83.1585" gradientUnits="userSpaceOnUse">
<stop stop-color="#DF4B41"/>
<stop offset="1" stop-color="#9FA63A"/>
</linearGradient>
<linearGradient id="paint2_linear_227_245" x1="46.2174" y1="34.0864" x2="46.2174" y2="83.1472" gradientUnits="userSpaceOnUse">
<stop stop-color="#DC3F39"/>
<stop offset="1" stop-color="#9FA63A"/>
</linearGradient>
</defs>
</svg>
