<svg width="136" height="491" viewBox="0 0 136 491" fill="none" xmlns="http://www.w3.org/2000/svg">
<path d="M77.05 74.675L28.575 0.299996H34.875L83.525 74.675H77.05ZM49.4 74.675L0.925 0.299996H7.225L55.7 74.675H49.4ZM63.4 74.675L14.75 0.299996H21.05L69.525 74.675H63.4ZM73.2 47.2L69.875 42.3L97.875 0.299996H104.175L73.2 47.2ZM80.2 58.05L77.05 52.975L111.7 0.299996H118L80.2 58.05ZM87.2 68.725L83.875 63.825L125.525 0.299996H131.825L87.2 68.725ZM75.3 141V81.15H80.55V141H75.3ZM52.2 141V81.15H57.45V141H52.2ZM63.75 141V81.15H69V141H63.75ZM27 316L77.925 175.3H83.525L32.6 316H27ZM2.5 316L53.425 175.3H58.85L8.1 316H2.5ZM14.75 316L65.5 175.3H71.275L20.35 316H14.75ZM129.55 316L83.875 189.825L86.675 181.95L135.15 316H129.55ZM117.3 316L77.925 206.975L80.55 198.925L122.9 316H117.3ZM105.05 316L71.8 223.95L74.6 216.075L110.65 316H105.05ZM55.525 269.45L57.45 264.2H80.55L82.475 269.45H55.525ZM51.325 281.175L53.25 275.925H84.75L86.675 281.175H51.325ZM47.125 292.725L49.05 287.475H88.95L90.875 292.725H47.125ZM124.3 491V350.3H129.55V491H124.3ZM101.2 491V350.3H106.45V491H101.2ZM112.75 491V350.3H118V491H112.75ZM30.85 491V350.3H36.1V491H30.85ZM7.75 491V350.3H13V491H7.75ZM19.3 491V350.3H24.55V491H19.3ZM94.9 442.525L42.4 367.1V357.825L94.9 433.25V442.525ZM94.9 462.825L42.4 387.4V378.125L94.9 453.55V462.825ZM94.9 483.125L42.4 407.7V398.425L94.9 473.85V483.125Z" fill="#FAE100"/>
</svg>
