<svg width="99" height="109" viewBox="0 0 99 109" fill="none" xmlns="http://www.w3.org/2000/svg">
<path fill-rule="evenodd" clip-rule="evenodd" d="M78.9778 109H20.6241C19.9056 109 19.3228 108.417 19.3228 107.699C19.3228 106.98 19.9056 106.397 20.6241 106.397H78.9778C79.6968 106.397 80.2792 106.98 80.2792 107.699C80.2792 108.417 79.6968 109 78.9778 109Z" fill="white"/>
<path fill-rule="evenodd" clip-rule="evenodd" d="M49.6194 8.04635C27.0921 8.04635 8.76559 26.3734 8.76559 48.9001C8.76559 71.4274 27.0921 89.7544 49.6194 89.7544C72.1466 89.7544 90.4737 71.4274 90.4737 48.9001C90.4737 26.3734 72.1466 8.04635 49.6194 8.04635ZM49.6194 97.8003C22.6557 97.8003 0.719238 75.8638 0.719238 48.9001C0.719238 21.937 22.6557 0 49.6194 0C76.5831 0 98.5195 21.937 98.5195 48.9001C98.5195 75.8638 76.5831 97.8003 49.6194 97.8003Z" fill="white"/>
<path fill-rule="evenodd" clip-rule="evenodd" d="M32.7134 49.7781C32.4289 50.0801 32.2864 50.2316 32.2864 50.2316L31.4317 51.1387C31.4317 51.1387 31.2892 51.2897 31.0041 51.5923C31.2574 51.8297 31.384 51.9484 31.384 51.9484C31.384 51.9484 32.4506 52.9471 34.0497 54.4445C35.6398 55.9403 37.737 57.9272 39.6052 60.071C41.4894 62.2037 43.0657 64.5472 44.0761 66.4054C44.5805 67.3337 44.9769 68.1221 45.2243 68.6891C45.4797 69.2523 45.626 69.5739 45.626 69.5739L45.6291 69.5819C45.6291 69.5819 45.6609 69.6836 45.7091 69.8357C45.7325 69.913 45.7685 69.9962 45.795 70.0963C45.8141 70.2044 45.8337 70.3199 45.8538 70.4355C45.9089 70.6575 45.9126 70.9139 45.9253 71.1004C45.938 71.2875 45.9465 71.4125 45.9465 71.4125L45.9258 72.0891C45.9258 72.0891 45.9296 72.2242 45.8962 72.4908C45.8654 72.7557 45.8421 73.1409 45.7473 73.6432C45.5883 74.642 45.254 76.0874 44.6934 77.8025C43.5865 81.2381 41.5938 85.7185 39.2953 90.0427C37.0037 94.3731 34.4339 98.5627 32.3754 101.598C30.3217 104.642 28.7909 106.513 28.7909 106.513C28.7909 106.513 28.6855 106.645 28.4746 106.908C28.7962 107.172 28.9568 107.304 28.9568 107.304L29.4389 107.698L29.9211 108.093C29.9211 108.093 30.0817 108.225 30.4033 108.488C30.6248 108.211 30.7355 108.073 30.7355 108.073C30.7355 108.073 32.3415 106.107 34.4402 102.994C36.548 99.8863 39.1596 95.6278 41.4984 91.2094C43.8435 86.7947 45.8925 82.2056 47.0645 78.5719C47.6579 76.7582 48.0267 75.1824 48.2079 74.0437C48.3928 72.9067 48.4156 72.2205 48.4156 72.2205L48.4389 71.3765C48.4389 71.3765 48.4294 71.208 48.414 70.9552C48.3971 70.7014 48.3875 70.3692 48.3107 70.0153C48.2789 69.841 48.2466 69.6672 48.2169 69.504C48.174 69.3387 48.1163 69.1808 48.0739 69.0472C47.9827 68.7812 47.9223 68.6043 47.9223 68.6043L47.9176 68.5926C47.9176 68.5926 47.7618 68.2493 47.4894 67.6479C47.225 67.0439 46.8012 66.1982 46.2597 65.2026C45.1782 63.2098 43.4737 60.683 41.4851 58.4332C39.5114 56.1702 37.3576 54.134 35.7574 52.6282C34.1578 51.1303 33.0912 50.132 33.0912 50.132C33.0912 50.132 32.9656 50.0139 32.7134 49.7781Z" fill="white"/>
<path fill-rule="evenodd" clip-rule="evenodd" d="M44.4248 27.5935C44.0481 27.7673 43.8589 27.8547 43.8589 27.8547L43.293 28.1154L42.7272 28.3772C42.7272 28.3772 42.5385 28.4641 42.1613 28.6378C42.3017 28.9499 42.3716 29.1062 42.3716 29.1062C42.3716 29.1062 43.2496 31.0068 44.4487 33.938C45.6557 36.8628 47.1896 40.8038 48.6424 44.7756C50.099 48.7458 51.4724 52.7467 52.4505 55.7594C53.4328 58.7716 54.0268 60.793 54.0268 60.793C54.0268 60.793 54.6663 62.9188 55.2375 65.0536C55.8055 67.191 56.2469 69.3247 56.2469 69.3247L56.2479 69.3337C56.2479 69.3337 56.2877 69.6421 56.3269 69.9505C56.3386 70.2827 56.3502 70.6155 56.3502 70.6155C56.3502 70.6155 56.3439 70.7569 56.3317 71.0224C56.3301 71.2852 56.2903 71.6826 56.2336 72.1912C56.106 73.2107 55.8198 74.6927 55.3292 76.4619C54.3596 80.0044 52.5787 84.6592 50.5245 89.19C48.475 93.7255 46.1633 98.1482 44.2823 101.358C43.3444 102.965 42.5211 104.272 41.926 105.166C41.3294 106.06 40.9712 106.549 40.9712 106.549C40.9712 106.549 40.8737 106.685 40.6782 106.957C41.0126 107.204 41.1789 107.327 41.1789 107.327L41.6802 107.698L42.1819 108.069C42.1819 108.069 42.3488 108.192 42.6827 108.439C42.8914 108.149 42.9958 108.004 42.9958 108.004C42.9958 108.004 43.3794 107.48 44.0025 106.545C44.6246 105.611 45.4745 104.261 46.4351 102.614C48.3632 99.3245 50.7089 94.835 52.796 90.2174C54.8873 85.6013 56.7105 80.8527 57.7321 77.1258C58.2487 75.2649 58.5629 73.6584 58.7075 72.4986C58.7738 71.9152 58.8177 71.4537 58.8225 71.1268C58.8358 70.8041 58.8426 70.6324 58.8426 70.6324C58.8426 70.6324 58.8278 70.1963 58.813 69.7608C58.7653 69.3099 58.6948 68.8537 58.6948 68.8537L58.6927 68.842C58.6927 68.842 58.2285 66.5986 57.6473 64.4156C57.0634 62.2337 56.4154 60.0799 56.4154 60.0799C56.4154 60.0799 55.8129 58.0288 54.8211 54.9885C53.8334 51.9461 52.4505 47.9171 50.9833 43.9183C49.5204 39.9184 47.9748 35.9482 46.754 32.9879C45.5423 30.0261 44.6399 28.0725 44.6399 28.0725C44.6399 28.0725 44.5684 27.913 44.4248 27.5935Z" fill="white"/>
<path fill-rule="evenodd" clip-rule="evenodd" d="M69.2791 44.4492C68.8642 44.4773 68.657 44.4916 68.657 44.4916L68.0355 44.534L67.4135 44.5764C67.4135 44.5764 67.2063 44.5907 66.792 44.6188C66.8163 44.9653 66.8285 45.1386 66.8285 45.1386C66.8285 45.1386 67.1464 49.3445 67.4638 53.5505C67.6095 55.6397 67.6954 57.7183 67.7176 59.2798C67.7303 60.0603 67.733 60.7115 67.7282 61.1671C67.7271 61.6228 67.7261 61.883 67.7261 61.883C67.7261 61.883 67.7044 63.6718 67.6291 65.4648C67.5565 67.2573 67.4405 69.0524 67.4405 69.0524L67.44 69.0625C67.44 69.0625 67.3785 69.5537 67.317 70.0454C67.2884 70.2907 67.2625 70.5355 67.2142 70.7283C67.175 70.9186 67.1491 71.0452 67.1491 71.0452C67.1491 71.0452 67.1194 71.1893 67.0643 71.4595C66.9997 71.7303 66.9477 72.124 66.8047 72.6321C66.6722 73.1392 66.5111 73.7543 66.3262 74.4606C66.1137 75.1648 65.8737 75.9601 65.612 76.8269C64.512 80.2895 62.7953 84.8579 60.8814 89.3415C58.9745 93.8283 56.8673 98.2314 55.1241 101.418C54.6795 102.208 54.2858 102.943 53.9128 103.574C53.5345 104.201 53.2044 104.747 52.9331 105.197C52.3582 106.062 52.0297 106.555 52.0297 106.555C52.0297 106.555 51.9365 106.694 51.7505 106.972C52.088 107.214 52.257 107.335 52.257 107.335L52.763 107.698L53.2696 108.061C53.2696 108.061 53.4386 108.183 53.7761 108.425C53.9759 108.127 54.076 107.979 54.076 107.979C54.076 107.979 54.4268 107.451 55.0419 106.527C55.3254 106.057 55.6698 105.487 56.0646 104.833C56.4524 104.176 56.8562 103.423 57.3145 102.609C59.1054 99.3335 61.2407 94.8695 63.1747 90.3191C65.1155 85.7719 66.8571 81.1405 67.9878 77.583C68.2581 76.6876 68.5055 75.8668 68.7254 75.1388C68.9193 74.3981 69.0883 73.7522 69.2277 73.2197C69.375 72.693 69.4386 72.2474 69.5064 71.9587C69.5663 71.6651 69.5986 71.5083 69.5986 71.5083C69.5986 71.5083 69.6267 71.371 69.6691 71.1644C69.7183 70.9636 69.7522 70.6716 69.7872 70.3813C69.8577 69.8016 69.9276 69.2214 69.9276 69.2214L69.9287 69.2108C69.9287 69.2108 70.0458 67.3924 70.12 65.567C70.1968 63.7417 70.219 61.91 70.219 61.91C70.219 61.91 70.2201 61.6429 70.2212 61.1756C70.2259 60.7088 70.2233 60.0412 70.2106 59.2401C70.1873 57.6373 70.0988 55.4998 69.9509 53.3804C69.6336 49.1729 69.3156 44.9653 69.3156 44.9653C69.3156 44.9653 69.3035 44.7931 69.2791 44.4492Z" fill="white"/>
<path fill-rule="evenodd" clip-rule="evenodd" d="M77.0368 38.6641C76.261 38.4362 73.982 38.245 71.8131 39.3296C69.4705 40.5007 67.8666 42.6308 67.7065 44.416C67.6944 44.4748 67.688 44.5358 67.688 44.5983C67.688 45.0985 68.3959 46.5573 68.3959 46.0571C68.3959 45.4101 69.2729 44.9724 70.4264 44.7376C72.1327 44.3906 73.8861 44.8102 76.4984 44.8102C78.2073 44.8102 79.5929 43.4246 79.5929 41.7157C79.5929 40.1748 78.6603 39.141 77.0368 38.6641Z" fill="white"/>
<path fill-rule="evenodd" clip-rule="evenodd" d="M56.8833 41.7157C56.8833 43.4246 58.2684 44.8102 59.9778 44.8102C62.5896 44.8102 64.343 44.3906 66.0493 44.7376C67.2033 44.9724 68.0798 45.4101 68.0798 46.0571C68.0798 46.5573 68.7882 45.0985 68.7882 44.5983C68.7882 44.5358 68.7819 44.4748 68.7697 44.416C68.6091 42.6308 67.0057 40.5007 64.6631 39.3296C62.4937 38.245 60.2152 38.4362 59.4389 38.6641C57.8159 39.141 56.8833 40.1748 56.8833 41.7157Z" fill="white"/>
<path fill-rule="evenodd" clip-rule="evenodd" d="M50.2732 19.5209C49.4662 19.5728 47.2603 20.1748 45.5943 21.9372C43.7953 23.8411 43.0191 26.3914 43.4806 28.1236C43.4896 28.1829 43.5044 28.2423 43.5262 28.3011C43.6973 28.7711 44.8631 29.8987 44.6914 29.4287C44.4694 28.8209 45.1428 28.1093 46.1464 27.493C47.6301 26.5822 49.4211 26.375 51.875 25.4789C53.4801 24.8929 54.3067 23.1167 53.7206 21.5112C53.1923 20.064 51.9614 19.4123 50.2732 19.5209Z" fill="white"/>
<path fill-rule="evenodd" clip-rule="evenodd" d="M31.3927 29.6616C31.9788 31.2671 33.7555 32.0937 35.3611 31.5077C37.815 30.6116 39.3182 29.6165 41.0398 29.3579C42.204 29.1825 43.1779 29.2933 43.3994 29.9005C43.5711 30.3705 43.7364 28.7576 43.5647 28.2876C43.543 28.2287 43.5165 28.1736 43.4847 28.1228C42.7222 26.5008 40.485 25.05 37.8828 24.7527C35.4734 24.4777 33.3984 25.4384 32.7477 25.919C31.3864 26.9231 30.8644 28.2144 31.3927 29.6616Z" fill="white"/>
<path fill-rule="evenodd" clip-rule="evenodd" d="M34.6311 40.1655C33.9009 40.5131 32.0755 41.8903 31.1821 44.145C30.2177 46.5798 30.4424 49.2366 31.5133 50.6737C31.5435 50.7256 31.5795 50.7754 31.6214 50.8221C31.9552 51.1951 33.4553 51.8098 33.1215 51.4367C32.6901 50.9551 33.052 50.0442 33.7552 49.0999C34.7954 47.7037 36.3818 46.8469 38.3281 45.1051C39.602 43.9653 39.7106 42.009 38.5708 40.7357C37.5439 39.5874 36.1588 39.4385 34.6311 40.1655Z" fill="white"/>
<path fill-rule="evenodd" clip-rule="evenodd" d="M20.8602 56.055C21.9994 57.3283 23.9557 57.437 25.2296 56.2977C27.1764 54.5554 28.2033 53.0739 29.7061 52.1948C30.7224 51.6003 31.6677 51.3422 32.099 51.8239C32.4323 52.1969 31.9878 50.6375 31.6539 50.265C31.6126 50.2183 31.567 50.177 31.5188 50.141C30.2089 48.9175 27.5934 48.3998 25.0664 49.0891C22.7269 49.7271 21.1564 51.3889 20.7298 52.0766C19.8385 53.5142 19.8327 54.9068 20.8602 56.055Z" fill="white"/>
</svg>
