<svg width="219" height="141" viewBox="0 0 219 141" fill="none" xmlns="http://www.w3.org/2000/svg">
<path d="M213.6 140.7V0H218.85V140.7H213.6ZM190.5 140.7V0H195.75V140.7H190.5ZM202.05 140.7V0H207.3V140.7H202.05Z" fill="#000"/>
<path d="M184 76.2014L143 17.275V8L184 67V76.2014ZM184 96.2058L143 37.575V28.3L184 87V96.2058ZM184 116.75L143 57.875V48.6L184 107.5V116.75Z" fill="#000"/>
<path d="M131.1 140.7V0H136.35V140.7H131.1ZM108 140.7V0H113.25V140.7H108ZM119.55 140.7V0H124.8V140.7H119.55Z" fill="#000"/>
<path d="M84.4 61.95L86.325 56.7H103V61.95H84.4ZM80.2 73.6749L82.125 68.4249H103V73.6749H80.2ZM76 85.225L77.925 79.975H103V85.225H76Z" fill="#000"/>
<path d="M44.5 140.7L95.425 0H101.025L50.1 140.7H44.5ZM20 140.7L70.925 0H76.35L25.6 140.7H20ZM32.25 140.7L83 0H88.775L37.85 140.7H32.25Z" fill="#000"/>
<path d="M5.60009 4.57764e-05L35 78.5L32 85.5L9.53674e-05 4.57764e-05H5.60009ZM17.8501 4.57764e-05L40.5 63L38 71L12.2501 4.57764e-05H17.8501ZM30.1001 4.57764e-05L39.2876 25.5L47 47L44 56L24.5001 4.57764e-05H30.1001Z" fill="#000"/>
</svg>
