<svg width="372" height="151" viewBox="0 0 372 151" fill="none" xmlns="http://www.w3.org/2000/svg">
<path d="M78.05 82.675L29.575 8.3H35.875L84.525 82.675H78.05ZM50.4 82.675L1.925 8.3H8.225L56.7 82.675H50.4ZM64.4 82.675L15.75 8.3H22.05L70.525 82.675H64.4ZM74.2 55.2L70.875 50.3L98.875 8.3H105.175L74.2 55.2ZM81.2 66.05L78.05 60.975L112.7 8.3H119L81.2 66.05ZM88.2 76.725L84.875 71.825L126.525 8.3H132.825L88.2 76.725ZM76.3 149V89.15H81.55V149H76.3ZM53.2 149V89.15H58.45V149H53.2ZM64.75 149V89.15H70V149H64.75Z" fill="#FAE100"/>
<path d="M104.88 134L121.758 87.368H123.614L106.736 134H104.88ZM96.7601 134L113.638 87.368H115.436L98.6161 134H96.7601ZM100.82 134L117.64 87.368H119.554L102.676 134H100.82ZM138.868 134L123.73 92.182L124.658 89.572L140.724 134H138.868ZM134.808 134L121.758 97.866L122.628 95.198L136.664 134H134.808ZM130.748 134L119.728 103.492L120.656 100.882L132.604 134H130.748ZM114.334 118.572L114.972 116.832H122.628L123.266 118.572H114.334ZM112.942 122.458L113.58 120.718H124.02L124.658 122.458H112.942ZM111.55 126.286L112.188 124.546H125.412L126.05 126.286H111.55ZM183.403 134V87.368H185.143V134H183.403ZM175.747 134V87.368H177.487V134H175.747ZM179.575 134V87.368H181.315V134H179.575ZM152.431 134V87.368H154.171V134H152.431ZM144.775 134V87.368H146.515V134H144.775ZM148.603 134V87.368H150.343V134H148.603ZM173.659 117.934L156.259 92.936V89.862L173.659 114.86V117.934ZM173.659 124.662L156.259 99.664V96.59L173.659 121.588V124.662ZM173.659 131.39L156.259 106.392V103.318L173.659 128.316V131.39Z" fill="#FAE100"/>
<path d="M139.928 75.512C136.899 75.512 134.403 74.936 132.44 73.784C130.477 72.5893 129.411 71.0107 129.24 69.048L131.096 68.536C131.096 69.9867 131.907 71.2027 133.528 72.184C135.192 73.1227 137.325 73.592 139.928 73.592C142.616 73.592 144.792 73.1013 146.456 72.12C148.163 71.1387 149.016 69.88 149.016 68.344C149.016 66.8933 148.312 65.72 146.904 64.824C145.496 63.928 143.576 63.1387 141.144 62.456L137.176 61.304C131.885 59.768 127.896 57.8267 125.208 55.48C122.52 53.1333 121.176 49.912 121.176 45.816C121.176 42.872 121.987 40.2693 123.608 38.008C125.272 35.704 127.512 33.8907 130.328 32.568C133.187 31.2453 136.408 30.584 139.992 30.584C143.235 30.584 146.157 31.1173 148.76 32.184C151.405 33.208 153.581 34.68 155.288 36.6C157.037 38.52 158.147 40.76 158.616 43.32L156.76 43.832C156.376 41.5707 155.416 39.5867 153.88 37.88C152.344 36.1733 150.381 34.8507 147.992 33.912C145.603 32.9733 142.936 32.504 139.992 32.504C136.749 32.504 133.848 33.1013 131.288 34.296C128.771 35.448 126.765 37.0267 125.272 39.032C123.821 41.0373 123.096 43.3413 123.096 45.944C123.096 49.4427 124.312 52.2587 126.744 54.392C129.219 56.4827 132.867 58.1893 137.688 59.512L141.656 60.6C144.6 61.4107 146.883 62.392 148.504 63.544C150.125 64.696 150.936 66.2533 150.936 68.216C150.936 70.392 149.933 72.1627 147.928 73.528C145.923 74.8507 143.256 75.512 139.928 75.512ZM139.928 79.736C135.917 79.736 132.547 78.8613 129.816 77.112C127.128 75.32 125.549 72.9947 125.08 70.136L127 69.624C127.341 72.0987 128.664 74.0827 130.968 75.576C133.315 77.0693 136.301 77.816 139.928 77.816C142.573 77.816 144.899 77.4107 146.904 76.6C148.909 75.7893 150.467 74.6587 151.576 73.208C152.685 71.7573 153.24 70.0933 153.24 68.216C153.24 65.6133 152.259 63.5653 150.296 62.072C148.333 60.536 145.624 59.2987 142.168 58.36L138.264 57.272C134.125 56.12 130.947 54.6693 128.728 52.92C126.509 51.1707 125.4 48.8453 125.4 45.944C125.4 43.768 126.019 41.848 127.256 40.184C128.536 38.52 130.285 37.2187 132.504 36.28C134.723 35.2987 137.219 34.808 139.992 34.808C142.595 34.808 144.92 35.2133 146.968 36.024C149.059 36.792 150.765 37.9013 152.088 39.352C153.411 40.8027 154.221 42.488 154.52 44.408L152.6 44.92C152.301 42.4453 150.979 40.4613 148.632 38.968C146.328 37.4747 143.448 36.728 139.992 36.728C137.56 36.728 135.384 37.1333 133.464 37.944C131.544 38.712 130.029 39.8 128.92 41.208C127.853 42.5733 127.32 44.152 127.32 45.944C127.32 48.376 128.28 50.296 130.2 51.704C132.163 53.112 135 54.3493 138.712 55.416L142.552 56.504C146.52 57.6133 149.613 59.0853 151.832 60.92C154.051 62.712 155.16 65.144 155.16 68.216C155.16 70.4773 154.52 72.4827 153.24 74.232C151.96 75.9387 150.168 77.2827 147.864 78.264C145.603 79.2453 142.957 79.736 139.928 79.736ZM139.928 83.96C136.6 83.96 133.592 83.448 130.904 82.424C128.259 81.3573 126.061 79.8853 124.312 78.008C122.605 76.088 121.496 73.8267 120.984 71.224L122.84 70.712C123.267 73.016 124.227 75.0213 125.72 76.728C127.256 78.392 129.24 79.6933 131.672 80.632C134.104 81.5707 136.856 82.04 139.928 82.04C143.427 82.04 146.477 81.464 149.08 80.312C151.725 79.1173 153.773 77.496 155.224 75.448C156.717 73.3573 157.464 70.9467 157.464 68.216C157.464 64.5893 156.205 61.688 153.688 59.512C151.171 57.336 147.629 55.5867 143.064 54.264L139.288 53.176C136.173 52.28 133.784 51.2987 132.12 50.232C130.456 49.1653 129.624 47.736 129.624 45.944C129.624 43.8533 130.605 42.1893 132.568 40.952C134.531 39.672 137.005 39.032 139.992 39.032C142.893 39.032 145.283 39.6293 147.16 40.824C149.037 42.0187 150.104 43.576 150.36 45.496L148.504 46.008C148.419 44.5147 147.587 43.2987 146.008 42.36C144.472 41.4213 142.467 40.952 139.992 40.952C137.645 40.952 135.64 41.4 133.976 42.296C132.355 43.192 131.544 44.3653 131.544 45.816C131.544 47.1387 132.291 48.2053 133.784 49.016C135.32 49.8267 137.325 50.5947 139.8 51.32L143.448 52.408C148.611 53.944 152.557 55.9493 155.288 58.424C158.019 60.856 159.384 64.1627 159.384 68.344C159.384 71.3733 158.552 74.0827 156.888 76.472C155.267 78.8187 152.984 80.6533 150.04 81.976C147.139 83.2987 143.768 83.96 139.928 83.96ZM160.64 33.464V31.544H200.384V33.464H160.64ZM160.64 37.688V35.768H200.384V37.688H160.64ZM160.64 41.912V39.992H200.384V41.912H160.64ZM183.808 83V43.96H185.728V83H183.808ZM175.36 83V43.96H177.28V83H175.36ZM179.584 83V43.96H181.504V83H179.584ZM223.464 75.512C221.032 75.512 219.005 75.0213 217.384 74.04C215.805 73.0587 214.611 71.7573 213.8 70.136C213.032 68.472 212.648 66.6373 212.648 64.632V31.544H214.568V64.632C214.568 67.1067 215.272 69.2187 216.68 70.968C218.088 72.7173 220.349 73.592 223.464 73.592C226.579 73.592 228.84 72.7173 230.248 70.968C231.656 69.2187 232.36 67.1067 232.36 64.632V31.544H234.28V64.632C234.28 66.6373 233.875 68.472 233.064 70.136C232.296 71.7573 231.101 73.0587 229.48 74.04C227.901 75.0213 225.896 75.512 223.464 75.512ZM223.464 83.96C219.496 83.96 216.061 83.1067 213.16 81.4C210.301 79.6507 208.083 77.304 206.504 74.36C204.968 71.416 204.2 68.1733 204.2 64.632V31.544H206.12V64.632C206.12 67.832 206.803 70.7547 208.168 73.4C209.576 76.0453 211.56 78.1573 214.12 79.736C216.723 81.272 219.837 82.04 223.464 82.04C227.091 82.04 230.184 81.272 232.744 79.736C235.347 78.1573 237.331 76.0453 238.696 73.4C240.104 70.7547 240.808 67.832 240.808 64.632V31.544H242.728V64.632C242.728 68.1733 241.939 71.416 240.36 74.36C238.824 77.304 236.627 79.6507 233.768 81.4C230.909 83.1067 227.475 83.96 223.464 83.96ZM223.464 79.736C220.264 79.736 217.533 79.0533 215.272 77.688C213.053 76.3227 211.347 74.5093 210.152 72.248C209 69.944 208.424 67.4053 208.424 64.632V31.544H210.344V64.632C210.344 67.064 210.835 69.2827 211.816 71.288C212.84 73.2507 214.333 74.8293 216.296 76.024C218.259 77.2187 220.648 77.816 223.464 77.816C226.323 77.816 228.712 77.2187 230.632 76.024C232.595 74.8293 234.067 73.2507 235.048 71.288C236.072 69.2827 236.584 67.064 236.584 64.632V31.544H238.504V64.632C238.504 67.4053 237.907 69.944 236.712 72.248C235.56 74.5093 233.853 76.3227 231.592 77.688C229.373 79.0533 226.664 79.736 223.464 79.736ZM261.81 83V81.08H268.85C272.476 81.08 275.783 80.504 278.77 79.352C281.799 78.1573 284.423 76.4933 286.642 74.36C288.86 72.2267 290.567 69.7093 291.762 66.808C292.999 63.9067 293.618 60.728 293.618 57.272C293.618 53.816 292.999 50.6373 291.762 47.736C290.567 44.8347 288.86 42.3173 286.642 40.184C284.423 38.0507 281.799 36.408 278.77 35.256C275.783 34.0613 272.476 33.464 268.85 33.464H261.81V31.544H268.914C272.796 31.544 276.359 32.184 279.602 33.464C282.844 34.744 285.66 36.536 288.05 38.84C290.439 41.144 292.295 43.8533 293.618 46.968C294.94 50.0827 295.602 53.5173 295.602 57.272C295.602 61.0267 294.94 64.4827 293.618 67.64C292.295 70.7547 290.439 73.464 288.05 75.768C285.66 78.072 282.844 79.864 279.602 81.144C276.359 82.3813 272.796 83 268.914 83H261.81ZM257.586 83V31.544H259.506V83H257.586ZM249.138 83V31.544H251.058V83H249.138ZM253.362 83V31.544H255.282V83H253.362ZM261.81 78.776V76.856H268.85C272.903 76.856 276.466 76.024 279.538 74.36C282.61 72.696 285.02 70.392 286.77 67.448C288.519 64.4613 289.394 61.0693 289.394 57.272C289.394 53.432 288.519 50.04 286.77 47.096C285.02 44.152 282.61 41.848 279.538 40.184C276.466 38.52 272.903 37.688 268.85 37.688H261.81V35.768H268.914C273.308 35.768 277.191 36.7067 280.562 38.584C283.932 40.4187 286.578 42.9573 288.498 46.2C290.418 49.4 291.378 53.0907 291.378 57.272C291.378 61.4533 290.418 65.1653 288.498 68.408C286.578 71.6507 283.932 74.1893 280.562 76.024C277.191 77.8587 273.308 78.776 268.914 78.776H261.81ZM261.81 74.552V72.632H268.85C272.092 72.632 274.93 71.992 277.362 70.712C279.794 69.432 281.692 67.64 283.058 65.336C284.423 62.9893 285.106 60.3013 285.106 57.272C285.106 54.2 284.423 51.512 283.058 49.208C281.692 46.904 279.794 45.112 277.362 43.832C274.93 42.552 272.092 41.912 268.85 41.912H261.81V39.992H268.914C272.498 39.992 275.655 40.7387 278.386 42.232C281.116 43.6827 283.25 45.7093 284.786 48.312C286.322 50.872 287.09 53.8587 287.09 57.272C287.09 60.6853 286.322 63.6933 284.786 66.296C283.25 68.8987 281.116 70.9253 278.386 72.376C275.655 73.8267 272.498 74.552 268.914 74.552H261.81ZM309.148 83V31.544H311.068V83H309.148ZM300.7 83V31.544H302.62V83H300.7ZM304.924 83V31.544H306.844V83H304.924ZM367.626 57.272C367.626 53.8587 367.029 50.6587 365.834 47.672C364.682 44.6427 363.018 41.9973 360.842 39.736C358.666 37.4747 356.063 35.704 353.034 34.424C350.005 33.144 346.613 32.504 342.858 32.504C339.103 32.504 335.711 33.144 332.682 34.424C329.653 35.704 327.05 37.4747 324.874 39.736C322.698 41.9973 321.013 44.6427 319.818 47.672C318.666 50.6587 318.09 53.8587 318.09 57.272C318.09 60.6853 318.666 63.9067 319.818 66.936C321.013 69.9227 322.698 72.5467 324.874 74.808C327.05 77.0693 329.653 78.84 332.682 80.12C335.711 81.4 339.103 82.04 342.858 82.04C346.613 82.04 350.005 81.4 353.034 80.12C356.063 78.84 358.666 77.0693 360.842 74.808C363.018 72.5467 364.682 69.9227 365.834 66.936C367.029 63.9067 367.626 60.6853 367.626 57.272ZM363.402 57.272C363.402 53.4747 362.57 50.04 360.906 46.968C359.242 43.8533 356.874 41.3787 353.802 39.544C350.73 37.7093 347.082 36.792 342.858 36.792C338.677 36.792 335.029 37.7093 331.914 39.544C328.842 41.3787 326.474 43.8533 324.81 46.968C323.146 50.04 322.314 53.4747 322.314 57.272C322.314 61.0267 323.146 64.4613 324.81 67.576C326.474 70.6907 328.842 73.1653 331.914 75C335.029 76.8347 338.677 77.752 342.858 77.752C347.082 77.752 350.73 76.8347 353.802 75C356.874 73.1653 359.242 70.6907 360.906 67.576C362.57 64.4613 363.402 61.0267 363.402 57.272ZM359.178 57.272C359.178 54.2853 358.538 51.576 357.258 49.144C355.978 46.6693 354.122 44.7067 351.69 43.256C349.258 41.7627 346.314 41.016 342.858 41.016C339.445 41.016 336.501 41.7627 334.026 43.256C331.594 44.7067 329.738 46.6693 328.458 49.144C327.178 51.576 326.538 54.2853 326.538 57.272C326.538 60.2587 327.178 62.9893 328.458 65.464C329.738 67.896 331.594 69.8587 334.026 71.352C336.501 72.8027 339.445 73.528 342.858 73.528C346.314 73.528 349.258 72.8027 351.69 71.352C354.122 69.8587 355.978 67.896 357.258 65.464C358.538 62.9893 359.178 60.2587 359.178 57.272ZM342.858 75.512C339.061 75.512 335.797 74.7013 333.066 73.08C330.335 71.416 328.245 69.1973 326.794 66.424C325.343 63.6507 324.618 60.6 324.618 57.272C324.618 53.9013 325.343 50.8507 326.794 48.12C328.245 45.3467 330.335 43.1493 333.066 41.528C335.797 39.864 339.061 39.032 342.858 39.032C346.655 39.032 349.919 39.864 352.65 41.528C355.381 43.1493 357.471 45.3467 358.922 48.12C360.373 50.8507 361.098 53.9013 361.098 57.272C361.098 60.6 360.373 63.6507 358.922 66.424C357.471 69.1973 355.381 71.416 352.65 73.08C349.919 74.7013 346.655 75.512 342.858 75.512ZM342.858 79.736C339.445 79.736 336.351 79.16 333.578 78.008C330.847 76.8133 328.479 75.192 326.474 73.144C324.511 71.096 322.997 68.728 321.93 66.04C320.906 63.3093 320.394 60.3867 320.394 57.272C320.394 54.1573 320.906 51.256 321.93 48.568C322.997 45.8373 324.511 43.448 326.474 41.4C328.479 39.3093 330.847 37.688 333.578 36.536C336.351 35.384 339.445 34.808 342.858 34.808C346.271 34.808 349.343 35.384 352.074 36.536C354.847 37.688 357.215 39.3093 359.178 41.4C361.183 43.448 362.698 45.8373 363.722 48.568C364.789 51.256 365.322 54.1573 365.322 57.272C365.322 60.3867 364.789 63.3093 363.722 66.04C362.698 68.728 361.183 71.096 359.178 73.144C357.215 75.192 354.847 76.8133 352.074 78.008C349.343 79.16 346.271 79.736 342.858 79.736ZM342.858 83.96C338.847 83.96 335.199 83.2773 331.914 81.912C328.671 80.504 325.877 78.584 323.53 76.152C321.183 73.72 319.37 70.904 318.09 67.704C316.81 64.4613 316.17 60.984 316.17 57.272C316.17 53.56 316.81 50.104 318.09 46.904C319.37 43.6613 321.183 40.824 323.53 38.392C325.877 35.96 328.671 34.0613 331.914 32.696C335.199 31.288 338.847 30.584 342.858 30.584C346.869 30.584 350.495 31.288 353.738 32.696C357.023 34.0613 359.839 35.96 362.186 38.392C364.533 40.824 366.346 43.6613 367.626 46.904C368.906 50.104 369.546 53.56 369.546 57.272C369.546 60.984 368.906 64.4613 367.626 67.704C366.346 70.904 364.533 73.72 362.186 76.152C359.839 78.584 357.023 80.504 353.738 81.912C350.495 83.2773 346.869 83.96 342.858 83.96Z" fill="#FAE100"/>
<path d="M79.5 146.653L343.95 146.653" stroke="#FAE100" stroke-width="4.7"/>
<line x1="342.949" y1="148.034" x2="342.949" y2="83.0342" stroke="#FAE100" stroke-width="2"/>
<path d="M208.648 120V111.408C208.648 110.928 208.579 110.544 208.44 110.256C208.312 109.957 208.008 109.808 207.528 109.808H207.256V109.44H211.48C211.757 109.44 212.072 109.461 212.424 109.504C212.776 109.536 213.133 109.616 213.496 109.744C213.869 109.861 214.211 110.037 214.52 110.272C214.829 110.507 215.08 110.816 215.272 111.2C215.464 111.584 215.56 112.064 215.56 112.64C215.56 113.195 215.464 113.659 215.272 114.032C215.091 114.395 214.851 114.688 214.552 114.912C214.253 115.136 213.939 115.307 213.608 115.424C213.277 115.531 212.963 115.605 212.664 115.648C212.376 115.68 212.141 115.696 211.96 115.696H210.264V120H208.648ZM210.264 115.104H211.4C211.635 115.104 211.885 115.067 212.152 114.992C212.429 114.907 212.691 114.768 212.936 114.576C213.192 114.373 213.395 114.112 213.544 113.792C213.704 113.461 213.784 113.051 213.784 112.56C213.784 112.08 213.704 111.68 213.544 111.36C213.395 111.029 213.192 110.768 212.936 110.576C212.691 110.373 212.435 110.229 212.168 110.144C211.901 110.059 211.651 110.016 211.416 110.016C211.235 110.016 211.043 110.032 210.84 110.064C210.637 110.085 210.445 110.123 210.264 110.176V115.104ZM218.852 120.16C218.564 120.16 218.281 120.117 218.004 120.032C217.726 119.957 217.465 119.835 217.22 119.664C216.985 119.483 216.793 119.253 216.644 118.976C216.494 118.688 216.42 118.341 216.42 117.936C216.42 117.371 216.59 116.923 216.932 116.592C217.284 116.261 217.769 116.027 218.388 115.888C219.017 115.739 219.742 115.664 220.564 115.664H220.98C220.98 114.939 220.91 114.384 220.772 114C220.633 113.616 220.441 113.349 220.196 113.2C219.95 113.051 219.668 112.976 219.348 112.976C218.921 112.976 218.558 113.072 218.26 113.264C217.961 113.456 217.753 113.824 217.636 114.368H216.868C216.868 114.091 216.884 113.824 216.916 113.568C216.948 113.312 217.065 113.083 217.268 112.88C217.47 112.677 217.796 112.533 218.244 112.448C218.702 112.363 219.177 112.32 219.668 112.32C220.073 112.32 220.452 112.373 220.804 112.48C221.156 112.576 221.465 112.747 221.732 112.992C221.998 113.227 222.206 113.563 222.356 114C222.516 114.437 222.596 114.997 222.596 115.68V120H221.652L221.092 119.28H221.012C220.852 119.493 220.596 119.696 220.244 119.888C219.892 120.069 219.428 120.16 218.852 120.16ZM219.508 119.424C219.892 119.424 220.196 119.323 220.42 119.12C220.654 118.907 220.841 118.677 220.98 118.432V116.32H220.564C219.774 116.32 219.166 116.464 218.74 116.752C218.324 117.04 218.116 117.435 218.116 117.936C218.116 118.437 218.254 118.811 218.532 119.056C218.809 119.301 219.134 119.424 219.508 119.424ZM227.001 120.16C226.276 120.16 225.689 120.037 225.241 119.792C224.793 119.547 224.431 119.243 224.153 118.88L224.521 118.592C224.713 118.795 224.969 118.997 225.289 119.2C225.609 119.403 226.057 119.504 226.633 119.504C227.241 119.504 227.711 119.387 228.041 119.152C228.383 118.907 228.553 118.523 228.553 118C228.553 117.499 228.377 117.12 228.025 116.864C227.684 116.608 227.14 116.48 226.393 116.48H225.657V115.824H226.393C227.033 115.824 227.513 115.707 227.833 115.472C228.153 115.237 228.313 114.88 228.313 114.4C228.313 113.92 228.159 113.563 227.849 113.328C227.551 113.093 227.188 112.976 226.761 112.976C226.207 112.976 225.743 113.131 225.369 113.44C224.996 113.749 224.793 114.165 224.761 114.688H224.393C224.393 114.24 224.409 113.877 224.441 113.6C224.473 113.323 224.591 113.083 224.793 112.88C224.996 112.677 225.289 112.533 225.673 112.448C226.068 112.363 226.521 112.32 227.033 112.32C227.556 112.32 228.041 112.389 228.489 112.528C228.937 112.656 229.3 112.869 229.577 113.168C229.865 113.467 230.009 113.877 230.009 114.4C230.009 114.88 229.855 115.269 229.545 115.568C229.236 115.856 228.825 116.053 228.313 116.16C228.921 116.267 229.396 116.48 229.737 116.8C230.079 117.12 230.249 117.52 230.249 118C230.249 118.544 230.1 118.976 229.801 119.296C229.513 119.605 229.124 119.829 228.633 119.968C228.153 120.096 227.609 120.16 227.001 120.16ZM232.266 123.04V114.448C232.266 113.968 232.197 113.584 232.058 113.296C231.93 112.997 231.626 112.848 231.146 112.848H230.874V112.48H232.346C232.741 112.48 233.04 112.539 233.242 112.656C233.456 112.763 233.61 112.939 233.706 113.184C233.92 112.981 234.202 112.789 234.554 112.608C234.917 112.416 235.376 112.32 235.93 112.32C236.602 112.32 237.157 112.496 237.594 112.848C238.042 113.2 238.378 113.675 238.602 114.272C238.826 114.859 238.938 115.515 238.938 116.24C238.938 116.955 238.821 117.611 238.586 118.208C238.362 118.805 238.016 119.28 237.546 119.632C237.088 119.984 236.501 120.16 235.786 120.16C235.37 120.16 235.002 120.107 234.682 120C234.373 119.904 234.106 119.797 233.882 119.68V123.04H232.266ZM235.354 119.504C235.813 119.504 236.181 119.36 236.458 119.072C236.736 118.773 236.933 118.379 237.05 117.888C237.178 117.397 237.242 116.848 237.242 116.24C237.242 115.621 237.184 115.072 237.066 114.592C236.949 114.101 236.757 113.712 236.49 113.424C236.234 113.125 235.904 112.976 235.498 112.976C235.082 112.976 234.746 113.067 234.49 113.248C234.234 113.419 234.032 113.616 233.882 113.84V119.024C234.096 119.131 234.33 119.237 234.586 119.344C234.842 119.451 235.098 119.504 235.354 119.504ZM243.977 120.16C243.315 120.16 242.723 120.027 242.201 119.76C241.689 119.483 241.283 119.056 240.985 118.48C240.686 117.904 240.537 117.168 240.537 116.272V115.68C240.537 114.688 240.585 113.872 240.681 113.232C240.777 112.581 240.926 112.064 241.129 111.68C241.331 111.285 241.587 110.992 241.897 110.8C242.206 110.597 242.569 110.448 242.985 110.352L245.337 109.792C245.721 109.707 246.019 109.616 246.233 109.52C246.457 109.413 246.59 109.259 246.633 109.056H246.985V110.16C246.985 110.363 246.937 110.533 246.841 110.672C246.755 110.811 246.601 110.907 246.377 110.96L243.625 111.584C243.177 111.701 242.793 111.883 242.473 112.128C242.153 112.363 241.897 112.72 241.705 113.2C241.523 113.68 241.401 114.331 241.337 115.152H241.417C241.63 114.395 241.966 113.84 242.425 113.488C242.883 113.136 243.507 112.96 244.297 112.96C244.862 112.96 245.379 113.088 245.849 113.344C246.329 113.6 246.713 113.995 247.001 114.528C247.289 115.051 247.433 115.728 247.433 116.56C247.433 117.381 247.283 118.059 246.985 118.592C246.686 119.125 246.275 119.52 245.753 119.776C245.241 120.032 244.649 120.16 243.977 120.16ZM243.977 119.504C244.275 119.504 244.558 119.419 244.825 119.248C245.091 119.077 245.31 118.779 245.481 118.352C245.651 117.925 245.737 117.328 245.737 116.56C245.737 115.813 245.651 115.227 245.481 114.8C245.31 114.373 245.091 114.069 244.825 113.888C244.558 113.707 244.275 113.616 243.977 113.616C243.689 113.616 243.411 113.707 243.145 113.888C242.878 114.069 242.659 114.373 242.489 114.8C242.318 115.227 242.233 115.813 242.233 116.56C242.233 117.328 242.318 117.925 242.489 118.352C242.659 118.779 242.878 119.077 243.145 119.248C243.411 119.419 243.689 119.504 243.977 119.504ZM252.444 120.16C251.687 120.16 251.036 119.984 250.492 119.632C249.959 119.28 249.548 118.805 249.26 118.208C248.983 117.611 248.844 116.955 248.844 116.24C248.844 115.515 248.983 114.859 249.26 114.272C249.548 113.675 249.959 113.2 250.492 112.848C251.036 112.496 251.687 112.32 252.444 112.32C253.202 112.32 253.847 112.496 254.38 112.848C254.924 113.2 255.335 113.675 255.612 114.272C255.9 114.859 256.044 115.515 256.044 116.24C256.044 116.955 255.9 117.611 255.612 118.208C255.335 118.805 254.924 119.28 254.38 119.632C253.847 119.984 253.202 120.16 252.444 120.16ZM252.444 119.504C252.839 119.504 253.18 119.36 253.468 119.072C253.756 118.773 253.975 118.379 254.124 117.888C254.284 117.397 254.364 116.848 254.364 116.24C254.364 115.621 254.284 115.072 254.124 114.592C253.975 114.101 253.756 113.712 253.468 113.424C253.18 113.125 252.839 112.976 252.444 112.976C252.05 112.976 251.708 113.125 251.42 113.424C251.132 113.712 250.908 114.101 250.748 114.592C250.599 115.072 250.524 115.621 250.524 116.24C250.524 116.848 250.599 117.397 250.748 117.888C250.908 118.379 251.132 118.773 251.42 119.072C251.708 119.36 252.05 119.504 252.444 119.504ZM259.886 120V113.136H259.166C258.686 113.136 258.292 113.275 257.982 113.552C257.684 113.819 257.534 114.224 257.534 114.768H257.166V113.76C257.166 113.44 257.246 113.147 257.406 112.88C257.566 112.613 257.886 112.48 258.366 112.48H264.078V113.136H261.486V120H259.886ZM271.369 120.16C270.953 120.16 270.548 120.064 270.153 119.872C269.769 119.669 269.396 119.339 269.033 118.88L267.273 116.64V120H265.657V114.448C265.657 113.968 265.588 113.584 265.449 113.296C265.321 112.997 265.017 112.848 264.537 112.848H264.265V112.48H265.833C266.207 112.48 266.495 112.533 266.697 112.64C266.911 112.747 267.06 112.944 267.145 113.232C267.231 113.509 267.273 113.915 267.273 114.448V116.256L269.257 113.568C269.513 113.227 269.796 112.96 270.105 112.768C270.425 112.576 270.852 112.48 271.385 112.48H271.769V112.88C271.503 112.88 271.241 112.939 270.985 113.056C270.729 113.163 270.5 113.355 270.297 113.632L268.585 115.952L270.505 118.4C270.783 118.763 271.06 119.056 271.337 119.28C271.615 119.493 271.919 119.627 272.249 119.68V120C272.164 120.043 272.036 120.08 271.865 120.112C271.705 120.144 271.54 120.16 271.369 120.16ZM275.352 120.16C275.064 120.16 274.781 120.117 274.504 120.032C274.226 119.957 273.965 119.835 273.72 119.664C273.485 119.483 273.293 119.253 273.144 118.976C272.994 118.688 272.92 118.341 272.92 117.936C272.92 117.371 273.09 116.923 273.432 116.592C273.784 116.261 274.269 116.027 274.888 115.888C275.517 115.739 276.242 115.664 277.064 115.664H277.48C277.48 114.939 277.41 114.384 277.272 114C277.133 113.616 276.941 113.349 276.696 113.2C276.45 113.051 276.168 112.976 275.848 112.976C275.421 112.976 275.058 113.072 274.76 113.264C274.461 113.456 274.253 113.824 274.136 114.368H273.368C273.368 114.091 273.384 113.824 273.416 113.568C273.448 113.312 273.565 113.083 273.768 112.88C273.97 112.677 274.296 112.533 274.744 112.448C275.202 112.363 275.677 112.32 276.168 112.32C276.573 112.32 276.952 112.373 277.304 112.48C277.656 112.576 277.965 112.747 278.232 112.992C278.498 113.227 278.706 113.563 278.856 114C279.016 114.437 279.096 114.997 279.096 115.68V120H278.152L277.592 119.28H277.512C277.352 119.493 277.096 119.696 276.744 119.888C276.392 120.069 275.928 120.16 275.352 120.16ZM276.008 119.424C276.392 119.424 276.696 119.323 276.92 119.12C277.154 118.907 277.341 118.677 277.48 118.432V116.32H277.064C276.274 116.32 275.666 116.464 275.24 116.752C274.824 117.04 274.616 117.435 274.616 117.936C274.616 118.437 274.754 118.811 275.032 119.056C275.309 119.301 275.634 119.424 276.008 119.424ZM288.397 120.16C287.587 120.16 286.915 119.984 286.381 119.632C285.848 119.28 285.448 118.805 285.181 118.208C284.925 117.611 284.797 116.955 284.797 116.24C284.797 115.515 284.925 114.859 285.181 114.272C285.448 113.675 285.848 113.2 286.381 112.848C286.915 112.496 287.587 112.32 288.397 112.32C288.973 112.32 289.459 112.363 289.853 112.448C290.248 112.533 290.547 112.677 290.749 112.88C290.952 113.083 291.069 113.339 291.101 113.648C291.133 113.947 291.149 114.4 291.149 115.008H290.797C290.755 114.325 290.536 113.819 290.141 113.488C289.757 113.147 289.277 112.976 288.701 112.976C288.2 112.976 287.784 113.115 287.453 113.392C287.133 113.669 286.888 114.053 286.717 114.544C286.557 115.024 286.477 115.589 286.477 116.24C286.477 116.869 286.557 117.429 286.717 117.92C286.877 118.411 287.123 118.8 287.453 119.088C287.784 119.365 288.205 119.504 288.717 119.504C289.283 119.504 289.736 119.387 290.077 119.152C290.429 118.917 290.744 118.603 291.021 118.208L291.389 118.48C291.176 118.843 290.925 119.152 290.637 119.408C290.36 119.653 290.035 119.84 289.661 119.968C289.299 120.096 288.877 120.16 288.397 120.16ZM294.899 120.16C294.611 120.16 294.328 120.117 294.051 120.032C293.773 119.957 293.512 119.835 293.267 119.664C293.032 119.483 292.84 119.253 292.691 118.976C292.541 118.688 292.467 118.341 292.467 117.936C292.467 117.371 292.637 116.923 292.979 116.592C293.331 116.261 293.816 116.027 294.435 115.888C295.064 115.739 295.789 115.664 296.611 115.664H297.027C297.027 114.939 296.957 114.384 296.819 114C296.68 113.616 296.488 113.349 296.243 113.2C295.997 113.051 295.715 112.976 295.395 112.976C294.968 112.976 294.605 113.072 294.307 113.264C294.008 113.456 293.8 113.824 293.683 114.368H292.915C292.915 114.091 292.931 113.824 292.963 113.568C292.995 113.312 293.112 113.083 293.315 112.88C293.517 112.677 293.843 112.533 294.291 112.448C294.749 112.363 295.224 112.32 295.715 112.32C296.12 112.32 296.499 112.373 296.851 112.48C297.203 112.576 297.512 112.747 297.779 112.992C298.045 113.227 298.253 113.563 298.403 114C298.563 114.437 298.643 114.997 298.643 115.68V120H297.699L297.139 119.28H297.059C296.899 119.493 296.643 119.696 296.291 119.888C295.939 120.069 295.475 120.16 294.899 120.16ZM295.555 119.424C295.939 119.424 296.243 119.323 296.467 119.12C296.701 118.907 296.888 118.677 297.027 118.432V116.32H296.611C295.821 116.32 295.213 116.464 294.787 116.752C294.371 117.04 294.163 117.435 294.163 117.936C294.163 118.437 294.301 118.811 294.579 119.056C294.856 119.301 295.181 119.424 295.555 119.424ZM301 120V114.448C301 113.968 300.931 113.584 300.792 113.296C300.664 112.997 300.36 112.848 299.88 112.848H299.656V112.48H301.176C301.55 112.48 301.838 112.533 302.04 112.64C302.254 112.747 302.403 112.944 302.488 113.232C302.574 113.509 302.616 113.915 302.616 114.448V118.416L305.848 112.48H307.416V120H305.8V114.064L302.568 120H301ZM304.168 111.712C303.646 111.712 303.208 111.584 302.856 111.328C302.515 111.072 302.243 110.752 302.04 110.368L302.392 110.112C302.584 110.315 302.814 110.48 303.08 110.608C303.358 110.725 303.72 110.784 304.168 110.784C304.616 110.784 304.974 110.725 305.24 110.608C305.518 110.48 305.752 110.315 305.944 110.112L306.296 110.368C306.094 110.752 305.816 111.072 305.464 111.328C305.123 111.584 304.691 111.712 304.168 111.712ZM311.652 120V113.136H310.932C310.452 113.136 310.057 113.275 309.748 113.552C309.449 113.819 309.3 114.224 309.3 114.768H308.932V113.76C308.932 113.44 309.012 113.147 309.172 112.88C309.332 112.613 309.652 112.48 310.132 112.48H315.844V113.136H313.252V120H311.652ZM320.116 120.16C319.359 120.16 318.708 119.984 318.164 119.632C317.631 119.28 317.22 118.805 316.932 118.208C316.655 117.611 316.516 116.955 316.516 116.24C316.516 115.515 316.655 114.859 316.932 114.272C317.22 113.675 317.631 113.2 318.164 112.848C318.708 112.496 319.359 112.32 320.116 112.32C320.873 112.32 321.519 112.496 322.052 112.848C322.596 113.2 323.007 113.675 323.284 114.272C323.572 114.859 323.716 115.515 323.716 116.24C323.716 116.955 323.572 117.611 323.284 118.208C323.007 118.805 322.596 119.28 322.052 119.632C321.519 119.984 320.873 120.16 320.116 120.16ZM320.116 119.504C320.511 119.504 320.852 119.36 321.14 119.072C321.428 118.773 321.647 118.379 321.796 117.888C321.956 117.397 322.036 116.848 322.036 116.24C322.036 115.621 321.956 115.072 321.796 114.592C321.647 114.101 321.428 113.712 321.14 113.424C320.852 113.125 320.511 112.976 320.116 112.976C319.721 112.976 319.38 113.125 319.092 113.424C318.804 113.712 318.58 114.101 318.42 114.592C318.271 115.072 318.196 115.621 318.196 116.24C318.196 116.848 318.271 117.397 318.42 117.888C318.58 118.379 318.804 118.773 319.092 119.072C319.38 119.36 319.721 119.504 320.116 119.504ZM325.686 120V114.448C325.686 113.968 325.617 113.584 325.478 113.296C325.35 112.997 325.046 112.848 324.566 112.848H324.422V112.48H328.438C329.004 112.48 329.521 112.544 329.99 112.672C330.46 112.789 330.833 112.992 331.11 113.28C331.388 113.557 331.526 113.931 331.526 114.4C331.526 114.859 331.388 115.227 331.11 115.504C330.833 115.781 330.401 115.973 329.814 116.08C330.444 116.187 330.94 116.4 331.302 116.72C331.665 117.029 331.846 117.429 331.846 117.92C331.846 118.443 331.702 118.859 331.414 119.168C331.126 119.467 330.726 119.68 330.214 119.808C329.702 119.936 329.11 120 328.438 120H325.686ZM328.246 119.424C328.844 119.424 329.313 119.301 329.654 119.056C329.996 118.811 330.166 118.432 330.166 117.92C330.166 117.419 329.99 117.04 329.638 116.784C329.286 116.528 328.769 116.4 328.086 116.4H327.286V119.264C327.404 119.307 327.558 119.344 327.75 119.376C327.942 119.408 328.108 119.424 328.246 119.424ZM327.286 115.744H328.086C328.609 115.744 329.03 115.632 329.35 115.408C329.681 115.173 329.846 114.837 329.846 114.4C329.846 113.952 329.686 113.616 329.366 113.392C329.057 113.168 328.684 113.056 328.246 113.056C328.108 113.056 327.942 113.072 327.75 113.104C327.558 113.136 327.404 113.173 327.286 113.216V115.744Z" fill="#FAE100"/>
</svg>
