<svg width="372" height="151" viewBox="0 0 372 151" fill="none" xmlns="http://www.w3.org/2000/svg">
<path d="M78.05 82.675L29.575 8.3H35.875L84.525 82.675H78.05ZM50.4 82.675L1.925 8.3H8.225L56.7 82.675H50.4ZM64.4 82.675L15.75 8.3H22.05L70.525 82.675H64.4ZM74.2 55.2L70.875 50.3L98.875 8.3H105.175L74.2 55.2ZM81.2 66.05L78.05 60.975L112.7 8.3H119L81.2 66.05ZM88.2 76.725L84.875 71.825L126.525 8.3H132.825L88.2 76.725ZM76.3 149V89.15H81.55V149H76.3ZM53.2 149V89.15H58.45V149H53.2ZM64.75 149V89.15H70V149H64.75Z" fill="white"/>
<path d="M104.88 134L121.758 87.368H123.614L106.736 134H104.88ZM96.7601 134L113.638 87.368H115.436L98.6161 134H96.7601ZM100.82 134L117.64 87.368H119.554L102.676 134H100.82ZM138.868 134L123.73 92.182L124.658 89.572L140.724 134H138.868ZM134.808 134L121.758 97.866L122.628 95.198L136.664 134H134.808ZM130.748 134L119.728 103.492L120.656 100.882L132.604 134H130.748ZM114.334 118.572L114.972 116.832H122.628L123.266 118.572H114.334ZM112.942 122.458L113.58 120.718H124.02L124.658 122.458H112.942ZM111.55 126.286L112.188 124.546H125.412L126.05 126.286H111.55ZM183.403 134V87.368H185.143V134H183.403ZM175.747 134V87.368H177.487V134H175.747ZM179.575 134V87.368H181.315V134H179.575ZM152.431 134V87.368H154.171V134H152.431ZM144.775 134V87.368H146.515V134H144.775ZM148.603 134V87.368H150.343V134H148.603ZM173.659 117.934L156.259 92.936V89.862L173.659 114.86V117.934ZM173.659 124.662L156.259 99.664V96.59L173.659 121.588V124.662ZM173.659 131.39L156.259 106.392V103.318L173.659 128.316V131.39Z" fill="white"/>
<path d="M139.928 75.512C136.899 75.512 134.403 74.936 132.44 73.784C130.477 72.5893 129.411 71.0107 129.24 69.048L131.096 68.536C131.096 69.9867 131.907 71.2027 133.528 72.184C135.192 73.1227 137.325 73.592 139.928 73.592C142.616 73.592 144.792 73.1013 146.456 72.12C148.163 71.1387 149.016 69.88 149.016 68.344C149.016 66.8933 148.312 65.72 146.904 64.824C145.496 63.928 143.576 63.1387 141.144 62.456L137.176 61.304C131.885 59.768 127.896 57.8267 125.208 55.48C122.52 53.1333 121.176 49.912 121.176 45.816C121.176 42.872 121.987 40.2693 123.608 38.008C125.272 35.704 127.512 33.8907 130.328 32.568C133.187 31.2453 136.408 30.584 139.992 30.584C143.235 30.584 146.157 31.1173 148.76 32.184C151.405 33.208 153.581 34.68 155.288 36.6C157.037 38.52 158.147 40.76 158.616 43.32L156.76 43.832C156.376 41.5707 155.416 39.5867 153.88 37.88C152.344 36.1733 150.381 34.8507 147.992 33.912C145.603 32.9733 142.936 32.504 139.992 32.504C136.749 32.504 133.848 33.1013 131.288 34.296C128.771 35.448 126.765 37.0267 125.272 39.032C123.821 41.0373 123.096 43.3413 123.096 45.944C123.096 49.4427 124.312 52.2587 126.744 54.392C129.219 56.4827 132.867 58.1893 137.688 59.512L141.656 60.6C144.6 61.4107 146.883 62.392 148.504 63.544C150.125 64.696 150.936 66.2533 150.936 68.216C150.936 70.392 149.933 72.1627 147.928 73.528C145.923 74.8507 143.256 75.512 139.928 75.512ZM139.928 79.736C135.917 79.736 132.547 78.8613 129.816 77.112C127.128 75.32 125.549 72.9947 125.08 70.136L127 69.624C127.341 72.0987 128.664 74.0827 130.968 75.576C133.315 77.0693 136.301 77.816 139.928 77.816C142.573 77.816 144.899 77.4107 146.904 76.6C148.909 75.7893 150.467 74.6587 151.576 73.208C152.685 71.7573 153.24 70.0933 153.24 68.216C153.24 65.6133 152.259 63.5653 150.296 62.072C148.333 60.536 145.624 59.2987 142.168 58.36L138.264 57.272C134.125 56.12 130.947 54.6693 128.728 52.92C126.509 51.1707 125.4 48.8453 125.4 45.944C125.4 43.768 126.019 41.848 127.256 40.184C128.536 38.52 130.285 37.2187 132.504 36.28C134.723 35.2987 137.219 34.808 139.992 34.808C142.595 34.808 144.92 35.2133 146.968 36.024C149.059 36.792 150.765 37.9013 152.088 39.352C153.411 40.8027 154.221 42.488 154.52 44.408L152.6 44.92C152.301 42.4453 150.979 40.4613 148.632 38.968C146.328 37.4747 143.448 36.728 139.992 36.728C137.56 36.728 135.384 37.1333 133.464 37.944C131.544 38.712 130.029 39.8 128.92 41.208C127.853 42.5733 127.32 44.152 127.32 45.944C127.32 48.376 128.28 50.296 130.2 51.704C132.163 53.112 135 54.3493 138.712 55.416L142.552 56.504C146.52 57.6133 149.613 59.0853 151.832 60.92C154.051 62.712 155.16 65.144 155.16 68.216C155.16 70.4773 154.52 72.4827 153.24 74.232C151.96 75.9387 150.168 77.2827 147.864 78.264C145.603 79.2453 142.957 79.736 139.928 79.736ZM139.928 83.96C136.6 83.96 133.592 83.448 130.904 82.424C128.259 81.3573 126.061 79.8853 124.312 78.008C122.605 76.088 121.496 73.8267 120.984 71.224L122.84 70.712C123.267 73.016 124.227 75.0213 125.72 76.728C127.256 78.392 129.24 79.6933 131.672 80.632C134.104 81.5707 136.856 82.04 139.928 82.04C143.427 82.04 146.477 81.464 149.08 80.312C151.725 79.1173 153.773 77.496 155.224 75.448C156.717 73.3573 157.464 70.9467 157.464 68.216C157.464 64.5893 156.205 61.688 153.688 59.512C151.171 57.336 147.629 55.5867 143.064 54.264L139.288 53.176C136.173 52.28 133.784 51.2987 132.12 50.232C130.456 49.1653 129.624 47.736 129.624 45.944C129.624 43.8533 130.605 42.1893 132.568 40.952C134.531 39.672 137.005 39.032 139.992 39.032C142.893 39.032 145.283 39.6293 147.16 40.824C149.037 42.0187 150.104 43.576 150.36 45.496L148.504 46.008C148.419 44.5147 147.587 43.2987 146.008 42.36C144.472 41.4213 142.467 40.952 139.992 40.952C137.645 40.952 135.64 41.4 133.976 42.296C132.355 43.192 131.544 44.3653 131.544 45.816C131.544 47.1387 132.291 48.2053 133.784 49.016C135.32 49.8267 137.325 50.5947 139.8 51.32L143.448 52.408C148.611 53.944 152.557 55.9493 155.288 58.424C158.019 60.856 159.384 64.1627 159.384 68.344C159.384 71.3733 158.552 74.0827 156.888 76.472C155.267 78.8187 152.984 80.6533 150.04 81.976C147.139 83.2987 143.768 83.96 139.928 83.96ZM160.64 33.464V31.544H200.384V33.464H160.64ZM160.64 37.688V35.768H200.384V37.688H160.64ZM160.64 41.912V39.992H200.384V41.912H160.64ZM183.808 83V43.96H185.728V83H183.808ZM175.36 83V43.96H177.28V83H175.36ZM179.584 83V43.96H181.504V83H179.584ZM223.464 75.512C221.032 75.512 219.005 75.0213 217.384 74.04C215.805 73.0587 214.611 71.7573 213.8 70.136C213.032 68.472 212.648 66.6373 212.648 64.632V31.544H214.568V64.632C214.568 67.1067 215.272 69.2187 216.68 70.968C218.088 72.7173 220.349 73.592 223.464 73.592C226.579 73.592 228.84 72.7173 230.248 70.968C231.656 69.2187 232.36 67.1067 232.36 64.632V31.544H234.28V64.632C234.28 66.6373 233.875 68.472 233.064 70.136C232.296 71.7573 231.101 73.0587 229.48 74.04C227.901 75.0213 225.896 75.512 223.464 75.512ZM223.464 83.96C219.496 83.96 216.061 83.1067 213.16 81.4C210.301 79.6507 208.083 77.304 206.504 74.36C204.968 71.416 204.2 68.1733 204.2 64.632V31.544H206.12V64.632C206.12 67.832 206.803 70.7547 208.168 73.4C209.576 76.0453 211.56 78.1573 214.12 79.736C216.723 81.272 219.837 82.04 223.464 82.04C227.091 82.04 230.184 81.272 232.744 79.736C235.347 78.1573 237.331 76.0453 238.696 73.4C240.104 70.7547 240.808 67.832 240.808 64.632V31.544H242.728V64.632C242.728 68.1733 241.939 71.416 240.36 74.36C238.824 77.304 236.627 79.6507 233.768 81.4C230.909 83.1067 227.475 83.96 223.464 83.96ZM223.464 79.736C220.264 79.736 217.533 79.0533 215.272 77.688C213.053 76.3227 211.347 74.5093 210.152 72.248C209 69.944 208.424 67.4053 208.424 64.632V31.544H210.344V64.632C210.344 67.064 210.835 69.2827 211.816 71.288C212.84 73.2507 214.333 74.8293 216.296 76.024C218.259 77.2187 220.648 77.816 223.464 77.816C226.323 77.816 228.712 77.2187 230.632 76.024C232.595 74.8293 234.067 73.2507 235.048 71.288C236.072 69.2827 236.584 67.064 236.584 64.632V31.544H238.504V64.632C238.504 67.4053 237.907 69.944 236.712 72.248C235.56 74.5093 233.853 76.3227 231.592 77.688C229.373 79.0533 226.664 79.736 223.464 79.736ZM261.81 83V81.08H268.85C272.476 81.08 275.783 80.504 278.77 79.352C281.799 78.1573 284.423 76.4933 286.642 74.36C288.86 72.2267 290.567 69.7093 291.762 66.808C292.999 63.9067 293.618 60.728 293.618 57.272C293.618 53.816 292.999 50.6373 291.762 47.736C290.567 44.8347 288.86 42.3173 286.642 40.184C284.423 38.0507 281.799 36.408 278.77 35.256C275.783 34.0613 272.476 33.464 268.85 33.464H261.81V31.544H268.914C272.796 31.544 276.359 32.184 279.602 33.464C282.844 34.744 285.66 36.536 288.05 38.84C290.439 41.144 292.295 43.8533 293.618 46.968C294.94 50.0827 295.602 53.5173 295.602 57.272C295.602 61.0267 294.94 64.4827 293.618 67.64C292.295 70.7547 290.439 73.464 288.05 75.768C285.66 78.072 282.844 79.864 279.602 81.144C276.359 82.3813 272.796 83 268.914 83H261.81ZM257.586 83V31.544H259.506V83H257.586ZM249.138 83V31.544H251.058V83H249.138ZM253.362 83V31.544H255.282V83H253.362ZM261.81 78.776V76.856H268.85C272.903 76.856 276.466 76.024 279.538 74.36C282.61 72.696 285.02 70.392 286.77 67.448C288.519 64.4613 289.394 61.0693 289.394 57.272C289.394 53.432 288.519 50.04 286.77 47.096C285.02 44.152 282.61 41.848 279.538 40.184C276.466 38.52 272.903 37.688 268.85 37.688H261.81V35.768H268.914C273.308 35.768 277.191 36.7067 280.562 38.584C283.932 40.4187 286.578 42.9573 288.498 46.2C290.418 49.4 291.378 53.0907 291.378 57.272C291.378 61.4533 290.418 65.1653 288.498 68.408C286.578 71.6507 283.932 74.1893 280.562 76.024C277.191 77.8587 273.308 78.776 268.914 78.776H261.81ZM261.81 74.552V72.632H268.85C272.092 72.632 274.93 71.992 277.362 70.712C279.794 69.432 281.692 67.64 283.058 65.336C284.423 62.9893 285.106 60.3013 285.106 57.272C285.106 54.2 284.423 51.512 283.058 49.208C281.692 46.904 279.794 45.112 277.362 43.832C274.93 42.552 272.092 41.912 268.85 41.912H261.81V39.992H268.914C272.498 39.992 275.655 40.7387 278.386 42.232C281.116 43.6827 283.25 45.7093 284.786 48.312C286.322 50.872 287.09 53.8587 287.09 57.272C287.09 60.6853 286.322 63.6933 284.786 66.296C283.25 68.8987 281.116 70.9253 278.386 72.376C275.655 73.8267 272.498 74.552 268.914 74.552H261.81ZM309.148 83V31.544H311.068V83H309.148ZM300.7 83V31.544H302.62V83H300.7ZM304.924 83V31.544H306.844V83H304.924ZM367.626 57.272C367.626 53.8587 367.029 50.6587 365.834 47.672C364.682 44.6427 363.018 41.9973 360.842 39.736C358.666 37.4747 356.063 35.704 353.034 34.424C350.005 33.144 346.613 32.504 342.858 32.504C339.103 32.504 335.711 33.144 332.682 34.424C329.653 35.704 327.05 37.4747 324.874 39.736C322.698 41.9973 321.013 44.6427 319.818 47.672C318.666 50.6587 318.09 53.8587 318.09 57.272C318.09 60.6853 318.666 63.9067 319.818 66.936C321.013 69.9227 322.698 72.5467 324.874 74.808C327.05 77.0693 329.653 78.84 332.682 80.12C335.711 81.4 339.103 82.04 342.858 82.04C346.613 82.04 350.005 81.4 353.034 80.12C356.063 78.84 358.666 77.0693 360.842 74.808C363.018 72.5467 364.682 69.9227 365.834 66.936C367.029 63.9067 367.626 60.6853 367.626 57.272ZM363.402 57.272C363.402 53.4747 362.57 50.04 360.906 46.968C359.242 43.8533 356.874 41.3787 353.802 39.544C350.73 37.7093 347.082 36.792 342.858 36.792C338.677 36.792 335.029 37.7093 331.914 39.544C328.842 41.3787 326.474 43.8533 324.81 46.968C323.146 50.04 322.314 53.4747 322.314 57.272C322.314 61.0267 323.146 64.4613 324.81 67.576C326.474 70.6907 328.842 73.1653 331.914 75C335.029 76.8347 338.677 77.752 342.858 77.752C347.082 77.752 350.73 76.8347 353.802 75C356.874 73.1653 359.242 70.6907 360.906 67.576C362.57 64.4613 363.402 61.0267 363.402 57.272ZM359.178 57.272C359.178 54.2853 358.538 51.576 357.258 49.144C355.978 46.6693 354.122 44.7067 351.69 43.256C349.258 41.7627 346.314 41.016 342.858 41.016C339.445 41.016 336.501 41.7627 334.026 43.256C331.594 44.7067 329.738 46.6693 328.458 49.144C327.178 51.576 326.538 54.2853 326.538 57.272C326.538 60.2587 327.178 62.9893 328.458 65.464C329.738 67.896 331.594 69.8587 334.026 71.352C336.501 72.8027 339.445 73.528 342.858 73.528C346.314 73.528 349.258 72.8027 351.69 71.352C354.122 69.8587 355.978 67.896 357.258 65.464C358.538 62.9893 359.178 60.2587 359.178 57.272ZM342.858 75.512C339.061 75.512 335.797 74.7013 333.066 73.08C330.335 71.416 328.245 69.1973 326.794 66.424C325.343 63.6507 324.618 60.6 324.618 57.272C324.618 53.9013 325.343 50.8507 326.794 48.12C328.245 45.3467 330.335 43.1493 333.066 41.528C335.797 39.864 339.061 39.032 342.858 39.032C346.655 39.032 349.919 39.864 352.65 41.528C355.381 43.1493 357.471 45.3467 358.922 48.12C360.373 50.8507 361.098 53.9013 361.098 57.272C361.098 60.6 360.373 63.6507 358.922 66.424C357.471 69.1973 355.381 71.416 352.65 73.08C349.919 74.7013 346.655 75.512 342.858 75.512ZM342.858 79.736C339.445 79.736 336.351 79.16 333.578 78.008C330.847 76.8133 328.479 75.192 326.474 73.144C324.511 71.096 322.997 68.728 321.93 66.04C320.906 63.3093 320.394 60.3867 320.394 57.272C320.394 54.1573 320.906 51.256 321.93 48.568C322.997 45.8373 324.511 43.448 326.474 41.4C328.479 39.3093 330.847 37.688 333.578 36.536C336.351 35.384 339.445 34.808 342.858 34.808C346.271 34.808 349.343 35.384 352.074 36.536C354.847 37.688 357.215 39.3093 359.178 41.4C361.183 43.448 362.698 45.8373 363.722 48.568C364.789 51.256 365.322 54.1573 365.322 57.272C365.322 60.3867 364.789 63.3093 363.722 66.04C362.698 68.728 361.183 71.096 359.178 73.144C357.215 75.192 354.847 76.8133 352.074 78.008C349.343 79.16 346.271 79.736 342.858 79.736ZM342.858 83.96C338.847 83.96 335.199 83.2773 331.914 81.912C328.671 80.504 325.877 78.584 323.53 76.152C321.183 73.72 319.37 70.904 318.09 67.704C316.81 64.4613 316.17 60.984 316.17 57.272C316.17 53.56 316.81 50.104 318.09 46.904C319.37 43.6613 321.183 40.824 323.53 38.392C325.877 35.96 328.671 34.0613 331.914 32.696C335.199 31.288 338.847 30.584 342.858 30.584C346.869 30.584 350.495 31.288 353.738 32.696C357.023 34.0613 359.839 35.96 362.186 38.392C364.533 40.824 366.346 43.6613 367.626 46.904C368.906 50.104 369.546 53.56 369.546 57.272C369.546 60.984 368.906 64.4613 367.626 67.704C366.346 70.904 364.533 73.72 362.186 76.152C359.839 78.584 357.023 80.504 353.738 81.912C350.495 83.2773 346.869 83.96 342.858 83.96Z" fill="white"/>
<path d="M79.5 146.653L343.95 146.653" stroke="white" stroke-width="4.7"/>
<line x1="342.949" y1="148.034" x2="342.949" y2="83.0342" stroke="white" stroke-width="2"/>
</svg>
