<svg width="19" height="16" viewBox="0 0 19 16" fill="none" xmlns="http://www.w3.org/2000/svg">
<path fill-rule="evenodd" clip-rule="evenodd" d="M0.538023 2.06501C0.291016 2.59772 0.291016 3.28401 0.291016 4.65659V5.34557C0.291016 5.72609 0.599482 6.03455 0.979996 6.03455H1.20966C2.22436 6.03455 3.04694 6.85713 3.04694 7.87184C3.04694 8.88654 2.22436 9.70912 1.20966 9.70912H0.979997C0.599483 9.70912 0.291016 10.0176 0.291016 10.3981V11.0871C0.291016 12.4597 0.291016 13.146 0.538023 13.6787C0.802971 14.2501 1.26193 14.709 1.83332 14.974C2.36603 15.221 3.05232 15.221 4.4249 15.221H14.53C15.9025 15.221 16.5888 15.221 17.1215 14.974C17.6929 14.709 18.1519 14.2501 18.4168 13.6787C18.6638 13.146 18.6638 12.4597 18.6638 11.0871V10.3981C18.6638 10.0176 18.3554 9.70912 17.9749 9.70912H17.7452C16.7305 9.70912 15.9079 8.88654 15.9079 7.87184C15.9079 6.85713 16.7305 6.03455 17.7452 6.03455H17.9749C18.3554 6.03455 18.6638 5.72608 18.6638 5.34557V4.65659C18.6638 3.28401 18.6638 2.59772 18.4168 2.06501C18.1519 1.49362 17.6929 1.03466 17.1215 0.769712C16.5888 0.522705 15.9025 0.522705 14.53 0.522705H4.4249C3.05232 0.522705 2.36603 0.522705 1.83332 0.769712C1.26193 1.03466 0.802971 1.49362 0.538023 2.06501ZM9.39491 4.819C9.18582 4.86514 9.05712 5.1981 8.79973 5.864C8.65336 6.24269 8.58018 6.43204 8.44323 6.56082C8.40482 6.59694 8.36313 6.62911 8.31873 6.65688C8.16045 6.75588 7.96287 6.77425 7.5677 6.81097H7.56769C6.89873 6.87315 6.56425 6.90423 6.46211 7.10215C6.44095 7.14314 6.42657 7.18752 6.41956 7.23345C6.38569 7.45519 6.63159 7.68735 7.12337 8.15167L7.25994 8.28061C7.48986 8.49769 7.60482 8.60623 7.67131 8.74169C7.7112 8.82294 7.73794 8.91045 7.75047 9.00071C7.77136 9.15117 7.7377 9.30863 7.67037 9.62355L7.64632 9.73606C7.52558 10.3008 7.4652 10.5832 7.54057 10.722C7.60826 10.8467 7.73295 10.9265 7.87069 10.9333C8.02403 10.9409 8.2401 10.7582 8.67223 10.3928L8.67223 10.3928C8.95693 10.152 9.09928 10.0316 9.25731 9.98462C9.40172 9.94164 9.55486 9.94164 9.69928 9.98462C9.85731 10.0316 9.99966 10.152 10.2844 10.3928C10.7165 10.7582 10.9326 10.9409 11.0859 10.9333C11.2236 10.9265 11.3483 10.8467 11.416 10.722C11.4914 10.5832 11.431 10.3008 11.3103 9.73606L11.2862 9.62355L11.2862 9.62353C11.2189 9.30863 11.1852 9.15117 11.2061 9.00071C11.2186 8.91045 11.2454 8.82294 11.2853 8.74169C11.3518 8.60623 11.4667 8.49769 11.6966 8.28061L11.8332 8.15167C12.325 7.68735 12.5709 7.45519 12.537 7.23345C12.53 7.18752 12.5156 7.14314 12.4945 7.10215C12.3923 6.90423 12.0579 6.87315 11.3889 6.81097C10.9937 6.77425 10.7961 6.75588 10.6379 6.65688C10.5935 6.62911 10.5518 6.59694 10.5134 6.56082C10.3764 6.43204 10.3032 6.24269 10.1569 5.864C9.89946 5.1981 9.77077 4.86514 9.56168 4.819C9.5067 4.80686 9.44988 4.80686 9.39491 4.819Z" fill="#4762F1"/>
<path fill-rule="evenodd" clip-rule="evenodd" d="M0.538023 2.06501C0.291016 2.59772 0.291016 3.28401 0.291016 4.65659V5.34557C0.291016 5.72609 0.599482 6.03455 0.979996 6.03455H1.20966C2.22436 6.03455 3.04694 6.85713 3.04694 7.87184C3.04694 8.88654 2.22436 9.70912 1.20966 9.70912H0.979997C0.599483 9.70912 0.291016 10.0176 0.291016 10.3981V11.0871C0.291016 12.4597 0.291016 13.146 0.538023 13.6787C0.802971 14.2501 1.26193 14.709 1.83332 14.974C2.36603 15.221 3.05232 15.221 4.4249 15.221H14.53C15.9025 15.221 16.5888 15.221 17.1215 14.974C17.6929 14.709 18.1519 14.2501 18.4168 13.6787C18.6638 13.146 18.6638 12.4597 18.6638 11.0871V10.3981C18.6638 10.0176 18.3554 9.70912 17.9749 9.70912H17.7452C16.7305 9.70912 15.9079 8.88654 15.9079 7.87184C15.9079 6.85713 16.7305 6.03455 17.7452 6.03455H17.9749C18.3554 6.03455 18.6638 5.72608 18.6638 5.34557V4.65659C18.6638 3.28401 18.6638 2.59772 18.4168 2.06501C18.1519 1.49362 17.6929 1.03466 17.1215 0.769712C16.5888 0.522705 15.9025 0.522705 14.53 0.522705H4.4249C3.05232 0.522705 2.36603 0.522705 1.83332 0.769712C1.26193 1.03466 0.802971 1.49362 0.538023 2.06501ZM9.39491 4.819C9.18582 4.86514 9.05712 5.1981 8.79973 5.864C8.65336 6.24269 8.58018 6.43204 8.44323 6.56082C8.40482 6.59694 8.36313 6.62911 8.31873 6.65688C8.16045 6.75588 7.96287 6.77425 7.5677 6.81097H7.56769C6.89873 6.87315 6.56425 6.90423 6.46211 7.10215C6.44095 7.14314 6.42657 7.18752 6.41956 7.23345C6.38569 7.45519 6.63159 7.68735 7.12337 8.15167L7.25994 8.28061C7.48986 8.49769 7.60482 8.60623 7.67131 8.74169C7.7112 8.82294 7.73794 8.91045 7.75047 9.00071C7.77136 9.15117 7.7377 9.30863 7.67037 9.62355L7.64632 9.73606C7.52558 10.3008 7.4652 10.5832 7.54057 10.722C7.60826 10.8467 7.73295 10.9265 7.87069 10.9333C8.02403 10.9409 8.2401 10.7582 8.67223 10.3928L8.67223 10.3928C8.95693 10.152 9.09928 10.0316 9.25731 9.98462C9.40172 9.94164 9.55486 9.94164 9.69928 9.98462C9.85731 10.0316 9.99966 10.152 10.2844 10.3928C10.7165 10.7582 10.9326 10.9409 11.0859 10.9333C11.2236 10.9265 11.3483 10.8467 11.416 10.722C11.4914 10.5832 11.431 10.3008 11.3103 9.73606L11.2862 9.62355L11.2862 9.62353C11.2189 9.30863 11.1852 9.15117 11.2061 9.00071C11.2186 8.91045 11.2454 8.82294 11.2853 8.74169C11.3518 8.60623 11.4667 8.49769 11.6966 8.28061L11.8332 8.15167C12.325 7.68735 12.5709 7.45519 12.537 7.23345C12.53 7.18752 12.5156 7.14314 12.4945 7.10215C12.3923 6.90423 12.0579 6.87315 11.3889 6.81097C10.9937 6.77425 10.7961 6.75588 10.6379 6.65688C10.5935 6.62911 10.5518 6.59694 10.5134 6.56082C10.3764 6.43204 10.3032 6.24269 10.1569 5.864C9.89946 5.1981 9.77077 4.86514 9.56168 4.819C9.5067 4.80686 9.44988 4.80686 9.39491 4.819Z" fill="url(#paint0_linear_227_266)"/>
<defs>
<linearGradient id="paint0_linear_227_266" x1="0.291016" y1="15.221" x2="20.695" y2="11.4168" gradientUnits="userSpaceOnUse">
<stop stop-color="#F5C047"/>
<stop offset="1" stop-color="#DF4B41"/>
</linearGradient>
</defs>
</svg>
