<svg width="19" height="20" viewBox="0 0 19 20" fill="none" xmlns="http://www.w3.org/2000/svg">
<path fill-rule="evenodd" clip-rule="evenodd" d="M8.21132 0.790538V6.71927C6.69863 6.5228 5.31138 5.94596 4.25303 5.08605C3.6373 4.58577 3.16153 4.01476 2.82948 3.40668C4.251 2.00041 6.12385 1.04946 8.21132 0.790538ZM10.5233 0.790527V6.71927C12.036 6.5228 13.4233 5.94596 14.4816 5.08605C15.0974 4.58576 15.5731 4.01473 15.9052 3.40663C14.4837 2.00037 12.6108 1.04943 10.5233 0.790527ZM17.4067 5.34436C16.9971 5.90503 16.5043 6.42153 15.9395 6.88043C14.4467 8.09337 12.537 8.83936 10.5233 9.04654L10.5233 10.9848C11.3356 11.0683 12.1343 11.2399 12.8984 11.4971C14.0227 11.8755 15.0576 12.4344 15.9395 13.1509C16.5008 13.6069 16.9946 14.1225 17.407 14.687C18.2062 13.3144 18.6639 11.7186 18.6639 10.0159C18.6639 8.31299 18.206 6.71701 17.4067 5.34436ZM15.9053 16.6251C15.5708 16.0132 15.0923 15.4415 14.4816 14.9453C13.8288 14.4149 13.0418 13.9847 12.1609 13.6883C11.6357 13.5115 11.0859 13.3853 10.5233 13.3122V19.2413C12.6109 18.9824 14.4838 18.0314 15.9053 16.6251ZM8.21132 19.2413L8.21132 13.3122C7.64875 13.3853 7.09893 13.5115 6.5737 13.6883C5.69287 13.9847 4.90583 14.4149 4.25303 14.9453C3.6424 15.4415 3.16384 16.0132 2.82936 16.625C4.2509 18.0314 6.12379 18.9824 8.21132 19.2413ZM1.32769 14.6869C1.74003 14.1225 2.23387 13.6069 2.7951 13.1509C3.677 12.4344 4.7119 11.8755 5.83624 11.4971C6.60037 11.2399 7.39906 11.0683 8.21132 10.9848V9.04654C6.19766 8.83936 4.28794 8.09337 2.7951 6.88043C2.23031 6.42155 1.7376 5.90507 1.32799 5.34442C0.528661 6.71706 0.0708008 8.31302 0.0708008 10.0159C0.0708008 11.7186 0.528548 13.3144 1.32769 14.6869Z" fill="#4762F1"/>
<path fill-rule="evenodd" clip-rule="evenodd" d="M8.21132 0.790538V6.71927C6.69863 6.5228 5.31138 5.94596 4.25303 5.08605C3.6373 4.58577 3.16153 4.01476 2.82948 3.40668C4.251 2.00041 6.12385 1.04946 8.21132 0.790538ZM10.5233 0.790527V6.71927C12.036 6.5228 13.4233 5.94596 14.4816 5.08605C15.0974 4.58576 15.5731 4.01473 15.9052 3.40663C14.4837 2.00037 12.6108 1.04943 10.5233 0.790527ZM17.4067 5.34436C16.9971 5.90503 16.5043 6.42153 15.9395 6.88043C14.4467 8.09337 12.537 8.83936 10.5233 9.04654L10.5233 10.9848C11.3356 11.0683 12.1343 11.2399 12.8984 11.4971C14.0227 11.8755 15.0576 12.4344 15.9395 13.1509C16.5008 13.6069 16.9946 14.1225 17.407 14.687C18.2062 13.3144 18.6639 11.7186 18.6639 10.0159C18.6639 8.31299 18.206 6.71701 17.4067 5.34436ZM15.9053 16.6251C15.5708 16.0132 15.0923 15.4415 14.4816 14.9453C13.8288 14.4149 13.0418 13.9847 12.1609 13.6883C11.6357 13.5115 11.0859 13.3853 10.5233 13.3122V19.2413C12.6109 18.9824 14.4838 18.0314 15.9053 16.6251ZM8.21132 19.2413L8.21132 13.3122C7.64875 13.3853 7.09893 13.5115 6.5737 13.6883C5.69287 13.9847 4.90583 14.4149 4.25303 14.9453C3.6424 15.4415 3.16384 16.0132 2.82936 16.625C4.2509 18.0314 6.12379 18.9824 8.21132 19.2413ZM1.32769 14.6869C1.74003 14.1225 2.23387 13.6069 2.7951 13.1509C3.677 12.4344 4.7119 11.8755 5.83624 11.4971C6.60037 11.2399 7.39906 11.0683 8.21132 10.9848V9.04654C6.19766 8.83936 4.28794 8.09337 2.7951 6.88043C2.23031 6.42155 1.7376 5.90507 1.32799 5.34442C0.528661 6.71706 0.0708008 8.31302 0.0708008 10.0159C0.0708008 11.7186 0.528548 13.3144 1.32769 14.6869Z" fill="url(#paint0_linear_227_273)"/>
<defs>
<linearGradient id="paint0_linear_227_273" x1="0.0708009" y1="19.2413" x2="20.9651" y2="16.1008" gradientUnits="userSpaceOnUse">
<stop stop-color="#F5C047"/>
<stop offset="1" stop-color="#DF4B41"/>
</linearGradient>
</defs>
</svg>
