<svg width="19" height="19" viewBox="0 0 19 19" fill="none" xmlns="http://www.w3.org/2000/svg">
<path d="M7.34027 3.64432C8.10902 1.72784 8.49339 0.769594 9.11787 0.636786C9.28207 0.601866 9.45179 0.601866 9.61599 0.636786C10.2405 0.769594 10.6248 1.72784 11.3936 3.64432C11.8308 4.73419 12.0493 5.27912 12.4584 5.64976C12.5731 5.75372 12.6976 5.84631 12.8302 5.92623C13.3029 6.21116 13.8931 6.26401 15.0733 6.36971C17.0713 6.54865 18.0703 6.63812 18.3754 7.20772C18.4386 7.32569 18.4815 7.45341 18.5025 7.58559C18.6036 8.22378 17.8692 8.89194 16.4004 10.2283L15.9925 10.5993C15.3058 11.2241 14.9625 11.5365 14.7639 11.9263C14.6447 12.1602 14.5649 12.412 14.5274 12.6718C14.465 13.1048 14.5656 13.558 14.7667 14.4643L14.8385 14.7881C15.1991 16.4135 15.3794 17.2262 15.1544 17.6256C14.9522 17.9844 14.5798 18.2142 14.1684 18.2338C13.7104 18.2557 13.0651 17.7298 11.7744 16.6781C10.9241 15.9853 10.4989 15.6388 10.0269 15.5035C9.59563 15.3798 9.13823 15.3798 8.70691 15.5035C8.23493 15.6388 7.80977 15.9853 6.95944 16.6781C5.66879 17.7298 5.02347 18.2557 4.56548 18.2338C4.15409 18.2142 3.78168 17.9844 3.5795 17.6256C3.35442 17.2262 3.53473 16.4135 3.89535 14.7881L3.96719 14.4643C4.16828 13.558 4.26883 13.1048 4.20643 12.6718C4.169 12.412 4.08913 12.1602 3.96999 11.9263C3.7714 11.5365 3.42805 11.2241 2.74135 10.5993L2.33346 10.2283C0.864643 8.89194 0.130233 8.22378 0.231372 7.58559C0.252319 7.45341 0.295277 7.32569 0.358459 7.20772C0.663528 6.63812 1.66252 6.54865 3.66051 6.36971C4.84078 6.26401 5.43092 6.21116 5.90365 5.92623C6.03625 5.84631 6.16078 5.75372 6.27551 5.64976C6.68451 5.27912 6.9031 4.73419 7.34027 3.64432Z" fill="url(#paint0_linear_227_260)"/>
<defs>
<linearGradient id="paint0_linear_227_260" x1="0.222168" y1="18.2345" x2="20.7479" y2="15.0573" gradientUnits="userSpaceOnUse">
<stop stop-color="#F5C047"/>
<stop offset="1" stop-color="#DF4B41"/>
</linearGradient>
</defs>
</svg>
