<svg width="30" height="30" viewBox="0 0 30 30" fill="none" xmlns="http://www.w3.org/2000/svg">
<path d="M20.0742 23.4928C19.0632 23.4928 17.6522 23.1028 15.6352 22.2668C13.0022 21.1768 10.3922 18.8928 8.28521 15.8378L8.21021 15.7308C7.51421 14.7798 6.38721 12.9578 6.38721 11.0558C6.38721 8.82684 7.50221 7.69584 7.97921 7.21284C8.42821 6.75184 9.09921 6.50684 9.85321 6.50684C10.0432 6.50684 10.2132 6.51584 10.3682 6.52484C11.0032 6.54984 11.3712 6.70984 11.7212 7.54684L12.0842 8.42684C12.4682 9.35784 12.9412 10.5068 13.0152 10.6618C13.0972 10.8308 13.3462 11.3498 13.0692 11.8898C12.9212 12.2058 12.7762 12.3728 12.5772 12.6028C12.4372 12.7638 12.3442 12.8638 12.2492 12.9638C12.1392 13.0818 12.0272 13.1978 11.9152 13.3388C11.7222 13.5648 11.7222 13.5648 11.7872 13.6778C12.1572 14.3028 12.9442 15.5028 14.0402 16.4778C15.4622 17.7428 16.6112 18.2078 17.1632 18.4318L17.3002 18.4878C17.4452 18.5478 17.6282 18.5908 17.7652 18.4458C18.0132 18.1788 18.3272 17.7398 18.6592 17.2748L18.8582 16.9958C19.2072 16.5028 19.6372 16.3988 19.9362 16.3988C20.1112 16.3988 20.2932 16.4338 20.4792 16.5038C20.9442 16.6658 23.3912 17.8848 23.4162 17.8968L23.6512 18.0118C24.0012 18.1798 24.2772 18.3128 24.4352 18.5908C24.6642 18.9888 24.5742 20.0328 24.2262 21.0178C23.8092 22.1968 22.2592 23.1178 21.0132 23.3858C20.7652 23.4378 20.4702 23.4928 20.0742 23.4928ZM9.85221 7.50684C9.38021 7.50684 8.95021 7.64884 8.72821 7.87584C8.26721 8.34384 7.38621 9.23684 7.38621 11.0558C7.38621 12.2368 7.97121 13.7138 8.99121 15.1068L9.10721 15.2718C11.1052 18.1698 13.5592 20.3268 16.0162 21.3438C17.9092 22.1288 19.1982 22.4938 20.0732 22.4938C20.3732 22.4938 20.5962 22.4518 20.8002 22.4088C21.7732 22.1988 22.9982 21.4798 23.2792 20.6848C23.5832 19.8278 23.5772 19.1688 23.5412 19.0378C23.5392 19.0688 23.3592 18.9838 23.2142 18.9138L22.9652 18.7918C22.2642 18.4408 20.4522 17.5558 20.1352 17.4448C20.0512 17.4128 19.9872 17.3998 19.9332 17.3998C19.8882 17.3998 19.7952 17.3998 19.6692 17.5778L19.4692 17.8578C19.1182 18.3498 18.7872 18.8138 18.4932 19.1298C18.1162 19.5328 17.4692 19.6448 16.9122 19.4128L16.7852 19.3608C16.2282 19.1358 14.9232 18.6078 13.3722 17.2278C12.1762 16.1618 11.3232 14.8648 10.9212 14.1858C10.4982 13.4568 10.9272 12.9548 11.1332 12.7138C11.2642 12.5508 11.3922 12.4158 11.5202 12.2798C11.6042 12.1908 11.6882 12.1018 11.7742 12.0018C11.9992 11.7428 12.0732 11.6568 12.1702 11.4498C12.1992 11.3928 12.2152 11.3118 12.1112 11.0958C12.0352 10.9358 11.5492 9.76184 11.1582 8.80984L10.7962 7.93284C10.6312 7.53684 10.6312 7.53684 10.3172 7.52484C10.1732 7.51484 10.0212 7.50684 9.85221 7.50684Z" fill="#FAE100"/>
<path d="M14.737 30C6.474 30 0 23.411 0 15C0 11.371 1.237 7.889 3.485 5.196C3.663 4.984 3.977 4.957 4.189 5.133C4.401 5.31 4.43 5.625 4.253 5.837C2.155 8.35 1 11.604 1 15C1 22.851 7.034 29 14.737 29C22.602 29 29 22.72 29 15C29 7.28 22.602 1 14.737 1C12.297 1 9.924 1.62 7.879 2.792C7.642 2.925 7.334 2.846 7.197 2.606C7.06 2.366 7.143 2.061 7.383 1.923C9.579 0.665 12.122 0 14.737 0C23.153 0 30 6.729 30 15C30 23.271 23.153 30 14.737 30Z" fill="#FAE100"/>
<path d="M5.97217 4.5C6.24831 4.5 6.47217 4.27614 6.47217 4C6.47217 3.72386 6.24831 3.5 5.97217 3.5C5.69603 3.5 5.47217 3.72386 5.47217 4C5.47217 4.27614 5.69603 4.5 5.97217 4.5Z" fill="#FAE100"/>
</svg>
