<svg viewBox="0 0 192 160" enable-background="new 0 0 192 160" xml:space="preserve">
                            <path class="nomove" d="M26,64H6c-2.2088,0-4,1.7912-4,4v88c0,2.2088,1.7912,4,4,4h20c2.2088,0,4-1.7912,4-4V68C30,65.7912,28.2088,64,26,64z
                        		 M22,152H10V72h12V152z" />
                            <path class="nomove" d="M66,80H46c-2.2088,0-4,1.7912-4,4v72c0,2.2088,1.7912,4,4,4h20c2.2088,0,4-1.7912,4-4V84C70,81.7912,68.2088,80,66,80z
                        		 M62,152H50V88h12V152z" />
                            <path class="nomove" d="M106,48H86c-2.2088,0-4,1.7912-4,4v104c0,2.2088,1.7912,4,4,4h20c2.2088,0,4-1.7912,4-4V52C110,49.7912,108.2088,48,106,48
                        		z M102,152H90V56h12V152z" />
                            <path class="nomove" d="M146,32h-20c-2.2088,0-4,1.7912-4,4v120c0,2.2088,1.7912,4,4,4h20c2.2088,0,4-1.7912,4-4V36
                        		C150,33.7912,148.2088,32,146,32z M142,152h-12V40h12V152z" />
                            <path class="nomove" d="M186,64h-20c-2.2088,0-4,1.7912-4,4v88c0,2.2088,1.7912,4,4,4h20c2.2088,0,4-1.7912,4-4V68C190,65.7912,188.2088,64,186,64
                        		z M182,152h-12V72h12V152z" />
                            <path class="move"
                                d="M28,48H4c-2.2088,0-4,1.7912-4,4s1.7912,4,4,4h24c2.2088,0,4-1.7912,4-4S30.2088,48,28,48z" />
                            <path class="move"
                                d="M28,32H4c-2.2088,0-4,1.7912-4,4s1.7912,4,4,4h24c2.2088,0,4-1.7912,4-4S30.2088,32,28,32z" />
                            <path class="move"
                                d="M108,32H84c-2.2088,0-4,1.7912-4,4s1.7912,4,4,4h24c2.2088,0,4-1.7912,4-4S110.2088,32,108,32z" />
                            <path class="move"
                                d="M108,16H84c-2.2088,0-4,1.7912-4,4s1.7912,4,4,4h24c2.2088,0,4-1.7912,4-4S110.2088,16,108,16z" />
                            <path class="move"
                                d="M68,16H44c-2.2088,0-4,1.7912-4,4s1.7912,4,4,4h24c2.2088,0,4-1.7912,4-4S70.2088,16,68,16z" />
                            <path class="move"
                                d="M28,16H4c-2.2088,0-4,1.7912-4,4s1.7912,4,4,4h24c2.2088,0,4-1.7912,4-4S30.2088,16,28,16z" />
                            <path class="move"
                                d="M148,16h-24c-2.2088,0-4,1.7912-4,4s1.7912,4,4,4h24c2.2088,0,4-1.7912,4-4S150.2088,16,148,16z" />
                            <path class="move"
                                d="M188,32h-24c-2.2088,0-4,1.7912-4,4s1.7912,4,4,4h24c2.2088,0,4-1.7912,4-4S190.2088,32,188,32z" />
                            <path class="move"
                                d="M188,16h-24c-2.2088,0-4,1.7912-4,4s1.7912,4,4,4h24c2.2088,0,4-1.7912,4-4S190.2088,16,188,16z" />
                            <path class="move"
                                d="M108,0H84c-2.2088,0-4,1.7912-4,4s1.7912,4,4,4h24c2.2088,0,4-1.7912,4-4S110.2088,0,108,0z" />
                            <path class="move"
                                d="M68,0H44c-2.2088,0-4,1.7912-4,4s1.7912,4,4,4h24c2.2088,0,4-1.7912,4-4S70.2088,0,68,0z" />
                            <path class="move"
                                d="M28,0H4C1.7912,0,0,1.7912,0,4s1.7912,4,4,4h24c2.2088,0,4-1.7912,4-4S30.2088,0,28,0z" />
                            <path class="move"
                                d="M148,0h-24c-2.2088,0-4,1.7912-4,4s1.7912,4,4,4h24c2.2088,0,4-1.7912,4-4S150.2088,0,148,0z" />
                            <path class="move"
                                d="M164,8h24c2.2088,0,4-1.7912,4-4s-1.7912-4-4-4h-24c-2.2088,0-4,1.7912-4,4S161.7912,8,164,8z" />
                            <path class="move"
                                d="M188,48h-24c-2.2088,0-4,1.7912-4,4s1.7912,4,4,4h24c2.2088,0,4-1.7912,4-4S190.2088,48,188,48z" />
                            <path class="move"
                                d="M68,48H44c-2.2088,0-4,1.7912-4,4s1.7912,4,4,4h24c2.2088,0,4-1.7912,4-4S70.2088,48,68,48z" />
                            <path class="move"
                                d="M68,64H44c-2.2088,0-4,1.7912-4,4s1.7912,4,4,4h24c2.2088,0,4-1.7912,4-4S70.2088,64,68,64z" />
                            <path class="move"
                                d="M68,32H44c-2.2088,0-4,1.7912-4,4s1.7912,4,4,4h24c2.2088,0,4-1.7912,4-4S70.2088,32,68,32z" />
                        </svg>