<svg width="30" height="30" viewBox="0 0 30 30" fill="none" xmlns="http://www.w3.org/2000/svg">
<path d="M6.54297 3.55176C6.54297 3.82676 6.31797 4.05176 6.04297 4.05176C5.76797 4.05176 5.54297 3.82676 5.54297 3.55176C5.54297 3.27676 5.76797 3.05176 6.04297 3.05176C6.31797 3.05176 6.54297 3.27576 6.54297 3.55176Z"/>
<path d="M14.737 30C6.474 30 0 23.411 0 15C0 11.371 1.237 7.889 3.485 5.196C3.663 4.984 3.977 4.957 4.189 5.133C4.401 5.31 4.43 5.625 4.253 5.837C2.155 8.35 1 11.604 1 15C1 22.851 7.034 29 14.737 29C22.602 29 29 22.72 29 15C29 7.28 22.602 1 14.737 1C12.297 1 9.924 1.62 7.879 2.792C7.642 2.925 7.334 2.846 7.197 2.606C7.06 2.366 7.143 2.061 7.383 1.923C9.579 0.665 12.122 0 14.737 0C23.153 0 30 6.729 30 15C30 23.271 23.153 30 14.737 30Z"/>
<path d="M15.3534 6.64645C15.1581 6.45118 14.8415 6.45118 14.6462 6.64645L11.4643 9.82843C11.269 10.0237 11.269 10.3403 11.4643 10.5355C11.6595 10.7308 11.9761 10.7308 12.1714 10.5355L14.9998 7.70711L17.8282 10.5355C18.0235 10.7308 18.3401 10.7308 18.5353 10.5355C18.7306 10.3403 18.7306 10.0237 18.5353 9.82843L15.3534 6.64645ZM15.4998 24V7H14.4998V24H15.4998Z"/>
<defs>
<clipPath id="clip0_393_5">
<rect width="30" height="30" />
</clipPath>
</defs>
</svg>
