<svg width="40" height="40" viewBox="0 0 40 40" fill="none" xmlns="http://www.w3.org/2000/svg">
<path d="M28.2978 12.5199L25.3971 10.0342L10.8977 22.4679C9.75567 23.4592 9.11757 24.7978 9.12272 26.1913C9.12787 27.5847 9.77587 28.9198 10.9252 29.9049C12.0745 30.89 13.6317 31.4451 15.2566 31.4488C16.8816 31.4526 18.4422 30.9047 19.5977 29.925L36.9978 15.0073C37.9497 14.1909 38.7048 13.2217 39.2199 12.1551C39.735 11.0884 40.0001 9.94521 40 8.79072C39.9999 7.63622 39.7346 6.49305 39.2193 5.42646C38.704 4.35988 37.9488 3.39077 36.9968 2.57448C36.0447 1.75819 34.9145 1.11069 33.6707 0.66896C32.4268 0.22723 31.0937 -8.27195e-05 29.7474 2.25805e-08C28.4011 8.27647e-05 27.068 0.22756 25.8242 0.669443C24.5804 1.11133 23.4503 1.75896 22.4984 2.57537L4.22977 18.2378L4.18821 18.2717C2.86041 19.4099 1.80712 20.7613 1.0885 22.2487C0.369875 23.7361 0 25.3304 0 26.9404C0 28.5504 0.369875 30.1446 1.0885 31.632C1.80712 33.1194 2.86041 34.4708 4.18821 35.6091C6.87027 37.9085 10.5076 39.2003 14.3002 39.2003C18.0928 39.2003 21.7301 37.9085 24.4121 35.6091L24.4495 35.5752L24.4516 35.5788L36.923 24.8877L34.0223 22.402L21.5509 33.0913L21.5156 33.1234C19.6017 34.7613 17.0082 35.6812 14.3043 35.6812C11.6004 35.6812 9.00696 34.7613 7.09308 33.1234C6.1441 32.3082 5.39215 31.3403 4.88036 30.2753C4.36857 29.2103 4.107 28.0692 4.11067 26.9173C4.11434 25.7654 4.38317 24.6255 4.90173 23.5629C5.4203 22.5004 6.1784 21.536 7.13256 20.7253L7.1284 20.7235L25.4012 5.06105C26.5555 4.07274 28.1201 3.51764 29.7512 3.51764C31.3824 3.51764 32.9469 4.07274 34.1013 5.06105C35.253 6.05055 35.8999 7.3915 35.8999 8.78957C35.8999 10.1876 35.253 11.5286 34.1013 12.5181L16.7012 27.4375C16.314 27.7556 15.7969 27.9311 15.2607 27.9262C14.7246 27.9214 14.2119 27.7367 13.8326 27.4117C13.4533 27.0867 13.2375 26.6472 13.2315 26.1874C13.2255 25.7276 13.4297 25.2841 13.8004 24.9518L28.2998 12.5181L28.2978 12.5216V12.5199Z" fill="#fff"/>
</svg>
