<?xml version="1.0" standalone="no"?>
<!DOCTYPE svg PUBLIC "-//W3C//DTD SVG 20010904//EN"
 "http://www.w3.org/TR/2001/REC-SVG-20010904/DTD/svg10.dtd">
<svg version="1.0" xmlns="http://www.w3.org/2000/svg"
 width="876.000000pt" height="876.000000pt" viewBox="0 0 876.000000 876.000000"
 preserveAspectRatio="xMidYMid meet">
<metadata>
Created by potrace 1.14, written by Peter Selinger 2001-2017
</metadata>
<g transform="translate(0.000000,876.000000) scale(0.100000,-0.100000)"
fill="#000000" stroke="none">
<path d="M29 7123 c44 -121 309 -831 336 -898 13 -33 33 -87 45 -120 12 -33
26 -69 30 -80 5 -11 34 -87 64 -170 30 -82 60 -163 67 -180 7 -16 13 -32 13
-35 1 -6 25 -67 36 -95 5 -11 20 -51 34 -90 14 -38 34 -95 46 -125 12 -30 24
-64 27 -75 3 -11 10 -25 14 -31 5 -6 10 -19 12 -30 2 -10 7 -26 10 -34 17 -42
80 -210 92 -245 8 -22 23 -65 35 -95 12 -30 23 -59 24 -65 1 -5 8 -21 13 -35
6 -14 20 -50 32 -80 11 -30 61 -165 112 -300 97 -261 135 -362 177 -477 15
-40 29 -73 32 -73 3 0 23 42 44 93 21 50 47 111 58 134 l18 43 -111 297 c-61
164 -121 325 -134 358 -13 33 -56 148 -95 255 -40 107 -78 209 -85 225 -7 17
-34 89 -59 160 -26 72 -51 139 -57 150 -15 32 -61 158 -66 183 -3 12 -9 25
-14 28 -5 3 -9 15 -9 28 0 12 -4 26 -9 31 -5 6 -23 51 -40 100 -17 50 -36 99
-41 110 -5 11 -23 58 -40 105 -17 47 -35 93 -41 102 -5 10 -9 26 -9 36 0 10
-4 22 -8 27 -8 9 -86 212 -87 225 0 3 -3 10 -6 15 -4 6 -12 28 -19 50 -7 22
-18 54 -26 70 -12 27 -121 316 -128 340 -2 6 -8 23 -14 38 -7 16 -12 33 -12
38 0 5 -4 17 -9 27 -14 27 -28 63 -42 105 l-13 37 -113 0 -112 0 28 -77z"/>
<path d="M529 7093 c22 -60 56 -153 76 -208 20 -55 40 -111 45 -125 4 -14 36
-101 70 -195 34 -93 72 -199 85 -235 13 -36 38 -103 55 -150 18 -47 33 -89 34
-95 2 -5 6 -17 9 -25 14 -35 51 -136 53 -145 1 -5 15 -46 32 -90 37 -98 148
-404 169 -465 8 -25 19 -54 23 -65 5 -11 18 -47 30 -80 11 -33 24 -69 29 -80
5 -11 69 -188 143 -392 73 -205 135 -373 138 -373 3 0 26 71 53 158 l47 157
-36 95 c-20 52 -37 100 -38 105 -2 6 -6 17 -9 25 -3 8 -20 56 -37 105 -17 50
-40 113 -50 140 -10 28 -28 77 -40 110 -11 33 -23 67 -27 75 -3 8 -7 20 -9 25
-1 6 -17 48 -34 95 -18 47 -35 96 -40 110 -10 33 -187 524 -207 575 -8 22 -28
76 -43 120 -15 44 -44 125 -65 180 -20 55 -38 105 -39 110 -2 6 -6 17 -9 25
-3 8 -38 105 -77 215 -39 110 -75 209 -79 220 -10 26 -29 78 -49 138 l-16 47
-113 0 -113 0 39 -107z"/>
<path d="M990 7173 c13 -45 101 -296 110 -318 5 -11 20 -54 34 -95 37 -112 96
-282 106 -305 5 -11 40 -112 79 -225 38 -113 95 -277 126 -365 31 -88 58 -167
60 -175 2 -8 20 -60 40 -115 53 -146 125 -355 137 -395 5 -19 14 -39 19 -44 5
-6 9 -20 9 -32 0 -13 5 -26 10 -29 6 -3 10 -17 10 -30 0 -13 5 -27 10 -30 6
-3 10 -16 10 -28 0 -43 20 1 74 165 l56 166 -49 139 c-73 205 -81 227 -88 243
-3 8 -7 20 -9 25 -1 6 -12 37 -24 70 -67 188 -164 459 -185 515 -13 36 -44
124 -70 195 -26 72 -50 139 -55 150 -5 11 -19 49 -30 85 -12 36 -26 74 -31 85
-9 21 -89 244 -117 328 l-16 47 -112 0 -113 0 9 -27z"/>
<path d="M2830 7182 c0 -10 -3 -21 -6 -25 -5 -5 -18 -39 -93 -252 -18 -49 -36
-99 -41 -110 -5 -11 -50 -135 -100 -275 -50 -140 -94 -262 -97 -270 -3 -8 -7
-19 -9 -25 -3 -11 -154 -430 -185 -510 -67 -179 -179 -493 -179 -502 0 -6 -6
-24 -14 -40 -8 -15 -31 -75 -52 -133 -20 -58 -49 -139 -64 -180 -16 -41 -42
-115 -60 -165 -17 -49 -35 -99 -40 -110 -9 -20 -49 -132 -54 -150 -2 -5 -9
-23 -15 -40 -7 -16 -14 -37 -16 -45 -2 -12 -81 -229 -112 -310 -3 -8 -7 -19
-9 -25 -1 -5 -11 -35 -23 -65 -11 -30 -36 -99 -55 -153 -20 -54 -38 -103 -42
-108 -3 -5 -7 -17 -9 -26 -3 -17 -91 -262 -135 -378 -31 -83 -339 -931 -344
-950 -2 -5 -8 -21 -13 -35 -6 -14 -29 -77 -51 -140 -22 -63 -59 -166 -82 -227
-84 -233 -121 -338 -123 -348 -1 -6 42 -11 111 -13 70 -2 112 1 112 7 0 10
103 299 241 676 39 105 71 195 73 200 2 6 5 17 8 25 18 48 185 515 203 568 2
7 5 14 5 17 0 3 10 26 21 52 12 27 22 55 24 63 2 8 19 58 38 110 20 52 77 210
127 350 50 140 95 264 100 275 5 11 45 124 90 250 45 127 97 273 117 325 19
52 57 156 83 230 26 74 64 178 83 230 54 150 235 653 282 785 24 66 66 183 95
260 28 77 53 147 55 155 5 17 62 174 75 205 4 11 54 148 110 305 56 157 122
340 146 407 24 67 44 124 44 127 0 3 -49 6 -110 6 -100 0 -110 -2 -110 -18z"/>
<path d="M3315 7188 c-2 -7 -48 -132 -101 -278 -53 -146 -97 -269 -98 -275 -2
-5 -6 -17 -9 -25 -7 -17 -76 -208 -143 -400 -24 -69 -48 -134 -53 -145 -5 -11
-14 -33 -19 -50 -6 -16 -14 -39 -18 -50 -4 -11 -8 -22 -8 -25 -1 -3 -6 -18
-13 -35 -15 -40 -20 -53 -63 -175 -81 -225 -130 -359 -165 -455 -20 -55 -40
-111 -45 -125 -5 -14 -30 -83 -55 -155 -26 -71 -55 -152 -65 -180 -10 -27 -84
-232 -165 -455 -81 -223 -156 -432 -167 -465 -12 -33 -25 -71 -31 -85 -6 -14
-11 -29 -13 -35 -3 -15 -124 -347 -134 -370 -5 -11 -18 -47 -29 -80 -11 -33
-34 -98 -51 -145 -17 -47 -54 -148 -81 -225 -27 -77 -53 -148 -59 -157 -5 -10
-10 -25 -10 -33 0 -8 -4 -23 -9 -33 -9 -16 -21 -46 -27 -67 -1 -5 -18 -53 -37
-105 -19 -52 -56 -153 -82 -225 -26 -71 -74 -204 -107 -295 -33 -91 -61 -169
-63 -175 -1 -5 -7 -23 -14 -40 -15 -36 -69 -188 -81 -228 l-9 -28 112 3 112 3
81 225 c46 124 113 308 149 410 37 102 82 226 100 275 18 50 56 155 84 235 29
80 57 159 64 175 6 17 12 32 13 35 0 3 6 19 13 35 7 17 14 37 16 45 2 8 45
128 95 265 51 138 102 279 115 315 12 36 61 172 109 302 47 130 86 239 86 241
0 3 8 22 17 43 9 22 17 44 19 49 1 9 45 130 141 395 20 52 44 120 55 150 74
207 192 533 208 575 10 28 39 109 65 180 25 72 49 137 52 145 3 8 7 17 8 20 1
3 4 12 8 20 3 8 29 80 57 160 28 80 60 168 70 195 11 28 67 183 125 345 58
162 112 311 120 330 16 41 96 260 99 275 2 6 6 17 9 25 12 30 57 152 57 156 0
2 -52 4 -115 4 -84 0 -117 -3 -120 -12z"/>
<path d="M3805 7170 c-8 -16 -16 -33 -16 -37 -2 -11 -3 -15 -40 -118 -66 -189
-97 -273 -107 -291 -5 -10 -11 -23 -12 -29 -7 -29 13 28 -255 -715 -102 -283
-193 -533 -201 -555 -9 -22 -18 -47 -19 -55 -2 -8 -48 -136 -103 -285 -54
-148 -105 -288 -112 -310 -7 -22 -18 -53 -26 -70 -7 -16 -27 -70 -45 -120 -45
-128 -92 -259 -214 -595 -115 -317 -167 -461 -209 -580 -15 -41 -31 -84 -36
-95 -5 -11 -12 -31 -15 -45 -4 -14 -13 -38 -20 -55 -7 -16 -41 -109 -75 -205
-33 -96 -65 -184 -69 -195 -15 -37 -49 -129 -81 -220 -17 -49 -35 -99 -40
-110 -5 -11 -41 -110 -80 -220 -39 -110 -87 -244 -107 -297 -19 -54 -35 -101
-35 -105 0 -4 -5 -17 -11 -28 -5 -11 -27 -67 -47 -125 -21 -58 -41 -112 -44
-121 -6 -14 6 -16 103 -18 l111 -1 16 37 c9 21 20 49 24 63 4 14 61 169 125
345 64 176 118 325 119 330 2 6 6 17 9 25 4 8 22 60 42 115 19 55 38 107 42
115 3 8 7 17 7 20 1 5 51 147 63 180 4 8 7 20 9 25 6 22 146 403 167 455 12
30 22 60 23 65 1 6 28 80 59 165 91 249 136 373 145 400 5 14 20 57 35 95 14
39 32 88 39 110 7 22 20 58 29 80 9 22 37 99 62 170 25 72 50 139 55 150 4 11
43 117 85 235 41 118 80 224 85 235 10 23 79 212 85 235 6 25 75 213 85 235 5
11 16 40 24 65 13 40 49 138 208 575 22 61 44 124 50 140 5 17 13 39 18 50 20
51 191 524 281 778 l48 137 -109 0 -109 0 -16 -30z"/>
<path d="M4319 7143 c0 -32 0 -98 0 -148 0 -49 0 -112 0 -140 0 -27 0 -59 0
-70 0 -11 0 -54 0 -95 -2 -217 0 -311 6 -320 3 -5 1 -10 -5 -10 -6 0 -9 -4 -6
-9 5 -8 6 -29 5 -214 0 -43 3 -82 6 -87 3 -6 1 -10 -5 -10 -6 0 -8 -4 -5 -10
3 -5 6 -56 5 -112 0 -57 -1 -146 -1 -198 0 -52 0 -117 0 -145 0 -27 0 -59 0
-70 0 -11 0 -54 0 -95 -2 -217 0 -311 6 -320 3 -5 1 -10 -5 -10 -6 0 -9 -4 -6
-9 5 -8 6 -29 5 -214 0 -43 3 -82 6 -87 3 -6 1 -10 -5 -10 -6 0 -8 -4 -5 -10
3 -5 6 -56 5 -112 0 -57 -1 -146 -1 -198 0 -52 0 -117 0 -145 0 -27 0 -59 0
-70 0 -11 0 -54 0 -95 -2 -217 0 -311 6 -320 3 -5 2 -10 -2 -10 -5 0 -6 -26
-3 -57 3 -32 3 -87 0 -123 -3 -36 -3 -93 0 -127 3 -35 3 -63 0 -63 -6 0 -3
-277 4 -302 2 -10 1 -18 -2 -18 -8 0 -6 -236 2 -256 3 -8 1 -14 -5 -14 -6 0
-7 -4 -4 -10 3 -5 6 -56 5 -112 0 -57 -1 -146 -1 -198 0 -52 0 -117 0 -145 0
-27 0 -59 0 -70 0 -11 0 -54 0 -95 -2 -217 0 -311 6 -320 3 -5 2 -10 -2 -10
-5 0 -6 -26 -3 -57 3 -32 3 -85 0 -118 -3 -33 -3 -76 -2 -96 l4 -36 104 -2
104 -1 0 2815 0 2815 -105 0 -105 0 -1 -57z"/>
<path d="M4787 7193 c-3 -5 -5 -1271 -5 -2815 l0 -2807 104 0 104 0 1 42 c0
38 0 5396 -1 5530 l0 57 -99 0 c-55 0 -102 -3 -104 -7z"/>
<path d="M5249 7198 c-5 -10 -3 -5611 1 -5618 3 -5 51 -8 105 -7 l100 2 0
2810 0 2810 -102 3 c-57 1 -104 1 -104 0z"/>
<path d="M7620 4385 l0 -2814 105 0 105 0 0 2815 0 2814 -105 0 -105 0 0
-2815z"/>
<path d="M8087 7193 c-3 -5 -5 -1271 -4 -2815 l0 -2808 104 1 103 0 1 27 c0
40 1 5575 0 5590 -1 9 -28 12 -100 12 -55 0 -102 -3 -104 -7z"/>
<path d="M8545 4386 l0 -2814 102 0 c73 -1 103 3 104 11 1 7 2 1273 3 2814 l1
2803 -105 0 -105 0 0 -2814z"/>
<path d="M5720 6819 c-1 -30 -1 -111 -1 -181 l0 -128 95 -137 c52 -76 99 -143
104 -148 5 -6 17 -24 28 -40 14 -23 190 -275 274 -395 6 -8 83 -118 171 -245
87 -126 166 -238 174 -248 8 -9 15 -19 15 -21 0 -5 231 -338 240 -346 3 -3 36
-50 73 -105 37 -55 106 -154 153 -220 47 -66 87 -128 91 -137 3 -10 9 -18 14
-18 4 0 14 -11 21 -24 22 -40 112 -170 136 -196 12 -14 22 -29 22 -33 0 -5 7
-15 15 -23 13 -14 15 -5 16 80 0 53 1 134 1 180 l1 83 -49 70 c-27 38 -76 109
-109 157 -33 48 -80 116 -105 150 -25 35 -49 70 -55 79 -9 14 -35 52 -230 332
-42 61 -89 128 -103 150 -15 22 -29 42 -33 45 -3 3 -34 48 -70 100 -92 134
-493 712 -551 793 -26 37 -48 71 -48 76 0 5 -4 11 -8 13 -5 2 -25 28 -45 58
-20 30 -41 60 -45 65 -4 6 -39 55 -77 110 -38 55 -73 102 -77 103 -4 2 -8 9
-8 17 0 7 -7 18 -15 25 -13 11 -15 5 -15 -41z"/>
<path d="M5719 5978 c-2 -256 0 -281 29 -321 15 -21 32 -46 37 -55 6 -9 13
-19 16 -22 3 -3 21 -27 39 -55 19 -27 37 -51 42 -53 4 -2 8 -8 8 -13 0 -9 37
-67 51 -79 3 -3 30 -41 60 -85 30 -44 59 -87 66 -95 7 -8 68 -96 137 -195 69
-99 130 -187 136 -195 6 -8 125 -179 266 -380 140 -201 261 -373 269 -383 8
-9 15 -19 15 -22 0 -3 28 -45 63 -93 66 -92 96 -135 112 -161 6 -9 13 -18 16
-21 3 -3 57 -79 119 -170 63 -91 118 -166 122 -168 4 -2 8 -8 8 -14 0 -5 7
-16 15 -24 13 -14 15 -13 15 3 1 10 2 51 3 91 1 39 0 72 -4 72 -3 0 -3 24 1
53 9 90 -2 128 -60 213 -30 44 -58 81 -62 82 -4 2 -8 7 -8 12 0 7 -140 211
-168 245 -5 6 -17 24 -28 40 -10 16 -74 108 -141 205 -68 96 -127 182 -133
190 -6 8 -47 68 -93 132 -45 65 -107 154 -137 198 -30 45 -60 86 -66 93 -5 7
-34 48 -64 92 -30 44 -59 85 -64 92 -6 7 -36 48 -66 93 -30 44 -91 132 -135
195 -44 62 -107 153 -140 201 -33 48 -76 108 -95 135 -19 27 -64 91 -100 143
-36 53 -68 96 -72 96 -5 0 -8 -33 -9 -72z"/>
<path d="M5720 5130 c-2 -178 1 -254 8 -260 4 -3 21 -25 37 -50 17 -25 34 -49
38 -55 31 -39 187 -268 187 -276 0 -5 3 -9 8 -9 4 0 18 -18 32 -40 14 -22 28
-40 32 -40 5 0 8 -4 8 -10 0 -7 79 -124 200 -295 50 -70 156 -223 165 -238 9
-14 102 -146 235 -336 30 -43 87 -124 125 -180 39 -56 152 -219 253 -362 100
-143 182 -264 182 -269 0 -5 4 -10 8 -12 4 -1 32 -38 61 -81 30 -43 56 -75 58
-73 4 4 6 205 3 231 -1 6 -1 35 0 66 1 59 3 56 -123 237 -18 26 -66 94 -107
152 -40 58 -93 133 -117 167 -23 34 -43 66 -43 72 0 5 -4 11 -8 13 -4 2 -30
35 -57 73 -27 39 -53 72 -57 73 -5 2 -8 8 -8 12 0 7 -107 166 -138 205 -7 9
-236 339 -272 391 -42 62 -145 210 -152 219 -28 34 -138 198 -138 205 0 4 -4
10 -8 12 -8 3 -304 424 -311 442 -2 6 -15 22 -28 35 -12 14 -23 29 -23 34 0 4
-5 13 -10 20 -6 7 -17 21 -25 32 -13 18 -14 6 -15 -105z"/>
<path d="M3649 4932 l-197 -2 -36 -99 c-20 -53 -36 -100 -36 -103 0 -3 167 -6
370 -6 l370 0 0 104 c0 76 -3 104 -12 105 -56 3 -298 4 -459 1z"/>
<path d="M3309 4462 c-15 -2 -29 -11 -32 -20 -3 -9 -19 -55 -36 -102 -17 -47
-31 -85 -31 -86 0 0 205 -1 455 -1 l455 0 1 71 c1 82 -1 129 -7 135 -4 5 -766
8 -805 3z"/>
<path d="M3155 4000 l-39 -5 -37 -97 c-20 -53 -34 -100 -31 -103 3 -3 245 -5
539 -5 l534 0 -3 106 -3 106 -460 1 c-253 1 -478 0 -500 -3z"/>
</g>
</svg>
